<?xml version="1.0" standalone="no"?>
<!DOCTYPE svg PUBLIC "-//W3C//DTD SVG 1.1//EN" "http://www.w3.org/Graphics/SVG/1.1/DTD/svg11.dtd" >
<svg xmlns="http://www.w3.org/2000/svg">
<metadata></metadata>
<defs>
<font id="telcelregular" horiz-adv-x="1208" >
<font-face units-per-em="2048" ascent="1556" descent="-492" />
<missing-glyph horiz-adv-x="460" />
<glyph horiz-adv-x="2048" />
<glyph horiz-adv-x="2048" />
<glyph unicode="&#xd;" horiz-adv-x="2048" />
<glyph unicode=" "  horiz-adv-x="460" />
<glyph unicode="&#x09;" horiz-adv-x="460" />
<glyph unicode="&#xa0;" horiz-adv-x="460" />
<glyph unicode="!" horiz-adv-x="727" d="M133 31v172q0 130 75 189t198 59q48 0 95 -12t70 -24l23 -12v-170q0 -130 -74.5 -189.5t-197.5 -59.5q-48 0 -95.5 12t-70.5 24zM143 1214q-6 117 58 174.5t174 57.5q54 0 108.5 -14t82.5 -28l28 -15l-29 -648q-4 -116 -57.5 -169.5t-157.5 -53.5q-34 0 -64.5 6t-50.5 14 t-35 16.5t-22 14.5l-6 6z" />
<glyph unicode="&#x22;" horiz-adv-x="1261" d="M143 952v424q0 133 76.5 193.5t202.5 60.5q51 0 101 -13t74 -25l24 -13l-66 -360q-27 -153 -103.5 -220t-209.5 -67q-28 0 -53 5t-35 10zM672 952v424q0 133 76 193.5t202 60.5q51 0 101 -13t74 -25l24 -13l-66 -360q-27 -153 -103.5 -220t-209.5 -67q-28 0 -52.5 5 t-35.5 10z" />
<glyph unicode="#" horiz-adv-x="2158" d="M154 309q0 89 53.5 142t161.5 53h211l86 180h-484q-28 47 -28 121q0 89 53.5 141.5t161.5 52.5h442l215 459q61 131 180 131q42 0 78 -10.5t57 -25.5t36.5 -30t21.5 -25l6 -11l-834 -1786q-61 -131 -180 -131q-42 0 -78 10.5t-57 25.5t-36 30t-21 26l-6 10l241 516h-252 q-28 47 -28 121zM739 -328l834 1786q61 131 180 131q42 0 78 -10.5t57.5 -25.5t36.5 -30t21 -25l6 -11l-228 -488h252q29 -46 29 -120q0 -89 -53.5 -142t-161.5 -53h-213l-84 -180h483q29 -47 29 -121q0 -89 -53.5 -142t-161.5 -53h-444l-228 -487q-61 -131 -180 -131 q-42 0 -78 10.5t-57 25.5t-36.5 30t-21.5 26z" />
<glyph unicode="$" horiz-adv-x="1148" d="M102 864q0 147 86.5 237t235.5 116v286q51 29 125 29q91 0 149 -54t58 -161v-105q151 -13 205.5 -68.5t54.5 -178.5q0 -25 -5 -51.5t-9 -39.5l-5 -14q-125 23 -342 23q-108 0 -141 -11.5t-33 -44.5q0 -30 28.5 -46t98.5 -27q135 -22 217.5 -50.5t133.5 -77t69.5 -112 t18.5 -162.5q0 -130 -77.5 -226t-213.5 -126v-307q-51 -29 -125 -29q-91 0 -149 54t-58 161v105q-147 12 -213 77t-66 183q0 25 4.5 47t8.5 31l4 10q113 -27 336 -27q101 0 140.5 17t39.5 53q0 35 -39.5 50.5t-192.5 43.5q-167 31 -255.5 132.5t-88.5 262.5z" />
<glyph unicode="%" horiz-adv-x="2512" d="M154 801q0 211 117 323.5t309 112.5q204 0 315 -111t111 -325q0 -132 -49.5 -241t-147.5 -176t-227 -67q-105 0 -188 39t-134.5 106t-78.5 153.5t-27 185.5zM461 799q0 -87 17.5 -137t42 -65t61.5 -15q55 0 85.5 45t30.5 172q0 92 -30 128t-88 36q-56 0 -87.5 -36.5 t-31.5 -127.5zM590 -117l950 1489q35 57 81 85t91 28q66 0 126.5 -42t72.5 -104l-950 -1489q-36 -58 -82 -86t-91 -28q-66 0 -126 42.5t-72 104.5zM1507 463q0 211 117 323.5t309 112.5q204 0 315 -111t111 -325q0 -132 -49.5 -241t-147.5 -175.5t-227 -66.5 q-105 0 -188 38.5t-134.5 105.5t-78.5 153.5t-27 185.5zM1815 461q0 -67 9 -111.5t26.5 -66.5t37.5 -30.5t47 -8.5q55 0 86 45t31 172q0 91 -30.5 127.5t-88.5 36.5q-56 0 -87 -36.5t-31 -127.5z" />
<glyph unicode="&#x26;" horiz-adv-x="1617" d="M72 461q0 168 86.5 263t201.5 95q83 0 140 -28l6 6l-37 47q-98 127 -98 256q0 128 105.5 198t328.5 70q161 0 248 -24t124 -78t37 -154q0 -25 -4.5 -51t-9.5 -39l-4 -14q-84 18 -219 18q-73 0 -98 -11.5t-25 -39.5q0 -26 17.5 -52.5t68.5 -82.5l64 -72h8l184 240 q37 4 86 4q93 0 146 -51t53 -127q0 -90 -70 -166l-170 -187l356 -411q-3 -4 -9 -10.5t-27.5 -22.5t-47 -28.5t-68 -23t-89.5 -10.5q-105 0 -173.5 36.5t-140.5 123.5l-49 60h-8l-29 -35q-79 -95 -178 -140t-235 -45q-114 0 -206 41t-148.5 109.5t-86.5 154.5t-30 181z M477 465q0 -71 30 -115.5t73 -44.5q39 0 68.5 22.5t76.5 84.5l43 55l-74 92q-28 34 -52.5 46.5t-59.5 12.5q-44 0 -74.5 -36t-30.5 -117z" />
<glyph unicode="'" horiz-adv-x="733" d="M143 952v424q0 133 76.5 193.5t202.5 60.5q51 0 101 -13t74 -25l24 -13l-66 -360q-27 -153 -103.5 -220t-209.5 -67q-28 0 -53 5t-35 10z" />
<glyph unicode="(" horiz-adv-x="1046" d="M246 582q0 268 37 466t105.5 315.5t158.5 173.5t203 56q100 0 147 -42.5t47 -133.5q0 -34 -8 -68.5t-16 -52.5l-9 -18q-29 2 -82 2q-36 0 -65.5 -11.5t-64 -54t-57.5 -115t-38.5 -205t-15.5 -312.5q0 -130 8 -235.5t21.5 -177.5t33 -125t39.5 -83.5t45.5 -48.5t47 -23.5 t46.5 -5.5l82 2q33 -63 33 -139q0 -91 -47 -133.5t-147 -42.5q-113 0 -203 56t-158.5 174t-105.5 316t-37 466z" />
<glyph unicode=")" horiz-adv-x="1046" d="M102 -254q0 34 8 68.5t16 52.5l9 18q29 -2 82 -2q36 0 65.5 11.5t64 54.5t58 115.5t39 205t15.5 312.5t-15.5 312.5t-39 205t-58 115t-64 54t-65.5 11.5l-82 -2q-33 63 -33 139q0 91 47.5 133.5t147.5 42.5q113 0 203 -56t158.5 -173.5t105.5 -315.5t37 -466t-37 -466 t-105.5 -316t-158.5 -174t-203 -56q-100 0 -147.5 42.5t-47.5 133.5z" />
<glyph unicode="*" horiz-adv-x="976" d="M53 946q0 76 59 129.5t142 83.5q-26 21 -64.5 38t-63.5 23l-26 7q-8 24 -8 59q0 64 39.5 118t112.5 54q63 0 118.5 -37t96.5 -94q11 33 15 75t2 68l-1 25q58 31 117 31q74 0 116 -44.5t42 -125.5q0 -84 -66 -176h16q30 0 66 8t57 16l21 8q9 -8 22.5 -21.5t35.5 -54 t22 -79.5q0 -76 -67 -117t-146 -41q-44 0 -103 19q20 -71 84 -138q-2 -5 -6.5 -14t-19.5 -31t-33 -39t-47.5 -31t-61.5 -14q-58 0 -101 40.5t-61 92.5t-18 103q0 16 2 24q-75 -56 -113 -125q-7 1 -19.5 3t-43.5 13t-54.5 26.5t-43 47t-19.5 70.5z" />
<glyph unicode="+" horiz-adv-x="1552" d="M154 561q0 91 54 149t161 58h241v416q51 28 125 28q91 0 149 -54t58 -161v-229h428q29 -51 29 -125q0 -91 -54 -149t-161 -58h-242v-424q-51 -28 -125 -28q-91 0 -149 54t-58 161v237h-428q-28 51 -28 125z" />
<glyph unicode="," horiz-adv-x="727" d="M10 -96q5 2 13.5 6.5t33 22t47 39.5t49.5 61.5t46 85.5q26 64 37 131.5t8 103.5l-2 35q53 21 106 21q132 0 194 -60t62 -190q0 -165 -116.5 -280.5t-297.5 -115.5q-50 0 -87.5 14.5t-54 35t-26.5 41t-11 35.5z" />
<glyph unicode="-" horiz-adv-x="819" d="M102 553q0 91 54 149t161 58h371q29 -51 29 -125q0 -91 -54 -149t-161 -58h-371q-29 51 -29 125z" />
<glyph unicode="." horiz-adv-x="686" d="M113 31v172q0 130 74.5 189t197.5 59q48 0 95 -12t70 -24l23 -12v-170q0 -130 -74.5 -189.5t-197.5 -59.5q-48 0 -95 12t-70 24z" />
<glyph unicode="/" horiz-adv-x="1314" d="M51 -328l834 1786q61 131 180 131q42 0 78 -10.5t57.5 -25.5t36.5 -30t21 -25l6 -11l-834 -1786q-61 -131 -180 -131q-42 0 -78 10.5t-57 25.5t-36.5 30t-21.5 26z" />
<glyph unicode="0" horiz-adv-x="1269" d="M51 639q0 303 149.5 450.5t432.5 147.5q586 0 586 -598q0 -152 -45.5 -277t-125 -208t-185.5 -128.5t-228 -45.5q-263 0 -423.5 176.5t-160.5 482.5zM479 637q0 -162 40 -245t116 -83q81 0 118.5 81.5t37.5 246.5q0 143 -40 200.5t-118 57.5q-76 0 -115 -57.5t-39 -200.5 z" />
<glyph unicode="1" horiz-adv-x="878" d="M41 1001q0 89 53.5 142t161.5 53h438v-1159q-9 -6 -25 -15.5t-66.5 -25.5t-102.5 -16q-105 0 -165.5 56.5t-60.5 174.5v670h-204q-29 46 -29 120z" />
<glyph unicode="2" horiz-adv-x="1236" d="M-10 0l612 653q44 46 61 78t17 72q0 45 -41 68.5t-141 23.5q-105 0 -201 -10.5t-140 -20.5l-44 -10q-19 47 -19 104q0 100 43.5 159.5t146.5 89.5t279 30q279 0 413 -86t134 -260q0 -121 -37.5 -202.5t-130.5 -176.5l-190 -197h198q108 0 161.5 -52.5t53.5 -141.5 q0 -33 -8 -63t-16 -44l-8 -14h-1143z" />
<glyph unicode="3" horiz-adv-x="1185" d="M51 958q0 103 40.5 162t143 88t285.5 29q276 0 405.5 -80t129.5 -272q0 -131 -79 -228t-188 -120v-9q275 -37 275 -305q0 -143 -75 -245t-197.5 -150.5t-278.5 -48.5q-200 0 -294.5 65.5t-94.5 202.5q0 25 4 47t8 32l4 9q95 -26 283 -26q122 0 167.5 31.5t45.5 99.5 q0 53 -33 72.5t-131 19.5q-122 0 -180 58.5t-58 162.5q0 25 4.5 47t8.5 32l4 9q53 -4 133 -4q244 0 244 143q0 65 -47 90t-183 25q-91 0 -173 -10.5t-118 -20.5l-36 -10q-19 47 -19 104z" />
<glyph unicode="4" horiz-adv-x="1425" d="M-41 137l817 1184q62 35 164 35q104 0 164.5 -57.5t60.5 -174.5v-671h252q29 -47 29 -121q0 -89 -53.5 -142t-161.5 -53h-66v-219q-8 -6 -22 -15.5t-62 -25.5t-100 -16q-215 0 -215 231v45h-807zM573 453h193v288z" />
<glyph unicode="5" horiz-adv-x="1155" d="M102 764v432h951q28 -47 28 -121q0 -89 -53.5 -141.5t-161.5 -52.5h-344v-78q0 -91 35 -126t129 -46q225 -25 311 -114.5t86 -293.5q0 -143 -75 -245t-197.5 -150.5t-278.5 -48.5q-200 0 -294.5 65.5t-94.5 202.5q0 25 4.5 47t8.5 32l4 9q96 -26 282 -26 q122 0 167.5 31.5t45.5 99.5q0 56 -36 84t-127 28q-188 0 -289 104t-101 308z" />
<glyph unicode="6" horiz-adv-x="1280" d="M72 541q0 172 46 287t152 253l305 400q38 4 87 4q93 0 147.5 -53t54.5 -129q0 -92 -73 -162l-238 -226l4 -6q5 5 14 12.5t38 27.5t58.5 35t73 27.5t84.5 12.5q86 0 156 -27t124 -83t84 -150.5t30 -222.5q0 -118 -40.5 -221.5t-113.5 -180t-181.5 -120.5t-238.5 -44 q-139 0 -249 44t-180 121t-107 179.5t-37 221.5zM500 522q0 -217 145 -217q67 0 106.5 55t39.5 172q0 93 -36 131.5t-108 38.5q-64 0 -105.5 -44t-41.5 -136z" />
<glyph unicode="7" horiz-adv-x="1204" d="M-10 1075q0 33 7 63t14 44l7 14h1207l-711 -1434q-46 -8 -70 -8q-111 0 -180 64.5t-69 169.5q0 76 49 174l370 719h-409q-108 0 -161.5 52.5t-53.5 141.5z" />
<glyph unicode="8" horiz-adv-x="1236" d="M82 1075q0 62 16.5 114.5t55.5 99t99.5 79t153 51.5t211.5 19q149 0 256 -28t167 -79.5t87 -114t27 -141.5q0 -123 -79.5 -219t-201.5 -119v-8q124 -14 199.5 -99t75.5 -222q0 -190 -138.5 -309t-392.5 -119q-261 0 -395.5 118t-134.5 310q0 137 75.5 222t198.5 99v8 q-120 23 -200 119t-80 219zM508 428q0 -119 110 -119q111 0 111 119q0 67 -28.5 96t-82.5 29q-110 0 -110 -125zM512 991q0 -119 106 -119q107 0 107 119q0 55 -26 80t-81 25q-106 0 -106 -105z" />
<glyph unicode="9" horiz-adv-x="1280" d="M72 680q0 258 155.5 407.5t421.5 149.5q278 0 424 -149.5t146 -407.5q0 -119 -25 -216.5t-65 -169.5t-109 -163l-305 -399q-37 -4 -86 -4q-93 0 -148 53t-55 129q0 91 74 162l237 225l-4 6l-11.5 -11.5t-32 -25.5t-51 -32t-67.5 -25.5t-82 -11.5q-176 0 -296.5 129 t-120.5 354zM500 696q0 -186 145 -186q61 0 103.5 47t42.5 139q0 112 -35.5 155.5t-108.5 43.5q-147 0 -147 -199z" />
<glyph unicode=":" horiz-adv-x="686" d="M113 31v172q0 130 74.5 189t197.5 59q48 0 95 -12t70 -24l23 -12v-170q0 -130 -74.5 -189.5t-197.5 -59.5q-48 0 -95 12t-70 24zM113 608v172q0 130 74.5 189t197.5 59q48 0 95 -12t70 -24l23 -11v-170q0 -130 -75 -190t-197 -60q-48 0 -95 11.5t-70 23.5z" />
<glyph unicode=";" horiz-adv-x="727" d="M10 -96q5 2 13.5 6.5t33 22t47 39.5t49.5 61.5t46 85.5q26 64 37 131.5t8 103.5l-2 35q53 21 106 21q132 0 194 -60t62 -190q0 -165 -116.5 -280.5t-297.5 -115.5q-50 0 -87.5 14.5t-54 35t-26.5 41t-11 35.5zM123 608v172q0 130 74.5 189t197.5 59q48 0 95.5 -12 t70.5 -24l23 -11v-170q0 -130 -75 -190t-198 -60q-48 0 -95 11.5t-70 23.5z" />
<glyph unicode="&#x3c;" horiz-adv-x="1515" d="M195 580l903 651q6 -2 15.5 -7t33.5 -22.5t43 -39.5t34 -60t15 -82q0 -101 -96 -168l-389 -279l506 -380q-1 -8 -4 -22.5t-18 -50.5t-36 -63.5t-61.5 -50t-91.5 -22.5q-70 0 -136 49z" />
<glyph unicode="=" horiz-adv-x="1552" d="M256 348q0 91 54 149t161 58h797q28 -51 28 -125q0 -91 -54 -149t-161 -58h-796q-29 51 -29 125zM256 776q0 91 54 149t161 58h797q28 -51 28 -125q0 -91 -54 -149t-161 -58h-796q-29 51 -29 125z" />
<glyph unicode="&#x3e;" horiz-adv-x="1515" d="M256 993q1 9 4 23t18 50.5t36 64t61.5 50.5t91.5 23q67 0 135 -51l719 -547l-903 -651q-6 2 -15.5 7t-34 22.5t-43 39.5t-34 60t-15.5 82q0 100 97 168l389 280z" />
<glyph unicode="?" horiz-adv-x="847" d="M-51 1180q0 147 88.5 206.5t314.5 59.5q290 0 418.5 -87t128.5 -274q0 -134 -59.5 -219.5t-180.5 -148.5q-49 -24 -69 -76q-26 -61 -71 -92t-134 -31q-34 0 -64.5 6t-50.5 14t-35 16.5t-21 14.5l-7 6l-4 134q-1 72 24 116t80 74q105 56 134.5 82t29.5 57q0 33 -37 49.5 t-135 16.5q-93 0 -176 -7t-119 -15l-37 -7q-18 48 -18 105zM168 31v172q0 130 74.5 189t197.5 59q48 0 95.5 -12t70.5 -24l23 -12v-170q0 -130 -75 -189.5t-198 -59.5q-48 0 -95 12t-70 24z" />
<glyph unicode="@" horiz-adv-x="1929" d="M154 451q0 284 177 427.5t503 143.5q279 0 397.5 -70t118.5 -215v-233q0 -78 36 -78q41 0 69 68.5t28 201.5q0 231 -140 322.5t-469 91.5q-158 0 -302 -15t-208 -29l-65 -15q-16 39 -16 86q0 52 15 89t54.5 70t107 53t175.5 31t258 11q314 0 509.5 -76.5t284.5 -225.5 t89 -382q0 -147 -37 -256.5t-104.5 -175.5t-156 -98t-198.5 -32q-72 0 -126 15t-84.5 41t-46 54.5t-19.5 61.5h-9q-13 -69 -65.5 -118t-138.5 -49q-96 0 -156 67.5t-60 183.5q0 137 85 205t243 68q61 0 101 -8v16q0 35 -26.5 47t-115.5 12q-220 0 -318 -72t-98 -241 q0 -76 16.5 -132.5t56 -103.5t105.5 -77t166 -46t236 -16q165 0 307 15t202 30l60 15q17 -39 17 -86q0 -84 -54 -138.5t-189.5 -85t-360.5 -30.5q-189 0 -335.5 32.5t-243.5 90.5t-159.5 144t-89 186.5t-26.5 224.5zM883 469q0 -59 57 -59q34 0 49 15t15 54v41q-20 2 -56 2 q-65 0 -65 -53z" />
<glyph unicode="A" horiz-adv-x="1329" d="M-10 190q0 48 22 109l389 995q12 7 33.5 18t86 29.5t128.5 18.5q291 0 379 -268l342 -1037l-8 -8t-23.5 -18t-40.5 -23t-59 -18t-78 -8q-118 0 -186.5 51t-100.5 162l-30 106h-391l-99 -299q-44 -20 -116 -20q-114 0 -181 57.5t-67 152.5zM563 631h187l-82 299h-9z" />
<glyph unicode="B" horiz-adv-x="1255" d="M102 41v1286h713q156 0 242 -73.5t86 -209.5q0 -116 -69 -198.5t-161 -116.5v-8q63 -4 117 -23.5t98.5 -55t70.5 -94t26 -134.5q0 -192 -168.5 -313t-458.5 -121q-148 0 -272 15t-174 31zM543 326q25 -4 78 -4q87 0 121 25.5t34 82.5q0 48 -21.5 68t-68.5 20h-143v-192z M543 834h61q48 0 69 22t21 66q0 39 -15 56t-52 17h-84v-161z" />
<glyph unicode="C" horiz-adv-x="1161" d="M41 705q0 351 160.5 507t488.5 156q179 0 278 -28t141 -89t42 -170q0 -25 -4.5 -52t-8.5 -41l-5 -15q-139 28 -342 28q-165 0 -233.5 -65.5t-68.5 -233.5q0 -201 80 -288.5t250 -87.5q87 0 158.5 7t100.5 14l28 7q16 -35 16 -92q0 -72 -19.5 -121.5t-67 -87t-132.5 -55.5 t-211 -18q-297 0 -474 192t-177 533z" />
<glyph unicode="D" horiz-adv-x="1339" d="M102 41v1286h609q300 0 443.5 -144t143.5 -460q0 -358 -183.5 -550.5t-524.5 -192.5q-96 0 -181.5 6.5t-139 15t-93.5 17.5t-57 15zM543 328l7 -3l40 -3q131 0 195.5 91.5t64.5 288.5q0 165 -48 230t-161 65h-98v-669z" />
<glyph unicode="E" horiz-adv-x="1105" d="M102 0v1327h924q29 -51 29 -125q0 -90 -58 -148.5t-166 -58.5h-288v-145h463q28 -51 28 -125q0 -90 -57.5 -148.5t-165.5 -58.5h-268v-186h504q28 -51 28 -125q0 -91 -54 -149t-161 -58h-758z" />
<glyph unicode="F" horiz-adv-x="1075" d="M102 211v1116h924q29 -51 29 -125q0 -89 -58 -145.5t-166 -57.5l-288 -2v-147h463q28 -51 28 -125q0 -89 -57.5 -146t-165.5 -57l-268 -2v-483q-9 -6 -26.5 -15.5t-71 -25.5t-107.5 -16q-109 0 -172.5 56.5t-63.5 174.5z" />
<glyph unicode="G" horiz-adv-x="1298" d="M41 705q0 349 169.5 506t500.5 157q267 0 376 -64t109 -223q0 -25 -4.5 -52t-9.5 -41l-4 -15q-164 28 -367 28q-168 0 -245 -67t-77 -232q0 -214 58 -295t219 -81l65 2v182h-167q-29 51 -29 125q0 91 54 149t161 58h377v-801q-21 -7 -59.5 -17t-166.5 -27t-264 -17 q-326 0 -511 190.5t-185 534.5z" />
<glyph unicode="H" horiz-adv-x="1372" d="M102 211v1087q9 6 26.5 16t71 26t107.5 16q109 0 172.5 -57t63.5 -175v-282h286v456q9 6 26.5 16t71 26t107.5 16q109 0 172.5 -57t63.5 -175v-1087q-9 -6 -26.5 -15.5t-71 -25.5t-107.5 -16q-109 0 -172.5 56.5t-63.5 174.5v299h-286v-473q-9 -6 -26.5 -15.5t-71 -25.5 t-107.5 -16q-109 0 -172.5 56.5t-63.5 174.5z" />
<glyph unicode="I" horiz-adv-x="645" d="M102 211v1087q9 6 26.5 16t71 26t107.5 16q109 0 172.5 -57t63.5 -175v-1087q-9 -6 -26.5 -15.5t-71 -25.5t-107.5 -16q-109 0 -172.5 56.5t-63.5 174.5z" />
<glyph unicode="J" horiz-adv-x="927" d="M0 252q0 25 4 48.5t8 34.5l4 11q95 -27 265 -27q125 0 125 103v876q9 6 26.5 16t70.5 26t107 16q109 0 172.5 -57t63.5 -175v-747q0 -190 -113 -296t-336 -106q-210 0 -303.5 69t-93.5 208z" />
<glyph unicode="K" horiz-adv-x="1353" d="M102 211v1087q9 6 26.5 16t71 26t107.5 16q109 0 172.5 -57t63.5 -175v-313h2q40 0 55.5 9t34.5 42l260 477h141q107 0 164 -52t57 -128q0 -83 -55 -153l-198 -244q148 -27 192 -187l137 -520q-2 -3 -7 -8t-23.5 -18t-40 -23t-59 -18t-79.5 -8q-233 0 -286 213l-43 169 q-19 71 -50 94t-110 23h-92v-442q-9 -6 -26.5 -15.5t-71 -25.5t-107.5 -16q-109 0 -172.5 56.5t-63.5 174.5z" />
<glyph unicode="L" horiz-adv-x="1075" d="M102 0v1298q9 6 26.5 16t71 26t107.5 16q109 0 172.5 -57t63.5 -175v-792h504q28 -51 28 -125q0 -91 -54 -149t-161 -58h-758z" />
<glyph unicode="M" horiz-adv-x="1822" d="M102 211v1087q14 7 40 17.5t102 27.5t147 17q145 0 237 -40.5t142.5 -121t75.5 -215.5l72 -377h8l159 692q13 6 35 16t86.5 26t122.5 16q197 0 294 -87t97 -265v-967q-7 -6 -20.5 -15.5t-60.5 -25.5t-101 -16q-109 0 -174 58q-61 55 -61 160v13l26 698h-8l-209 -872 q-8 -6 -23.5 -15.5t-66 -25.5t-104.5 -16q-103 0 -162 54t-88 177l-162 698h-8l22 -872q-7 -6 -20.5 -15.5t-60.5 -25.5t-101 -16q-109 0 -172.5 56.5t-63.5 174.5z" />
<glyph unicode="N" horiz-adv-x="1398" d="M102 211v1087q7 6 20.5 16t61 26t101.5 16q91 0 148.5 -34t109.5 -114l344 -532h8l-16 622q7 6 20.5 16t60.5 26t101 16q108 0 171.5 -57t63.5 -175l-6 -1087q-7 -6 -20.5 -15.5t-60.5 -25.5t-101 -16q-91 0 -148 34t-110 113l-342 520h-8l20 -610q-7 -6 -20.5 -15.5 t-60.5 -25.5t-101 -16q-109 0 -172.5 56.5t-63.5 174.5z" />
<glyph unicode="O" horiz-adv-x="1384" d="M41 705q0 351 160.5 507t488.5 156q330 0 491.5 -156t161.5 -507q0 -341 -177 -533t-474 -192t-474 192t-177 533zM489 702q0 -385 203 -385q96 0 149.5 95t53.5 290q0 169 -48.5 242.5t-156.5 73.5q-103 0 -152 -74.5t-49 -241.5z" />
<glyph unicode="P" horiz-adv-x="1218" d="M102 211v1116h727q170 0 274.5 -104t104.5 -281q0 -233 -135.5 -363t-359.5 -130h-170v-412q-9 -6 -26.5 -15.5t-71 -25.5t-107.5 -16q-109 0 -172.5 56.5t-63.5 174.5zM543 780h86q67 0 99 30.5t32 98.5q0 43 -21.5 66.5t-62.5 23.5h-133v-219z" />
<glyph unicode="Q" horiz-adv-x="1404" d="M41 705q0 351 160.5 507t488.5 156q335 0 494 -142t159 -444q0 -258 -156 -385q-56 -45 -102 -57v-8h105q107 0 161 -58t54 -149q0 -33 -7.5 -64t-14.5 -46l-7 -15h-684q-300 0 -475.5 183t-175.5 522zM489 702q0 -194 52 -282t151 -88q203 0 203 370q0 169 -48.5 242.5 t-156.5 73.5q-103 0 -152 -74.5t-49 -241.5z" />
<glyph unicode="R" horiz-adv-x="1353" d="M102 211v1116h791q171 0 259.5 -78t88.5 -217q0 -100 -62.5 -177t-154.5 -103v-9q133 -26 172 -168l137 -520q-2 -3 -7 -8t-23.5 -18t-40 -23t-59 -18t-79.5 -8q-233 0 -286 213l-43 169q-19 71 -50 94t-110 23h-92v-442q-9 -6 -26.5 -15.5t-71 -25.5t-107.5 -16 q-109 0 -172.5 56.5t-63.5 174.5zM543 811h123q67 0 97 25.5t30 76.5q0 42 -20.5 61t-65.5 19h-164v-182z" />
<glyph unicode="S" horiz-adv-x="1153" d="M41 973q0 202 143.5 298.5t436.5 96.5q177 0 276.5 -30t140.5 -92.5t41 -172.5q0 -25 -4.5 -52t-8.5 -41l-5 -15q-170 36 -340 36q-97 0 -148 -8.5t-67.5 -24t-16.5 -44.5q0 -43 40 -66.5t135 -30.5q243 -17 345.5 -109t102.5 -296q0 -200 -130.5 -321t-385.5 -121 q-149 0 -247 18t-151.5 55.5t-74.5 87t-21 121.5q0 25 4 48t8 34l5 10q133 -28 350 -28q109 0 152 24t43 72q0 42 -18.5 59.5t-67.5 20.5q-537 37 -537 471z" />
<glyph unicode="T" horiz-adv-x="1218" d="M-20 1128q0 90 53.5 144.5t161.5 54.5h1015q29 -51 29 -125q0 -91 -54 -149t-161 -58h-195v-958q-9 -6 -26.5 -15.5t-70.5 -25.5t-107 -16q-109 0 -172.5 56.5t-63.5 174.5v784h-381q-28 59 -28 133z" />
<glyph unicode="U" horiz-adv-x="1392" d="M102 461v837q9 6 26.5 16t71 26t107.5 16q109 0 172.5 -57t63.5 -175v-657q0 -73 40 -111.5t113 -38.5q75 0 114.5 38.5t39.5 111.5v831q9 6 26.5 16t71 26t107.5 16q108 0 171.5 -57t63.5 -175v-663q0 -104 -35.5 -190t-106.5 -152t-186 -102.5t-266 -36.5 q-157 0 -273.5 36.5t-185.5 102.5t-102 151.5t-33 190.5z" />
<glyph unicode="V" horiz-adv-x="1357" d="M-8 1280l8 8t23.5 18.5t40.5 23.5t59 18t78 8q118 0 186 -51t100 -162l213 -729h9l290 913q47 21 119 21q113 0 179.5 -58t66.5 -151q0 -53 -21 -111l-370 -983q-12 -7 -33.5 -18t-87 -29t-129.5 -18q-288 0 -379 268z" />
<glyph unicode="W" horiz-adv-x="1918" d="M10 1280l8 8t23.5 18.5t40.5 23.5t59 18t78 8q262 0 287 -213l88 -719h12l207 903q53 21 141 21q219 0 263 -205l149 -719h12l166 903q47 21 119 21q115 0 180.5 -57.5t65.5 -151.5q0 -25 -21 -111l-227 -983q-12 -7 -33.5 -18t-87 -29t-129.5 -18q-157 0 -248.5 74.5 t-111.5 213.5l-64 428h-8l-131 -651q-12 -7 -33.5 -18t-87 -29t-129.5 -18q-155 0 -255 74.5t-128 213.5z" />
<glyph unicode="X" horiz-adv-x="1388" d="M-10 70l461 612l-422 584q3 4 10 10t30.5 21.5t50.5 27.5t70.5 21.5t90.5 9.5q118 0 188 -37t121 -119l123 -203h10l246 351q53 4 112 4q97 0 153 -51.5t56 -133.5q0 -86 -59 -159l-256 -326l434 -612q-3 -4 -9.5 -10t-29 -21.5t-49.5 -27.5t-71 -21.5t-93 -9.5 q-118 0 -188.5 35t-120.5 116l-141 231h-9l-149 -231q-54 -81 -122.5 -116t-184.5 -35q-48 0 -91.5 9.5t-71.5 22.5t-49 26t-30 22z" />
<glyph unicode="Y" horiz-adv-x="1337" d="M-51 1266q3 4 10 10t30.5 21.5t50.5 27.5t70.5 21.5t90.5 9.5q118 0 186 -36.5t119 -119.5l186 -307h8l293 455q66 4 125 4q97 0 153 -51.5t56 -133.5q0 -79 -59 -159l-371 -504v-467q-9 -6 -26.5 -15.5t-71 -25.5t-107.5 -16q-109 0 -172 56.5t-63 174.5v326z" />
<glyph unicode="Z" horiz-adv-x="1259" d="M-31 0l635 995h-328q-107 0 -161 58t-54 149q0 33 7.5 64t14.5 46l7 15h1180l-635 -995h348q107 0 161 -58t54 -149q0 -33 -7 -64t-15 -46l-7 -15h-1200z" />
<glyph unicode="[" horiz-adv-x="993" d="M307 -410v1983h576q28 -47 28 -121q0 -89 -53.5 -142t-161.5 -53h-57v-1351h57q108 0 161.5 -53t53.5 -142q0 -33 -7 -63t-14 -44l-7 -14h-576z" />
<glyph unicode="\" horiz-adv-x="1314" d="M51 1487q2 4 6 11t21 24.5t37.5 31t56.5 24.5t78 11q119 0 180 -131l834 -1786q-2 -4 -6 -11t-21 -24.5t-37.5 -31t-56.5 -24.5t-78 -11q-119 0 -180 131z" />
<glyph unicode="]" horiz-adv-x="993" d="M82 -289q0 89 53.5 142t161.5 53h57v1351h-57q-108 0 -161.5 53t-53.5 142q0 33 7 63t15 44l7 14h575v-1983h-575q-29 47 -29 121z" />
<glyph unicode="_" horiz-adv-x="962" d="M-215 -285q0 91 54 149t161 58h1149q29 -51 29 -125q0 -91 -54 -149t-161 -58h-1149q-29 51 -29 125z" />
<glyph unicode="`" horiz-adv-x="641" d="M51 1485q0 118 55.5 171.5t176.5 53.5q22 0 45 -4.5t35 -9.5l12 -4q0 -5 -0.5 -13t0 -35t4.5 -54t14 -66t25 -76q17 -42 41 -77.5t46 -56t41.5 -35.5t31.5 -21l12 -5q0 -5 -1 -13.5t-10 -30.5t-24.5 -39t-49 -30.5t-79.5 -13.5q-164 0 -269.5 104.5t-105.5 254.5z" />
<glyph unicode="a" horiz-adv-x="1060" d="M41 287q0 166 104.5 251t292.5 85q27 0 57.5 -2.5t46.5 -5.5l17 -3v19q0 30 -10 42.5t-44.5 18.5t-113.5 6q-78 0 -148.5 -7.5t-102.5 -14.5l-31 -8q-19 47 -19 104q0 100 39 157t133.5 84t265.5 27q234 0 342.5 -77.5t108.5 -257.5v-668q-9 -6 -25 -15.5t-67 -25.5 t-103 -16q-101 0 -163 54.5t-62 149.5v2h-8q-17 -86 -79 -148.5t-167 -62.5q-115 0 -189.5 85t-74.5 227zM410 371q0 -74 73 -74q76 0 76 90v49q-18 4 -65 4q-44 0 -64 -16.5t-20 -52.5z" />
<glyph unicode="b" horiz-adv-x="1136" d="M61 496v893q9 6 25 15.5t67 25.5t103 16q105 0 165 -57t60 -175v-253q30 32 95.5 55.5t140.5 23.5q83 0 152 -29t123 -87t84 -154.5t30 -222.5q0 -258 -151 -412.5t-390 -154.5q-245 0 -374.5 123.5t-129.5 392.5zM481 453q0 -82 21 -119t65 -37q57 0 84 48.5t27 164.5 q0 114 -24 156.5t-83 42.5q-45 0 -90 -25v-231z" />
<glyph unicode="c" horiz-adv-x="905" d="M31 541q0 245 139.5 374t372.5 129q191 0 261 -54.5t70 -201.5q0 -25 -4.5 -51t-9.5 -39l-4 -14q-90 18 -219 18q-102 0 -140 -35t-38 -128q0 -134 41.5 -184t154.5 -50q53 0 96.5 3t60.5 6l17 3q17 -31 17 -88q0 -130 -65 -192t-218 -62q-167 0 -288.5 73.5 t-182.5 200.5t-61 292z" />
<glyph unicode="d" horiz-adv-x="1181" d="M31 506q0 277 128.5 405.5t401.5 128.5q30 0 60 -3.5t45 -6.5l14 -4v363q9 6 25 15.5t66.5 25.5t102.5 16q105 0 165.5 -57t60.5 -175v-1173q-9 -6 -25 -15.5t-67 -25.5t-103 -16q-102 0 -163.5 52.5t-61.5 147.5v2h-8q-23 -85 -96.5 -145.5t-186.5 -60.5q-72 0 -135 31 t-113.5 92.5t-80 165t-29.5 237.5zM459 518q0 -205 108 -205q52 0 82.5 37t30.5 109v262q-33 4 -72 4q-80 0 -114.5 -44t-34.5 -163z" />
<glyph unicode="e" horiz-adv-x="1024" d="M31 541q0 246 134.5 374.5t366.5 128.5q224 0 342.5 -112.5t118.5 -323.5q0 -110 -27.5 -147t-107.5 -37h-389q10 -66 54.5 -92.5t131.5 -26.5q53 0 96.5 3t60.5 6l17 3q17 -31 17 -88q0 -130 -65 -192t-218 -62q-167 0 -288.5 73.5t-182.5 200.5t-61 292zM461 606h178 q4 21 4 39q-1 31 -13 53q-20 36 -67 35q-96 0 -102 -127z" />
<glyph unicode="f" horiz-adv-x="794" d="M72 -195v1305q0 181 102.5 275t304.5 94q165 0 238.5 -57t73.5 -171q0 -25 -4.5 -47t-8.5 -32l-4 -9q-61 4 -170 4q-64 0 -88 -20.5t-24 -73.5v-74h284q29 -46 29 -120q0 -89 -53.5 -142t-161.5 -53h-98v-1053q-9 -6 -25 -15.5t-67 -25.5t-103 -16q-105 0 -165 56.5 t-60 174.5z" />
<glyph unicode="g" horiz-adv-x="1050" d="M31 686q0 179 78 266.5t204 87.5q108 0 168.5 -56.5t89.5 -158.5h9v2q0 95 61.5 148t163.5 53q52 0 100.5 -14t70.5 -28l23 -15v-234q0 -223 -113.5 -334.5t-367.5 -111.5q-32 0 -90 4q-6 -15 -6 -33q0 -31 26 -38q13 -4 42 -4q27 0 69 3q58 5 108 5q154 0 227 -46 q97 -62 97 -241q0 -181 -139.5 -274t-386.5 -93q-193 0 -283 67t-90 201q0 25 4 47t8 31l5 10q96 -26 311 -26q93 0 122 11t29 42q0 18 -9.5 26t-39.5 11h-26q-24 0 -58 -2q-37 -2 -71 -2q-135 0 -199 33q-78 41 -78 145q0 94 96 199q-73 45 -114 131t-41 188zM420 635 q0 -78 86 -78q39 0 58.5 21.5t19.5 56.5q0 32 -23 52t-61 20q-80 0 -80 -72z" />
<glyph unicode="h" d="M82 211v1178q9 6 25 15.5t66.5 25.5t102.5 16q105 0 165.5 -57t60.5 -175v-389h8q33 100 114 157.5t195 57.5q156 0 231.5 -85.5t75.5 -274.5v-643q-9 -6 -25 -15.5t-66.5 -25.5t-102.5 -16q-105 0 -165 56.5t-60 174.5v399q0 97 -93 97q-51 0 -81.5 -40.5t-30.5 -113.5 v-516q-9 -6 -25 -15.5t-67 -25.5t-103 -16q-105 0 -165 56.5t-60 174.5z" />
<glyph unicode="i" horiz-adv-x="636" d="M72 1174v141q0 116 68.5 173.5t176.5 57.5q52 0 101 -14t72 -28l22 -15v-131q0 -117 -70 -179.5t-176 -62.5q-52 0 -100.5 14.5t-71.5 29.5zM82 291v680q9 6 25 15.5t66.5 25.5t102.5 16q105 0 165.5 -56.5t60.5 -174.5v-412q0 -94 76 -94l32 2q17 -31 17 -88 q0 -95 -69 -160t-193 -65q-283 0 -283 311z" />
<glyph unicode="j" horiz-adv-x="598" d="M-205 -201q0 25 4.5 47t8.5 32l4 9q69 -2 178 -2q53 0 74.5 21.5t21.5 73.5v991q9 6 25 15.5t67 25.5t103 16q105 0 165 -56.5t60 -174.5v-854q0 -369 -391 -369q-320 0 -320 225zM76 1174v141q0 116 69 173.5t177 57.5q52 0 100.5 -14t71.5 -28l22 -15v-131 q0 -117 -70 -179.5t-176 -62.5q-52 0 -100.5 14.5t-71.5 29.5z" />
<glyph unicode="k" horiz-adv-x="1163" d="M82 215v1174q9 6 25 15.5t66.5 25.5t102.5 16q105 0 165.5 -57t60.5 -175v-499h4q52 0 77.5 24t57.5 105q19 47 30 90t12 62l1 20q55 24 168 24q119 0 173 -38.5t54 -127.5q0 -92 -81.5 -161t-198.5 -103v-8q111 -10 173.5 -64.5t92.5 -160.5l90 -324q-3 -3 -8.5 -8 t-25 -17.5t-41.5 -22t-57.5 -17.5t-72.5 -8q-120 0 -182.5 51.5t-89.5 161.5l-21 86q-9 36 -13.5 51t-13.5 33t-22.5 23t-34.5 9t-55 4h-16v-358q-9 -6 -25 -15.5t-67 -25.5t-103 -16q-105 0 -165 56.5t-60 174.5z" />
<glyph unicode="l" horiz-adv-x="636" d="M82 291v1098q9 6 25 15.5t66.5 25.5t102.5 16q105 0 165.5 -57t60.5 -175v-829q0 -94 76 -94l32 2q17 -31 17 -88q0 -95 -69 -160t-193 -65q-283 0 -283 311z" />
<glyph unicode="m" horiz-adv-x="1832" d="M82 211v760q9 6 25 15.5t66.5 25.5t102.5 16q102 0 164 -53t62 -148v-2h8q33 100 114 157.5t195 57.5q122 0 194.5 -51.5t98.5 -163.5h8q32 98 120 156.5t204 58.5q156 0 231.5 -85.5t75.5 -274.5v-643q-9 -6 -25 -15.5t-67 -25.5t-103 -16q-105 0 -165 56.5t-60 174.5 v399q0 97 -92 97q-51 0 -82 -40.5t-31 -113.5v-516q-9 -6 -25 -15.5t-66.5 -25.5t-102.5 -16q-105 0 -165 56.5t-60 174.5v399q0 97 -93 97q-51 0 -81.5 -40.5t-30.5 -113.5v-516q-9 -6 -25 -15.5t-67 -25.5t-103 -16q-105 0 -165 56.5t-60 174.5z" />
<glyph unicode="n" d="M82 211v760q9 6 25 15.5t66.5 25.5t102.5 16q102 0 164 -53t62 -148v-2h8q33 100 114 157.5t195 57.5q156 0 231.5 -85.5t75.5 -274.5v-643q-9 -6 -25 -15.5t-66.5 -25.5t-102.5 -16q-105 0 -165 56.5t-60 174.5v399q0 97 -93 97q-51 0 -81.5 -40.5t-30.5 -113.5v-516 q-9 -6 -25 -15.5t-67 -25.5t-103 -16q-105 0 -165 56.5t-60 174.5z" />
<glyph unicode="o" horiz-adv-x="1126" d="M31 541q0 245 143 374t387 129q261 0 398 -126.5t137 -376.5q0 -118 -37 -221.5t-104 -180t-168.5 -120.5t-223.5 -44q-131 0 -233.5 44t-167 121.5t-98 179t-33.5 221.5zM459 539q0 -130 25.5 -182t78.5 -52q55 0 80 51t25 183q0 96 -23 129.5t-82 33.5q-56 0 -80 -34 t-24 -129z" />
<glyph unicode="p" horiz-adv-x="1171" d="M82 -195v1166q9 6 25 15.5t66.5 25.5t102.5 16q102 0 164 -53t62 -148v-2h8q11 42 31 77.5t52.5 68t85.5 51t120 18.5q73 0 134 -28t111 -87t78.5 -162.5t28.5 -242.5q0 -270 -134.5 -406.5t-400.5 -136.5q-27 0 -55.5 3.5t-43.5 7.5l-15 4v-361q-9 -6 -25 -15.5 t-67 -25.5t-103 -16q-105 0 -165 56.5t-60 174.5zM502 297q28 -4 67 -4q80 0 117 45.5t37 163.5q0 205 -109 205q-51 0 -81.5 -40.5t-30.5 -113.5v-256z" />
<glyph unicode="q" horiz-adv-x="1181" d="M31 506q0 268 150 401t407 133q144 0 272 -20.5t184 -41.5l56 -20v-1327q-9 -6 -25 -15.5t-67 -25.5t-103 -16q-105 0 -165 56.5t-60 174.5v381h-8q-23 -85 -96.5 -145.5t-186.5 -60.5q-72 0 -135 31t-113.5 92.5t-80 165t-29.5 237.5zM459 518q0 -205 108 -205 q52 0 82.5 37t30.5 109v260q-33 6 -72 6q-80 0 -114.5 -44t-34.5 -163z" />
<glyph unicode="r" horiz-adv-x="931" d="M82 211v760q9 6 25 15.5t66.5 25.5t102.5 16q102 0 164 -53t62 -148v-2h8q23 99 85 157t146 58q87 0 134 -52.5t47 -158.5q0 -45 -10.5 -85t-26 -64.5t-30.5 -42.5t-25 -25l-11 -8q-13 8 -34.5 20t-76 32t-94.5 20q-112 0 -112 -123v-516q-9 -6 -25 -15.5t-67 -25.5 t-103 -16q-105 0 -165 56.5t-60 174.5z" />
<glyph unicode="s" horiz-adv-x="845" d="M31 729q0 311 434 311q134 0 206 -25t101 -79.5t29 -155.5q0 -25 -4.5 -51t-9.5 -39l-5 -14q-94 22 -219 22q-98 0 -125.5 -7t-27.5 -29q0 -19 26 -29.5t101 -22.5q156 -27 217 -86.5t61 -191.5q0 -163 -100 -260t-316 -97q-168 0 -246.5 67.5t-78.5 201.5q0 25 4 47 t8 31l4 10q94 -27 264 -27q52 0 72 9t20 34q0 18 -12 24.5t-59 14.5q-344 54 -344 342z" />
<glyph unicode="t" horiz-adv-x="849" d="M72 348v875q9 6 25 15.5t66.5 25.5t102.5 16q105 0 165.5 -56.5t60.5 -174.5v-50h319q29 -46 29 -120q0 -89 -53.5 -142t-161.5 -53h-133v-299q0 -48 22.5 -71t77.5 -23l186 4q17 -31 17 -88q0 -227 -330 -227q-393 0 -393 368z" />
<glyph unicode="u" d="M82 340v631q9 6 25 15.5t66.5 25.5t102.5 16q105 0 165.5 -56.5t60.5 -174.5v-391q0 -97 92 -97q51 0 82 40.5t31 113.5v508q9 6 25 15.5t66.5 25.5t102.5 16q105 0 165 -56.5t60 -174.5v-760q-9 -6 -25 -15.5t-66.5 -25.5t-102.5 -16q-101 0 -163 54.5t-62 149.5v2h-9 q-33 -99 -113.5 -155t-195.5 -56q-156 0 -231.5 87.5t-75.5 277.5z" />
<glyph unicode="v" horiz-adv-x="1132" d="M-31 958q9 8 25 19.5t71 31t115 19.5q231 0 277 -209l104 -495h8l176 655q8 5 22.5 11.5t60 18t92.5 11.5q94 0 148 -50.5t54 -133.5q0 -50 -20 -103l-264 -680q-4 -3 -10.5 -8t-31 -17.5t-51.5 -22t-71 -17.5t-90 -8q-294 0 -389 292z" />
<glyph unicode="w" horiz-adv-x="1794" d="M10 958q9 8 25 19.5t71 31t115 19.5q126 0 196 -53.5t79 -155.5l47 -495h8l172 655q9 5 24.5 11.5t66.5 18t104 11.5q101 0 162.5 -46t78.5 -132l101 -518h8l129 655q8 5 22 11.5t59.5 18t92.5 11.5q93 0 148 -50.5t55 -133.5q0 -25 -21 -103l-194 -680q-4 -3 -11 -8 t-31.5 -17.5t-52 -22t-71 -17.5t-88.5 -8q-145 0 -236.5 73t-114.5 219l-39 252h-8l-112 -471q-4 -3 -11 -8t-31.5 -17.5t-51.5 -22t-70.5 -17.5t-89.5 -8q-155 0 -244 71.5t-125 220.5z" />
<glyph unicode="x" horiz-adv-x="1142" d="M-10 66l368 442l-342 430q3 4 10 10t29.5 21.5t47.5 27.5t64.5 21.5t80.5 9.5q104 0 165.5 -36.5t123.5 -119.5l61 -84h8l182 240q40 4 89 4q93 0 146.5 -52t53.5 -128q0 -93 -71 -164l-183 -186l340 -436q-3 -4 -9.5 -10t-28.5 -21.5t-47 -27.5t-64.5 -22t-81.5 -10 q-103 0 -163 35t-120 117l-67 94h-9l-69 -94q-62 -83 -121 -117.5t-162 -34.5q-43 0 -82 9.5t-65 22.5t-46 26.5t-29 22.5z" />
<glyph unicode="y" horiz-adv-x="1132" d="M-31 958q9 8 25 19.5t71 31t115 19.5q231 0 277 -209l104 -491h8l176 651q8 5 22.5 11.5t60 18t92.5 11.5q94 0 148 -50.5t54 -133.5q0 -50 -20 -103l-264 -676q-38 -96 -59 -145.5t-55 -116t-64 -98.5t-73 -65t-95 -45.5t-119 -12.5q-63 0 -112 14.5t-74 35t-40.5 41.5 t-19.5 35l-4 15q13 5 34 15t74 50.5t91 90.5q25 34 47.5 69.5t32.5 54.5l10 19q-78 31 -131 94t-88 168z" />
<glyph unicode="z" horiz-adv-x="1071" d="M-31 0l480 684h-185q-108 0 -161.5 53t-53.5 142q0 33 7.5 63t14.5 44l7 13h1003l-481 -684h227q108 0 161.5 -52.5t53.5 -141.5q0 -33 -8 -63t-16 -44l-8 -14h-1041z" />
<glyph unicode="{" horiz-adv-x="1136" d="M113 625q0 25 4 47t8 32l4 9q53 -4 133 -4q93 0 135.5 42t42.5 142v328q0 188 80 278t275 90q146 0 208 -56t62 -171q0 -25 -4 -47t-8 -31l-4 -10q-63 4 -172 4q-63 0 -84 -20t-21 -74v-275q0 -127 -40 -195.5t-136 -95.5v-8q98 -24 137 -83.5t39 -174.5v-372 q0 -54 21 -74.5t84 -20.5l172 4q16 -31 16 -88q0 -115 -62 -171t-208 -56q-195 0 -275 90.5t-80 278.5v368q0 44 -24 68t-66 24q-121 0 -179 59t-58 163z" />
<glyph unicode="|" horiz-adv-x="1253" d="M461 -211v1772q51 28 125 28q91 0 149 -54t58 -161v-1771q-51 -29 -125 -29q-91 0 -149 54t-58 161z" />
<glyph unicode="}" horiz-adv-x="1136" d="M72 -199q0 25 4 47t8 32l4 9q65 -4 174 -4q62 0 82.5 20.5t20.5 74.5v274q0 127 40 195.5t136 95.5v8q-98 24 -137 83.5t-39 174.5v373q0 54 -20 74t-83 20l-174 -4q-16 31 -16 88q0 114 63.5 170.5t208.5 56.5q195 0 273.5 -89.5t78.5 -278.5v-369q0 -44 24 -68t66 -24 q122 0 180 -58.5t58 -162.5q0 -25 -4 -47t-8 -32l-4 -9q-54 4 -134 4q-93 0 -135.5 -42t-42.5 -143v-327q0 -189 -78.5 -279t-273.5 -90q-145 0 -208.5 56.5t-63.5 170.5z" />
<glyph unicode="&#xa1;" horiz-adv-x="727" d="M133 -377l29 647q4 116 57.5 170t157.5 54q54 0 98.5 -14.5t62.5 -29.5l17 -14l29 -639q6 -117 -58 -174t-174 -57q-54 0 -108.5 14t-82.5 28zM133 608v170q0 130 75 190t198 60q48 0 95 -12t70 -24l23 -11v-172q0 -130 -74.5 -189t-197.5 -59q-48 0 -95.5 11.5 t-70.5 23.5z" />
<glyph unicode="&#xa2;" horiz-adv-x="1114" d="M102 541q0 189 85 310t235 167v291q51 28 125 28q91 0 149 -54t58 -161v-84q142 -15 200 -72t58 -182q0 -25 -5 -51t-9 -39l-5 -14q-141 22 -270 22q-104 0 -148.5 -36t-44.5 -127q0 -132 47.5 -183t163.5 -51q53 0 109.5 4.5t86.5 9.5l30 5q16 -31 16 -88 q0 -111 -55.5 -173t-173.5 -77v-293q-51 -29 -125 -29q-91 0 -149 54t-58 161v133q-154 58 -237 198t-83 331z" />
<glyph unicode="&#xa3;" horiz-adv-x="1540" d="M102 121q0 89 53.5 141.5t161.5 52.5h31v553q0 183 99.5 276t308.5 93q168 0 265.5 -27t134 -74.5t36.5 -125.5q0 -25 -4 -47t-8 -31l-4 -10q-186 4 -295 4q-64 0 -88.5 -21t-24.5 -74v-55h369q28 -47 28 -121q0 -89 -53.5 -141.5t-161.5 -52.5h-182v-146h641 q29 -46 29 -120q0 -89 -53.5 -142t-161.5 -53h-1092q-29 47 -29 121z" />
<glyph unicode="&#xa5;" horiz-adv-x="1583" d="M102 1266q3 4 10 10t30.5 21.5t50.5 27.5t70.5 21.5t90.5 9.5q118 0 186 -36.5t119 -119.5l187 -307h8l293 455q66 4 125 4q97 0 153 -51.5t56 -133.5q0 -77 -60 -159l-229 -314h135q16 -27 16 -78q0 -57 -33 -92t-100 -35h-159v-71h276q16 -27 16 -78q0 -57 -33 -92 t-100 -35h-159v-176q-9 -6 -26.5 -15.5t-71 -25.5t-107.5 -16q-109 0 -172.5 56.5t-63.5 174.5v2h-276q-17 27 -17 78q0 57 33.5 92t100.5 35h159v71h-276q-17 27 -17 78q0 57 33.5 92t100.5 35h49z" />
<glyph unicode="&#xa6;" horiz-adv-x="1255" d="M461 332q51 28 125 28q91 0 149 -54t58 -161l2 -542q-51 -29 -125 -29q-91 0 -149 54t-58 161zM461 1561q51 28 125 28q91 0 149 -54t58 -161l2 -543q-51 -28 -125 -28q-91 0 -149 54t-58 161z" />
<glyph unicode="&#xa7;" horiz-adv-x="1480" d="M205 567q0 111 59 191q-59 93 -59 215q0 203 143.5 299t435.5 96q177 0 277 -30t141 -92.5t41 -172.5q0 -25 -4.5 -52t-8.5 -41l-5 -15q-170 36 -340 36q-97 0 -148 -8.5t-67.5 -24t-16.5 -44.5q0 -42 40 -66t134 -31q242 -17 345.5 -111t103.5 -294q0 -105 -57 -176 q57 -89 57 -230q0 -100 -28.5 -178t-76.5 -127t-116 -80.5t-140 -44t-155 -12.5q-119 0 -206 12.5t-142 34.5t-88 58t-45.5 78t-12.5 100q0 25 4 48t8 33l5 11q133 -29 350 -29q109 0 151.5 24t42.5 72q0 42 -18.5 59.5t-67.5 20.5q-536 36 -536 471zM606 516 q0 -89 221 -106q23 0 47 -4v18q0 81 -133 90q-84 6 -135 16v-14z" />
<glyph unicode="&#xa8;" horiz-adv-x="960" d="M51 1198v164q0 111 63.5 161t168.5 50q41 0 81 -10.5t60 -20.5l20 -10v-162q0 -111 -64.5 -162t-168.5 -51q-41 0 -81 10.5t-60 20.5zM516 1198v164q0 111 63.5 161t168.5 50q41 0 81 -10.5t60 -20.5l20 -10v-162q0 -111 -64.5 -162t-168.5 -51q-41 0 -81 10.5t-59 20.5z " />
<glyph unicode="&#xa9;" horiz-adv-x="1695" d="M154 674q0 188 93 348t253 253t348 93t348 -93t253 -253t93 -348t-93 -348t-253 -253t-348 -93t-348 93t-253 253t-93 348zM387 674q0 -190 135.5 -325.5t325.5 -135.5t325.5 135.5t135.5 325.5t-135.5 325.5t-325.5 135.5t-325.5 -135.5t-135.5 -325.5zM530 690 q0 168 87 249t249 81q133 0 185.5 -31.5t52.5 -111.5q0 -13 -2 -27.5t-4 -22.5l-2 -8q-82 17 -176 17q-82 0 -116 -32.5t-34 -115.5q0 -99 39.5 -140.5t124.5 -41.5q44 0 80.5 4t51.5 8l15 4q9 -22 9 -51q0 -72 -50.5 -107.5t-173.5 -35.5q-149 0 -242.5 97t-93.5 265z" />
<glyph unicode="&#xab;" horiz-adv-x="1474" d="M82 588l469 456q68 -21 120 -82t52 -131q0 -82 -76 -155l-90 -88l90 -88q76 -73 76 -156q0 -70 -52 -131t-120 -82zM639 588l469 456q68 -21 120 -82t52 -131q0 -82 -76 -155l-90 -88l90 -88q76 -73 76 -156q0 -70 -52 -131t-120 -82z" />
<glyph unicode="&#xad;" horiz-adv-x="819" d="M102 553q0 91 54 149t161 58h371q29 -51 29 -125q0 -91 -54 -149t-161 -58h-371q-29 51 -29 125z" />
<glyph unicode="&#xae;" horiz-adv-x="1695" d="M154 674q0 188 93 348t253 253t348 93t348 -93t253 -253t93 -348t-93 -348t-253 -253t-348 -93t-348 93t-253 253t-93 348zM387 674q0 -190 135.5 -325.5t325.5 -135.5t325.5 135.5t135.5 325.5t-135.5 325.5t-325.5 135.5t-325.5 -135.5t-135.5 -325.5zM547 442v557h414 q84 0 129 -38.5t45 -108.5q0 -54 -31 -97t-78 -57v-4q68 -9 86 -84l66 -245q-4 -4 -13 -10t-38.5 -16.5t-63.5 -10.5q-119 0 -143 106l-19 78q-7 34 -23 44.5t-57 10.5h-45v-211q-45 -28 -106 -28q-55 0 -89 28t-34 86zM776 733h62q63 0 63 55q0 43 -43 43h-82v-98z" />
<glyph unicode="&#xb0;" horiz-adv-x="993" d="M102 1358q0 163 116 278t280 115q163 0 278 -115t115 -278q0 -164 -115 -279.5t-278 -115.5q-164 0 -280 115.5t-116 279.5zM379 1358q0 -50 34.5 -84.5t84.5 -34.5q47 0 81.5 35t34.5 84q0 47 -34.5 82t-81.5 35q-49 0 -84 -34.5t-35 -82.5z" />
<glyph unicode="&#xb4;" horiz-adv-x="641" d="M51 1253q5 2 12.5 6t30 19.5t43 35.5t45 56t41.5 78q24 58 35 119t10 93l-2 32q43 18 92 18q121 0 176.5 -53.5t55.5 -171.5q0 -150 -105.5 -254.5t-269.5 -104.5q-46 0 -79.5 13t-49 32t-24.5 37.5t-10 31.5z" />
<glyph unicode="&#xb5;" d="M82 -195v1166q9 6 25 15.5t66.5 25.5t102.5 16q105 0 165.5 -56.5t60.5 -174.5v-387q0 -97 92 -97q51 0 82 40.5t31 113.5v504q9 6 25 15.5t66.5 25.5t102.5 16q105 0 165 -56.5t60 -174.5v-756q-9 -6 -25 -15.5t-66.5 -25.5t-102.5 -16q-102 0 -163.5 52.5t-61.5 147.5 v2h-9q-50 -146 -196 -190v-365q-9 -6 -25 -15.5t-67 -25.5t-103 -16q-105 0 -165 56.5t-60 174.5z" />
<glyph unicode="&#xb6;" horiz-adv-x="1587" d="M205 784q0 234 144.5 388.5t367.5 154.5h563v-1384q0 -369 -391 -369q-157 0 -238.5 68t-81.5 190q0 25 4.5 47t8.5 31l4 10q48 -2 157 -2q53 0 75 21t22 73v168h-17q-127 0 -238 39t-196 112.5t-134.5 190.5t-49.5 262z" />
<glyph unicode="&#xb7;" horiz-adv-x="686" d="M113 410v172q0 130 74.5 188.5t197.5 58.5q48 0 95 -11.5t70 -23.5l23 -12v-170q0 -130 -75 -190t-197 -60q-48 0 -95 12t-70 24z" />
<glyph unicode="&#xb8;" horiz-adv-x="540" d="M51 -389q10 5 25 15.5t48.5 49t49.5 82.5q13 36 14.5 77t-3.5 64l-5 23q55 17 127 17q87 0 134.5 -46.5t47.5 -136.5q0 -107 -75.5 -187.5t-198.5 -80.5q-46 0 -79.5 12.5t-49 31t-24.5 36.5t-10 30z" />
<glyph unicode="&#xbb;" horiz-adv-x="1474" d="M195 344q0 84 75 156l90 88l-90 88q-75 72 -75 155q0 70 52 131t120 82l469 -456l-469 -457q-68 21 -120 82t-52 131zM752 344q0 84 75 156l91 88l-91 88q-75 72 -75 155q0 70 52 131t120 82l469 -456l-469 -457q-68 21 -120 82t-52 131z" />
<glyph unicode="&#xbf;" horiz-adv-x="847" d="M-51 -74q0 134 59 220t180 149q51 24 70 76q26 61 71 92t134 31q54 0 98.5 -14.5t62.5 -29.5l17 -14l4 -133q1 -72 -24 -116t-80 -74q-104 -56 -134 -82.5t-30 -57.5q0 -33 36.5 -49t135.5 -16q93 0 176 7t119 15l37 7q18 -48 18 -105q0 -147 -88.5 -206.5t-314.5 -59.5 q-290 0 -418.5 86.5t-128.5 273.5zM219 608v170q0 130 75 190t198 60q48 0 95 -12t70 -24l23 -11v-172q0 -130 -74.5 -189t-197.5 -59q-48 0 -95.5 11.5t-70.5 23.5z" />
<glyph unicode="&#xc0;" horiz-adv-x="1329" d="M-10 190q0 48 22 109l389 995q12 7 33.5 18t86 29.5t128.5 18.5q291 0 379 -268l342 -1037l-8 -8t-23.5 -18t-40.5 -23t-59 -18t-78 -8q-118 0 -186.5 51t-100.5 162l-30 106h-391l-99 -299q-44 -20 -116 -20q-114 0 -181 57.5t-67 152.5zM410 1772q0 118 55.5 171.5 t175.5 53.5q22 0 45 -4.5t35 -9.5l12 -5q0 -5 -0.5 -13t0 -34.5t4.5 -53.5t14 -66t25 -76q17 -42 41 -77.5t46 -56.5t41.5 -35.5t31.5 -19.5l12 -6q0 -5 -1 -13.5t-10 -30.5t-24.5 -39t-49 -30.5t-79.5 -13.5q-164 0 -269 104.5t-105 254.5zM563 631h187l-82 299h-9z" />
<glyph unicode="&#xc1;" horiz-adv-x="1329" d="M-10 190q0 48 22 109l389 995q12 7 33.5 18t86 29.5t128.5 18.5q291 0 379 -268l342 -1037l-8 -8t-23.5 -18t-40.5 -23t-59 -18t-78 -8q-118 0 -186.5 51t-100.5 162l-30 106h-391l-99 -299q-44 -20 -116 -20q-114 0 -181 57.5t-67 152.5zM399 1540q5 2 12.5 6t30 19.5 t43 35.5t45 56t41.5 78q24 58 35 119t10 92l-2 32q44 19 93 19q120 0 175.5 -53.5t55.5 -171.5q0 -150 -105.5 -254.5t-269.5 -104.5q-46 0 -79.5 13t-49 31.5t-24.5 37.5t-10 32zM563 631h187l-82 299h-9z" />
<glyph unicode="&#xc2;" horiz-adv-x="1329" d="M-10 190q0 48 22 109l389 995q12 7 33.5 18t86 29.5t128.5 18.5q291 0 379 -268l342 -1037l-8 -8t-23.5 -18t-40.5 -23t-59 -18t-78 -8q-118 0 -186.5 51t-100.5 162l-30 106h-391l-99 -299q-44 -20 -116 -20q-114 0 -181 57.5t-67 152.5zM174 1597l264 269 q97 100 224 100q126 0 223 -100l264 -269q-2 -7 -7 -19t-25 -42t-44 -52.5t-67 -41.5t-93 -19q-61 0 -104 25.5t-109 91.5l-2 2q-23 23 -36 23q-14 0 -37 -23l-2 -2q-66 -66 -109 -91.5t-104 -25.5q-50 0 -92.5 18t-68 43.5t-43.5 51t-25 43.5zM563 631h187l-82 299h-9z" />
<glyph unicode="&#xc3;" horiz-adv-x="1329" d="M-10 190q0 48 22 109l389 995q12 7 33.5 18t86 29.5t128.5 18.5q291 0 379 -268l342 -1037l-8 -8t-23.5 -18t-40.5 -23t-59 -18t-78 -8q-118 0 -186.5 51t-100.5 162l-30 106h-391l-99 -299q-44 -20 -116 -20q-114 0 -181 57.5t-67 152.5zM184 1634q0 135 78.5 207 t204.5 72q66 0 137 -25.5t135.5 -50.5t114.5 -25q41 0 76.5 9t57 22t37.5 26.5t22 22.5l6 9q3 -2 8.5 -7t20 -22t25 -38t19.5 -56.5t9 -75.5q0 -135 -78.5 -207t-204.5 -72q-66 0 -137 25.5t-135.5 50.5t-114.5 25q-41 0 -76.5 -9t-57 -22t-37.5 -26t-22 -22l-6 -9 q-3 2 -8.5 6.5t-20 22t-25 38t-19.5 56t-9 75.5zM563 631h187l-82 299h-9z" />
<glyph unicode="&#xc4;" horiz-adv-x="1329" d="M-10 190q0 48 22 109l389 995q12 7 33.5 18t86 29.5t128.5 18.5q291 0 379 -268l342 -1037l-8 -8t-23.5 -18t-40.5 -23t-59 -18t-78 -8q-118 0 -186.5 51t-100.5 162l-30 106h-391l-99 -299q-44 -20 -116 -20q-114 0 -181 57.5t-67 152.5zM236 1485v164q0 111 63.5 161 t167.5 50q41 0 81.5 -10t60.5 -20l20 -11v-162q0 -111 -64.5 -162t-169.5 -51q-41 0 -80.5 10t-58.5 20zM563 631h187l-82 299h-9zM700 1485v164q0 111 63.5 161t168.5 50q41 0 81.5 -10t60.5 -20l20 -11v-162q0 -111 -64.5 -162t-169.5 -51q-41 0 -81 10t-59 20z" />
<glyph unicode="&#xc5;" horiz-adv-x="1329" d="M-10 190q0 48 22 109l389 995q12 7 33.5 18t86 29.5t128.5 18.5q291 0 379 -268l342 -1037l-8 -8t-23.5 -18t-40.5 -23t-59 -18t-78 -8q-118 0 -186.5 51t-100.5 162l-30 106h-391l-99 -299q-44 -20 -116 -20q-114 0 -181 57.5t-67 152.5zM346 1729q0 130 92.5 222.5 t223.5 92.5q130 0 222.5 -92t92.5 -223t-92.5 -223.5t-222.5 -92.5t-223 92.5t-93 223.5zM563 631h187l-82 299h-9zM567 1729q0 -38 28.5 -66.5t66.5 -28.5t66 28.5t28 66.5t-28 66t-66 28t-66.5 -28t-28.5 -66z" />
<glyph unicode="&#xc6;" horiz-adv-x="1841" d="M0 190q0 45 23 109l286 733q59 148 153 221.5t255 73.5h1044q29 -51 29 -125q0 -90 -57.5 -148.5t-165.5 -58.5h-289v-145h463q28 -51 28 -125q0 -90 -57.5 -148.5t-165.5 -58.5h-268v-186h504q28 -51 28 -125q0 -91 -54 -149t-161 -58h-757v332h-365l-108 -332 q-45 -20 -117 -20q-114 0 -181 57.5t-67 152.5zM582 662l256 -3v336h-21q-75 0 -108 -23t-56 -93z" />
<glyph unicode="&#xc7;" horiz-adv-x="1161" d="M41 705q0 351 160.5 507t488.5 156q178 0 277.5 -29t141.5 -91t42 -171q0 -25 -4.5 -52t-8.5 -41l-5 -15q-139 32 -342 32q-165 0 -233.5 -65.5t-68.5 -233.5q0 -201 80 -288.5t250 -87.5q88 0 159.5 7t99.5 14l28 7q16 -35 16 -92q0 -72 -19.5 -121.5t-67 -87 t-132.5 -55.5t-211 -18q-297 0 -474 192t-177 533zM436 -389q10 5 25 15.5t48.5 49t49.5 82.5q13 36 14.5 77t-3.5 64l-5 23q55 17 127 17q87 0 134.5 -46.5t47.5 -136.5q0 -107 -75.5 -187.5t-198.5 -80.5q-46 0 -79.5 12.5t-49 31t-24.5 36.5t-10 30z" />
<glyph unicode="&#xc8;" horiz-adv-x="1105" d="M102 0v1327h924q29 -51 29 -125q0 -90 -58 -148.5t-166 -58.5h-288v-145h463q28 -51 28 -125q0 -90 -57.5 -148.5t-165.5 -58.5h-268v-186h504q28 -51 28 -125q0 -91 -54 -149t-161 -58h-758zM317 1772q0 118 55.5 171.5t176.5 53.5q22 0 45 -4.5t35 -9.5l12 -5 q0 -5 -0.5 -13t0 -34.5t4.5 -53.5t14 -66t25 -76q17 -42 41 -77.5t46 -56.5t41.5 -35.5t31.5 -19.5l12 -6q0 -5 -1 -13.5t-10 -30.5t-24.5 -39t-49 -30.5t-79.5 -13.5q-164 0 -269.5 104.5t-105.5 254.5z" />
<glyph unicode="&#xc9;" horiz-adv-x="1105" d="M102 0v1327h924q29 -51 29 -125q0 -90 -58 -148.5t-166 -58.5h-288v-145h463q28 -51 28 -125q0 -90 -57.5 -148.5t-165.5 -58.5h-268v-186h504q28 -51 28 -125q0 -91 -54 -149t-161 -58h-758zM348 1540q5 2 12.5 6t30 19.5t43 35.5t45 56t41.5 78q24 58 35 119t9 92 l-1 32q43 19 92 19q121 0 176.5 -53.5t55.5 -171.5q0 -150 -105.5 -254.5t-269.5 -104.5q-46 0 -79.5 13t-49 31.5t-24.5 37.5t-10 32z" />
<glyph unicode="&#xca;" horiz-adv-x="1107" d="M102 0v1327h924q29 -51 29 -125q0 -90 -58 -148.5t-166 -58.5h-288v-145h463q28 -51 28 -125q0 -90 -57.5 -148.5t-165.5 -58.5h-268v-186h504q28 -51 28 -125q0 -91 -54 -149t-161 -58h-758zM102 1597l265 269q97 100 223 100t223 -100l264 -269q-2 -7 -7 -19t-24.5 -42 t-43.5 -52.5t-67 -41.5t-93 -19q-61 0 -104 25.5t-109 91.5l-2 2q-23 23 -37 23t-37 -23l-2 -2q-66 -66 -109 -91.5t-104 -25.5q-50 0 -92.5 18t-68 43.5t-43.5 51t-25 43.5z" />
<glyph unicode="&#xcb;" horiz-adv-x="1105" d="M102 0v1327h924q29 -51 29 -125q0 -90 -58 -148.5t-166 -58.5h-288v-145h463q28 -51 28 -125q0 -90 -57.5 -148.5t-165.5 -58.5h-268v-186h504q28 -51 28 -125q0 -91 -54 -149t-161 -58h-758zM164 1485v164q0 111 63.5 161t167.5 50q41 0 81.5 -10t60.5 -20l20 -11v-162 q0 -111 -64.5 -162t-168.5 -51q-41 0 -81 10t-59 20zM629 1485v164q0 111 63.5 161t167.5 50q41 0 81.5 -10t60.5 -20l20 -11v-162q0 -111 -64.5 -162t-169.5 -51q-41 0 -80.5 10t-59.5 20z" />
<glyph unicode="&#xcc;" horiz-adv-x="645" d="M10 1772q0 118 55.5 171.5t176.5 53.5q22 0 45 -4.5t35 -9.5l12 -5q0 -5 -0.5 -13t0 -34.5t4.5 -53.5t14 -66t25 -76q17 -42 41 -77.5t46 -56.5t41.5 -35.5t31.5 -19.5l12 -6q0 -5 -1 -13.5t-10 -30.5t-24.5 -39t-49 -30.5t-79.5 -13.5q-164 0 -269.5 104.5t-105.5 254.5 zM102 211v1087q9 6 26.5 16t71 26t107.5 16q109 0 172.5 -57t63.5 -175v-1087q-9 -6 -26.5 -15.5t-71 -25.5t-107.5 -16q-109 0 -172.5 56.5t-63.5 174.5z" />
<glyph unicode="&#xcd;" horiz-adv-x="645" d="M51 1540q5 2 12.5 6t30 19.5t43 35.5t45 56t41.5 78q24 58 35 119t10 92l-2 32q43 19 92 19q121 0 176.5 -53.5t55.5 -171.5q0 -150 -105.5 -254.5t-269.5 -104.5q-46 0 -79.5 13t-49 31.5t-24.5 37.5t-10 32zM102 211v1087q9 6 26.5 16t71 26t107.5 16q109 0 172.5 -57 t63.5 -175v-1087q-9 -6 -26.5 -15.5t-71 -25.5t-107.5 -16q-109 0 -172.5 56.5t-63.5 174.5z" />
<glyph unicode="&#xce;" horiz-adv-x="645" d="M-176 1597l264 269q97 100 223 100q127 0 224 -100l264 -269q-2 -7 -7 -19t-25 -42t-44 -52.5t-67 -41.5t-93 -19q-61 0 -104 25.5t-109 91.5l-2 2q-23 23 -37 23t-37 -23l-2 -2q-66 -66 -109 -91.5t-104 -25.5q-50 0 -92.5 18t-67.5 43.5t-43 51t-25 43.5zM102 211v1087 q9 6 26.5 16t71 26t107.5 16q109 0 172.5 -57t63.5 -175v-1087q-9 -6 -26.5 -15.5t-71 -25.5t-107.5 -16q-109 0 -172.5 56.5t-63.5 174.5z" />
<glyph unicode="&#xcf;" horiz-adv-x="645" d="M-92 1485v164q0 111 63.5 161t167.5 50q41 0 81.5 -10t60.5 -20l20 -11v-162q0 -111 -64.5 -162t-168.5 -51q-41 0 -81 10t-59 20zM102 211v1087q9 6 26.5 16t71 26t107.5 16q109 0 172.5 -57t63.5 -175v-1087q-9 -6 -26.5 -15.5t-71 -25.5t-107.5 -16 q-109 0 -172.5 56.5t-63.5 174.5zM373 1485v164q0 111 63.5 161t167.5 50q41 0 81.5 -10t60.5 -20l20 -11v-162q0 -111 -64.5 -162t-169.5 -51q-41 0 -80.5 10t-59.5 20z" />
<glyph unicode="&#xd0;" horiz-adv-x="1339" d="M102 41v1286h609q300 0 443.5 -144t143.5 -460q0 -358 -183.5 -550.5t-524.5 -192.5q-96 0 -181.5 6.5t-139 15t-93.5 17.5t-57 15zM543 328l7 -3l40 -3q131 0 195.5 91.5t64.5 288.5q0 165 -48 230t-161 65h-98v-669z" />
<glyph unicode="&#xd1;" horiz-adv-x="1398" d="M102 211v1087q7 6 20.5 16t61 26t101.5 16q91 0 148.5 -34t109.5 -114l344 -532h8l-16 622q7 6 20.5 16t60.5 26t101 16q108 0 171.5 -57t63.5 -175l-6 -1087q-7 -6 -20.5 -15.5t-60.5 -25.5t-101 -16q-91 0 -148 34t-110 113l-342 520h-8l20 -610q-7 -6 -20.5 -15.5 t-60.5 -25.5t-101 -16q-109 0 -172.5 56.5t-63.5 174.5zM236 1634q0 135 78 207t204 72q66 0 137 -25.5t135.5 -50.5t114.5 -25q41 0 76.5 9t57 22t37.5 26.5t22 22.5l6 9q3 -2 8.5 -7t20 -22t25 -38t19.5 -56.5t9 -75.5q0 -135 -78 -207t-205 -72q-66 0 -137 25.5 t-135.5 50.5t-114.5 25q-41 0 -76.5 -9t-57 -22t-37.5 -26t-22 -22l-6 -9q-3 2 -8.5 6.5t-19.5 22t-24.5 38t-19.5 56t-9 75.5z" />
<glyph unicode="&#xd2;" horiz-adv-x="1384" d="M41 705q0 351 160.5 507t488.5 156q330 0 491.5 -156t161.5 -507q0 -341 -177 -533t-474 -192t-474 192t-177 533zM420 1772q0 118 55.5 171.5t175.5 53.5q22 0 45 -4.5t35 -9.5l12 -5q0 -5 -0.5 -13t0 -34.5t4.5 -53.5t14 -66t25 -76q17 -42 41 -77.5t46 -56.5 t41.5 -35.5t31.5 -19.5l12 -6q0 -5 -1 -13.5t-9.5 -30.5t-24 -39t-49 -30.5t-79.5 -13.5q-164 0 -269.5 104.5t-105.5 254.5zM489 702q0 -385 203 -385q96 0 149.5 95t53.5 290q0 169 -48.5 242.5t-156.5 73.5q-103 0 -152 -74.5t-49 -241.5z" />
<glyph unicode="&#xd3;" horiz-adv-x="1384" d="M41 705q0 351 160.5 507t488.5 156q330 0 491.5 -156t161.5 -507q0 -341 -177 -533t-474 -192t-474 192t-177 533zM461 1540q5 2 12.5 6t30 19.5t43 35.5t45 56t41.5 78q24 58 35 119t10 92l-2 32q43 19 92 19q120 0 175.5 -53.5t55.5 -171.5q0 -150 -105 -254.5 t-269 -104.5q-46 0 -79.5 13t-49 31.5t-24.5 37.5t-10 32zM489 702q0 -385 203 -385q96 0 149.5 95t53.5 290q0 169 -48.5 242.5t-156.5 73.5q-103 0 -152 -74.5t-49 -241.5z" />
<glyph unicode="&#xd4;" horiz-adv-x="1384" d="M41 705q0 351 160.5 507t488.5 156q330 0 491.5 -156t161.5 -507q0 -341 -177 -533t-474 -192t-474 192t-177 533zM203 1597l264 269q97 100 223 100t223 -100l265 -269q-2 -7 -7 -19t-25 -42t-44 -52.5t-67 -41.5t-93 -19q-61 0 -104 25.5t-109 91.5l-2 2q-23 23 -37 23 t-37 -23l-2 -2q-66 -66 -109 -91.5t-104 -25.5q-50 0 -92.5 18t-67.5 43.5t-43 51t-25 43.5zM489 702q0 -385 203 -385q96 0 149.5 95t53.5 290q0 169 -48.5 242.5t-156.5 73.5q-103 0 -152 -74.5t-49 -241.5z" />
<glyph unicode="&#xd5;" horiz-adv-x="1384" d="M41 705q0 351 160.5 507t488.5 156q330 0 491.5 -156t161.5 -507q0 -341 -177 -533t-474 -192t-474 192t-177 533zM225 1634q0 135 78.5 207t204.5 72q66 0 137 -25.5t135.5 -50.5t114.5 -25q41 0 76.5 9t57 22t37.5 26.5t22 22.5l6 9q3 -2 8.5 -7t20 -22t25 -38 t19.5 -56.5t9 -75.5q0 -135 -78 -207t-205 -72q-66 0 -137 25.5t-135.5 50.5t-114.5 25q-41 0 -76.5 -9t-57 -22t-37.5 -26t-22 -22l-6 -9q-3 2 -8.5 6.5t-20 22t-25 38t-19.5 56t-9 75.5zM489 702q0 -385 203 -385q96 0 149.5 95t53.5 290q0 169 -48.5 242.5t-156.5 73.5 q-103 0 -152 -74.5t-49 -241.5z" />
<glyph unicode="&#xd6;" horiz-adv-x="1384" d="M41 705q0 351 160.5 507t488.5 156q330 0 491.5 -156t161.5 -507q0 -341 -177 -533t-474 -192t-474 192t-177 533zM272 1485v164q0 111 63.5 161t168.5 50q41 0 81.5 -10t60.5 -20l20 -11v-162q0 -111 -64.5 -162t-169.5 -51q-41 0 -81 10t-59 20zM489 702 q0 -385 203 -385q96 0 149.5 95t53.5 290q0 169 -48.5 242.5t-156.5 73.5q-103 0 -152 -74.5t-49 -241.5zM737 1485v164q0 111 63.5 161t168.5 50q41 0 81 -10t60 -20l20 -11v-162q0 -111 -64.5 -162t-168.5 -51q-41 0 -81 10t-60 20z" />
<glyph unicode="&#xd7;" horiz-adv-x="1581" d="M256 901q2 7 7.5 19t24 42.5t41 53.5t60 42t80.5 19q80 0 154 -71l168 -168l299 299q7 -2 19 -7.5t42.5 -24t53.5 -41t42 -60t19 -80.5q0 -80 -74 -154l-168 -168l301 -299q-2 -7 -7.5 -19t-24 -42.5t-41 -53.5t-60 -42t-80.5 -19q-79 0 -154 72l-167 168l-299 -299 q-7 2 -19 7.5t-42.5 24t-54 41t-42.5 60t-19 80.5q0 81 72 153l168 168z" />
<glyph unicode="&#xd8;" horiz-adv-x="1384" d="M41 705q0 351 160.5 507t488.5 156q167 0 279 -35l110 148q19 2 35 2q87 0 142 -51.5t55 -124.5q0 -72 -49 -138l-23 -28q104 -155 104 -436q0 -341 -177 -533t-474 -192q-152 0 -276 53l-123 -166q-19 -2 -35 -2q-87 0 -142 51t-55 123t50 139l49 68q-119 183 -119 459z M489 688l242 326q-24 4 -41 4q-103 0 -152.5 -74.5t-48.5 -241.5v-14zM635 328q25 -11 57 -11q95 0 149.5 88t53.5 252v19z" />
<glyph unicode="&#xd9;" horiz-adv-x="1392" d="M102 461v837q9 6 26.5 16t71 26t107.5 16q109 0 172.5 -57t63.5 -175v-657q0 -73 40 -111.5t113 -38.5q75 0 114.5 38.5t39.5 111.5v831q9 6 26.5 16t71 26t107.5 16q108 0 171.5 -57t63.5 -175v-663q0 -104 -35.5 -190t-106.5 -152t-186 -102.5t-266 -36.5 q-157 0 -273.5 36.5t-185.5 102.5t-102 151.5t-33 190.5zM399 1710q0 118 55.5 171.5t176.5 53.5q22 0 45 -4.5t35 -8.5l12 -5q0 -5 -0.5 -13t0 -35t4.5 -54t14 -66t25 -76q17 -42 41 -77.5t46 -56t41.5 -35t31.5 -20.5l12 -5q0 -5 -1 -13.5t-10 -30.5t-24.5 -39t-49 -30.5 t-79.5 -13.5q-164 0 -269.5 104.5t-105.5 253.5z" />
<glyph unicode="&#xda;" horiz-adv-x="1392" d="M102 461v837q9 6 26.5 16t71 26t107.5 16q109 0 172.5 -57t63.5 -175v-657q0 -73 40 -111.5t113 -38.5q75 0 114.5 38.5t39.5 111.5v831q9 6 26.5 16t71 26t107.5 16q108 0 171.5 -57t63.5 -175v-663q0 -104 -35.5 -190t-106.5 -152t-186 -102.5t-266 -36.5 q-157 0 -273.5 36.5t-185.5 102.5t-102 151.5t-33 190.5zM461 1540q5 2 12.5 6t30 19.5t43 35.5t45 56t41.5 78q24 58 35 119t10 92l-2 32q43 19 92 19q120 0 175.5 -53.5t55.5 -171.5q0 -150 -105 -254.5t-269 -104.5q-46 0 -79.5 13t-49 31.5t-24.5 37.5t-10 32z" />
<glyph unicode="&#xdb;" horiz-adv-x="1392" d="M102 461v837q9 6 26.5 16t71 26t107.5 16q109 0 172.5 -57t63.5 -175v-657q0 -73 40 -111.5t113 -38.5q75 0 114.5 38.5t39.5 111.5v831q9 6 26.5 16t71 26t107.5 16q108 0 171.5 -57t63.5 -175v-663q0 -104 -35.5 -190t-106.5 -152t-186 -102.5t-266 -36.5 q-157 0 -273.5 36.5t-185.5 102.5t-102 151.5t-33 190.5zM201 1597l264 269q97 100 223 100t223 -100l265 -269q-2 -7 -7 -19t-25 -42t-44 -52.5t-67 -41.5t-93 -19q-61 0 -104 25.5t-109 91.5l-2 2q-23 23 -37 23t-37 -23l-2 -2q-66 -66 -109 -91.5t-104 -25.5 q-50 0 -92.5 18t-67.5 43.5t-43 51t-25 43.5z" />
<glyph unicode="&#xdc;" horiz-adv-x="1392" d="M102 461v837q9 6 26.5 16t71 26t107.5 16q109 0 172.5 -57t63.5 -175v-657q0 -73 40 -111.5t113 -38.5q75 0 114.5 38.5t39.5 111.5v831q9 6 26.5 16t71 26t107.5 16q108 0 171.5 -57t63.5 -175v-663q0 -104 -35.5 -190t-106.5 -152t-186 -102.5t-266 -36.5 q-157 0 -273.5 36.5t-185.5 102.5t-102 151.5t-33 190.5zM272 1485v164q0 111 63.5 161t168.5 50q41 0 81.5 -10t60.5 -20l20 -11v-162q0 -111 -64.5 -162t-169.5 -51q-41 0 -81 10t-59 20zM737 1485v164q0 111 63.5 161t168.5 50q41 0 81 -10t60 -20l20 -11v-162 q0 -111 -64.5 -162t-168.5 -51q-41 0 -81 10t-60 20z" />
<glyph unicode="&#xdd;" horiz-adv-x="1337" d="M-51 1266q3 4 10 10t30.5 21.5t50.5 27.5t70.5 21.5t90.5 9.5q118 0 186 -36.5t119 -119.5l186 -307h8l293 455q66 4 125 4q97 0 153 -51.5t56 -133.5q0 -79 -59 -159l-371 -504v-467q-9 -6 -26.5 -15.5t-71 -25.5t-107.5 -16q-109 0 -172 56.5t-63 174.5v326zM440 1540 q5 2 12.5 6t30 19.5t43 35.5t45 56t41.5 78q24 58 35 119t9 92l-1 32q44 19 93 19q120 0 175.5 -53.5t55.5 -171.5q0 -150 -105.5 -254.5t-269.5 -104.5q-46 0 -79.5 13t-49 31.5t-24.5 37.5t-10 32z" />
<glyph unicode="&#xde;" horiz-adv-x="1218" d="M102 211v1087q9 6 26.5 16t71 26t107.5 16q109 0 172.5 -57t63.5 -175v-2h286q170 0 274.5 -104t104.5 -281q0 -233 -135.5 -363t-359.5 -130h-170v-207q-9 -6 -26.5 -15.5t-71 -25.5t-107.5 -16q-109 0 -172.5 56.5t-63.5 174.5zM543 575h86q67 0 99 31t32 99 q0 43 -21.5 66.5t-62.5 23.5h-133v-220z" />
<glyph unicode="&#xdf;" horiz-adv-x="1277" d="M72 -195v1260q0 225 136.5 342t405.5 117q264 0 408.5 -108.5t144.5 -295.5q0 -125 -65.5 -213t-169.5 -112v-9q139 -9 227 -98.5t88 -247.5q0 -217 -117 -341t-305 -124q-144 0 -214 64.5t-70 196.5q0 25 4 47t8 31l4 10q49 -19 121 -19q67 0 104 39t37 113 q0 70 -23 97.5t-91 39.5q-73 13 -118.5 65t-45.5 146q0 25 4 47t8 32l4 9q29 -2 66 -2q114 0 114 174q0 74 -32.5 110.5t-90.5 36.5q-61 0 -91.5 -35t-30.5 -112v-1434q-9 -6 -25 -15.5t-67 -25.5t-103 -16q-105 0 -165 56.5t-60 174.5z" />
<glyph unicode="&#xe0;" horiz-adv-x="1060" d="M41 287q0 166 104.5 251t292.5 85q27 0 57.5 -2.5t46.5 -5.5l17 -3v19q0 30 -10 42.5t-44.5 18.5t-113.5 6q-78 0 -148.5 -7.5t-102.5 -14.5l-31 -8q-19 47 -19 104q0 100 39 157t133.5 84t265.5 27q234 0 342.5 -77.5t108.5 -257.5v-668q-9 -6 -25 -15.5t-67 -25.5 t-103 -16q-101 0 -163 54.5t-62 149.5v2h-8q-17 -86 -79 -148.5t-167 -62.5q-115 0 -189.5 85t-74.5 227zM256 1485q0 118 55.5 171.5t175.5 53.5q22 0 45 -4.5t36 -9.5l12 -4q0 -5 -0.5 -13t0 -35t4.5 -54t14 -66t25 -76q17 -42 41 -77.5t46 -56.5t41.5 -35.5t31.5 -20.5 l12 -5q0 -5 -1 -13.5t-10 -30.5t-24.5 -39t-49 -30.5t-79.5 -13.5q-164 0 -269.5 104.5t-105.5 254.5zM410 371q0 -74 73 -74q76 0 76 90v49q-18 4 -65 4q-44 0 -64 -16.5t-20 -52.5z" />
<glyph unicode="&#xe1;" horiz-adv-x="1060" d="M41 287q0 166 104.5 251t292.5 85q27 0 57.5 -2.5t46.5 -5.5l17 -3v19q0 30 -10 42.5t-44.5 18.5t-113.5 6q-78 0 -148.5 -7.5t-102.5 -14.5l-31 -8q-19 47 -19 104q0 100 39 157t133.5 84t265.5 27q234 0 342.5 -77.5t108.5 -257.5v-668q-9 -6 -25 -15.5t-67 -25.5 t-103 -16q-101 0 -163 54.5t-62 149.5v2h-8q-17 -86 -79 -148.5t-167 -62.5q-115 0 -189.5 85t-74.5 227zM301 1253q5 2 12.5 6t30 19.5t43 35.5t45 56t41.5 78q24 58 35 119t10 93l-2 32q43 18 92 18q121 0 176.5 -53.5t55.5 -171.5q0 -150 -105.5 -254.5t-269.5 -104.5 q-46 0 -79.5 13t-49 32t-24.5 37.5t-10 31.5zM410 371q0 -74 73 -74q76 0 76 90v49q-18 4 -65 4q-44 0 -64 -16.5t-20 -52.5z" />
<glyph unicode="&#xe2;" horiz-adv-x="1060" d="M41 1311l264 268q97 100 223 100q127 0 224 -100l264 -268q-2 -7 -7 -19t-25 -42t-44 -52.5t-67 -41.5t-93 -19q-61 0 -104.5 25.5t-108.5 90.5l-2 2q-23 23 -37 23q-13 0 -36 -23l-3 -2q-65 -65 -108.5 -90.5t-104.5 -25.5q-50 0 -92.5 18t-67.5 43.5t-43 51t-25 43.5z M45 287q0 166 104.5 251t292.5 85q27 0 57.5 -2.5t46.5 -5.5l17 -3v19q0 30 -10 42.5t-44.5 18.5t-113.5 6q-78 0 -148.5 -7.5t-102.5 -14.5l-31 -8q-19 47 -19 104q0 100 39 157t133.5 84t265.5 27q234 0 342.5 -77.5t108.5 -257.5v-668q-9 -6 -25 -15.5t-67 -25.5 t-103 -16q-101 0 -163 54.5t-62 149.5v2h-8q-17 -86 -79 -148.5t-167 -62.5q-115 0 -189.5 85t-74.5 227zM414 371q0 -74 73 -74q76 0 76 90v49q-18 4 -65 4q-44 0 -64 -16.5t-20 -52.5z" />
<glyph unicode="&#xe3;" horiz-adv-x="1060" d="M41 287q0 166 104.5 251t292.5 85q27 0 57.5 -2.5t46.5 -5.5l17 -3v19q0 30 -10 42.5t-44.5 18.5t-113.5 6q-78 0 -148.5 -7.5t-102.5 -14.5l-31 -8q-19 47 -19 104q0 100 39 157t133.5 84t265.5 27q234 0 342.5 -77.5t108.5 -257.5v-668q-9 -6 -25 -15.5t-67 -25.5 t-103 -16q-101 0 -163 54.5t-62 149.5v2h-8q-17 -86 -79 -148.5t-167 -62.5q-115 0 -189.5 85t-74.5 227zM70 1348q0 135 77.5 206.5t204.5 71.5q66 0 137 -25t135.5 -50t114.5 -25q41 0 76.5 9t57 22t37.5 26t22 22l6 9q3 -2 8.5 -7t20 -22t25 -38t19.5 -56.5t9 -75.5 q0 -135 -78 -206.5t-205 -71.5q-66 0 -137 25t-135.5 50t-114.5 25q-41 0 -76.5 -9t-57 -22t-37 -26t-21.5 -22l-6 -9q-3 2 -8.5 7t-20 22t-25 38t-19.5 56.5t-9 75.5zM410 371q0 -74 73 -74q76 0 76 90v49q-18 4 -65 4q-44 0 -64 -16.5t-20 -52.5z" />
<glyph unicode="&#xe4;" horiz-adv-x="1060" d="M41 287q0 166 104.5 251t292.5 85q27 0 57.5 -2.5t46.5 -5.5l17 -3v19q0 30 -10 42.5t-44.5 18.5t-113.5 6q-78 0 -148.5 -7.5t-102.5 -14.5l-31 -8q-19 47 -19 104q0 100 39 157t133.5 84t265.5 27q234 0 342.5 -77.5t108.5 -257.5v-668q-9 -6 -25 -15.5t-67 -25.5 t-103 -16q-101 0 -163 54.5t-62 149.5v2h-8q-17 -86 -79 -148.5t-167 -62.5q-115 0 -189.5 85t-74.5 227zM106 1198v164q0 111 63.5 161t168.5 50q41 0 81.5 -10.5t60.5 -20.5l20 -10v-162q0 -111 -64.5 -162t-169.5 -51q-41 0 -81 10.5t-59 20.5zM410 371q0 -74 73 -74 q76 0 76 90v49q-18 4 -65 4q-44 0 -64 -16.5t-20 -52.5zM571 1198v164q0 111 63.5 161t168.5 50q41 0 81.5 -10.5t60.5 -20.5l20 -10v-162q0 -111 -64.5 -162t-169.5 -51q-41 0 -81 10.5t-60 20.5z" />
<glyph unicode="&#xe5;" horiz-adv-x="1060" d="M41 287q0 166 104.5 251t292.5 85q27 0 57.5 -2.5t46.5 -5.5l17 -3v19q0 30 -10 42.5t-44.5 18.5t-113.5 6q-78 0 -148.5 -7.5t-102.5 -14.5l-31 -8q-19 47 -19 104q0 100 39 157t133.5 84t265.5 27q234 0 342.5 -77.5t108.5 -257.5v-668q-9 -6 -25 -15.5t-67 -25.5 t-103 -16q-101 0 -163 54.5t-62 149.5v2h-8q-17 -86 -79 -148.5t-167 -62.5q-115 0 -189.5 85t-74.5 227zM225 1442q0 130 92.5 222.5t223.5 92.5t223 -92.5t92 -222.5q0 -131 -92.5 -223.5t-222.5 -92.5q-131 0 -223.5 93t-92.5 223zM410 371q0 -74 73 -74q76 0 76 90v49 q-18 4 -65 4q-44 0 -64 -16.5t-20 -52.5zM446 1442q0 -38 28.5 -66t66.5 -28t66 28t28 66t-28 66t-66 28t-66.5 -28t-28.5 -66z" />
<glyph unicode="&#xe6;" horiz-adv-x="1538" d="M41 287q0 166 104.5 251t292.5 85q27 0 57.5 -2.5t46.5 -5.5l17 -3v19q0 33 -10.5 45.5t-42.5 17t-115 4.5q-78 0 -148.5 -7.5t-102.5 -14.5l-31 -8q-19 47 -19 104q0 100 39 157t133.5 84t265.5 27q81 0 150 -15t98 -31l29 -15q12 7 32.5 18t84 29t125.5 18 q224 0 342 -112.5t118 -323.5q0 -110 -27.5 -147t-107.5 -37h-389q10 -66 54.5 -92.5t131.5 -26.5q53 0 96.5 3t60.5 6l17 3q17 -31 17 -88q0 -130 -65 -192t-218 -62q-135 0 -220.5 57.5t-121.5 153.5h-8q-61 -105 -147.5 -155.5t-225.5 -50.5q-133 0 -223 84t-90 223z M410 371q0 -70 73 -70q76 0 76 86v49q-18 4 -65 4q-44 0 -64 -16.5t-20 -52.5zM975 606h178q12 56 -8.5 91.5t-67.5 35.5q-96 0 -102 -127z" />
<glyph unicode="&#xe7;" horiz-adv-x="905" d="M31 541q0 245 139.5 374t372.5 129q135 0 205.5 -24.5t98 -77.5t27.5 -154q0 -25 -4.5 -51t-9.5 -39l-4 -14q-90 18 -219 18q-104 0 -141 -33t-37 -130q0 -136 41 -185t155 -49q53 0 96.5 3t60.5 6l17 3q17 -31 17 -88q0 -130 -65 -192t-218 -62q-167 0 -288.5 73.5 t-182.5 200.5t-61 292zM279 -389q3 2 9 5.5t23 17t31.5 29.5t31.5 41.5t27 53.5q13 36 14.5 77t-3.5 64l-4 23q55 17 127 17q87 0 134.5 -46.5t47.5 -136.5q0 -107 -76 -187.5t-199 -80.5q-46 0 -79.5 12.5t-49 31t-24 36.5t-9.5 30z" />
<glyph unicode="&#xe8;" horiz-adv-x="1024" d="M31 541q0 246 134.5 374.5t366.5 128.5q224 0 342.5 -112.5t118.5 -323.5q0 -110 -27.5 -147t-107.5 -37h-389q10 -66 54.5 -92.5t131.5 -26.5q53 0 96.5 3t60.5 6l17 3q17 -31 17 -88q0 -130 -65 -192t-218 -62q-167 0 -288.5 73.5t-182.5 200.5t-61 292zM246 1485 q0 118 55.5 171.5t175.5 53.5q22 0 45 -4.5t35 -9.5l12 -4q0 -5 -0.5 -13t0 -35t4.5 -54t14 -66t25 -76q17 -42 41 -77.5t46 -56.5t41.5 -35.5t31.5 -20.5l12 -5q0 -5 -1 -13.5t-9.5 -30.5t-24 -39t-49 -30.5t-79.5 -13.5q-164 0 -269.5 104.5t-105.5 254.5zM461 606h178 q12 56 -8.5 91.5t-67.5 35.5q-96 0 -102 -127z" />
<glyph unicode="&#xe9;" horiz-adv-x="1024" d="M31 541q0 246 134.5 374.5t366.5 128.5q224 0 342.5 -112.5t118.5 -323.5q0 -110 -27.5 -147t-107.5 -37h-389q10 -66 54.5 -92.5t131.5 -26.5q53 0 96.5 3t60.5 6l17 3q17 -31 17 -88q0 -130 -65 -192t-218 -62q-167 0 -288.5 73.5t-182.5 200.5t-61 292zM287 1253 q5 2 12.5 6t30 19.5t43 35.5t45 56t41.5 78q24 58 35 119t10 93l-2 32q43 18 92 18q120 0 175.5 -53.5t55.5 -171.5q0 -150 -105 -254.5t-269 -104.5q-46 0 -79.5 13t-49 32t-24.5 37.5t-10 31.5zM461 606h178q12 56 -8.5 91.5t-67.5 35.5q-96 0 -102 -127z" />
<glyph unicode="&#xea;" horiz-adv-x="1024" d="M31 541q0 246 134.5 374.5t366.5 128.5q224 0 342.5 -112.5t118.5 -323.5q0 -110 -27.5 -147t-107.5 -37h-389q10 -66 54.5 -92.5t131.5 -26.5q53 0 96.5 3t60.5 6l17 3q17 -31 17 -88q0 -130 -65 -192t-218 -62q-167 0 -288.5 73.5t-182.5 200.5t-61 292zM33 1311 l264 268q97 100 223 100t223 -100l265 -268q-2 -7 -7 -19t-25 -42t-44 -52.5t-67 -41.5t-93 -19q-61 0 -104.5 25.5t-108.5 90.5l-2 2q-23 23 -37 23t-37 -23l-2 -2q-65 -65 -108.5 -90.5t-104.5 -25.5q-50 0 -92.5 18t-67.5 43.5t-43 51t-25 43.5zM461 606h178 q12 56 -8.5 91.5t-67.5 35.5q-96 0 -102 -127z" />
<glyph unicode="&#xeb;" horiz-adv-x="1024" d="M31 541q0 246 134.5 374.5t366.5 128.5q224 0 342.5 -112.5t118.5 -323.5q0 -110 -27.5 -147t-107.5 -37h-389q10 -66 54.5 -92.5t131.5 -26.5q53 0 96.5 3t60.5 6l17 3q17 -31 17 -88q0 -130 -65 -192t-218 -62q-167 0 -288.5 73.5t-182.5 200.5t-61 292zM96 1198v164 q0 111 63.5 161t168.5 50q41 0 81 -10.5t60 -20.5l20 -10v-162q0 -111 -64.5 -162t-168.5 -51q-41 0 -81 10.5t-59 20.5zM461 606h178q12 56 -8.5 91.5t-67.5 35.5q-96 0 -102 -127zM561 1198v164q0 111 63.5 161t168.5 50q41 0 81 -10.5t60 -20.5l20 -10v-162 q0 -111 -64.5 -162t-168.5 -51q-41 0 -81 10.5t-60 20.5z" />
<glyph unicode="&#xec;" horiz-adv-x="636" d="M-31 1485q0 118 55.5 171.5t176.5 53.5q22 0 45 -4.5t35 -9.5l12 -4q0 -5 -0.5 -13t0 -35t4.5 -54t14 -66t25 -76q17 -42 41 -77.5t46 -56t41.5 -35.5t31.5 -21l12 -5q0 -5 -1 -13.5t-10 -30.5t-24.5 -39t-49 -30.5t-79.5 -13.5q-164 0 -269.5 104.5t-105.5 254.5z M82 291v684q9 6 25 15.5t66.5 25.5t102.5 16q105 0 165.5 -56.5t60.5 -174.5v-416q0 -94 76 -94l32 2q17 -31 17 -88q0 -95 -69 -160t-193 -65q-283 0 -283 311z" />
<glyph unicode="&#xed;" horiz-adv-x="636" d="M10 1253q5 2 12.5 6t30 19.5t43 35.5t45 56t41.5 78q24 58 35 119t9 93l-1 32q43 18 92 18q121 0 176.5 -53.5t55.5 -171.5q0 -150 -105.5 -254.5t-269.5 -104.5q-46 0 -79.5 13t-49 32t-24.5 37.5t-10 31.5zM82 291v684q9 6 25 15.5t66.5 25.5t102.5 16 q105 0 165.5 -56.5t60.5 -174.5v-416q0 -94 76 -94l32 2q17 -31 17 -88q0 -95 -69 -160t-193 -65q-283 0 -283 311z" />
<glyph unicode="&#xee;" horiz-adv-x="636" d="M-203 1311l264 268q97 100 224 100q126 0 223 -100l264 -268q-2 -7 -7 -19t-24.5 -42t-43.5 -52.5t-67 -41.5t-93 -19q-61 0 -104.5 25.5t-108.5 90.5l-2 2q-23 23 -37 23t-37 -23l-2 -2q-65 -65 -108.5 -90.5t-104.5 -25.5q-50 0 -92.5 18t-68 43.5t-43.5 51t-25 43.5z M82 291v684q9 6 25 15.5t66.5 25.5t102.5 16q105 0 165.5 -56.5t60.5 -174.5v-416q0 -94 76 -94l32 2q17 -31 17 -88q0 -95 -69 -160t-193 -65q-283 0 -283 311z" />
<glyph unicode="&#xef;" horiz-adv-x="636" d="M-123 1198v164q0 111 63.5 161t168.5 50q41 0 81 -10.5t60 -20.5l20 -10v-162q0 -111 -64.5 -162t-168.5 -51q-41 0 -81 10.5t-60 20.5zM82 291v684q9 6 25 15.5t66.5 25.5t102.5 16q105 0 165.5 -56.5t60.5 -174.5v-416q0 -94 76 -94l32 2q17 -31 17 -88q0 -95 -69 -160 t-193 -65q-283 0 -283 311zM342 1198v164q0 111 63.5 161t167.5 50q41 0 81.5 -10.5t60.5 -20.5l20 -10v-162q0 -111 -64.5 -162t-168.5 -51q-41 0 -81 10.5t-59 20.5z" />
<glyph unicode="&#xf0;" horiz-adv-x="1280" d="M72 541q0 249 107 366t286 117q65 0 132 -29t101 -57l35 -29l4 6l-237 226q-74 71 -74 162q0 76 55 129t148 53l86 -4l305 -400q106 -138 152.5 -253t46.5 -287q0 -119 -37 -221.5t-107.5 -179.5t-180.5 -121t-249 -44q-173 0 -304.5 76t-200 204t-68.5 286zM500 532 q0 -117 39 -172t106 -55q146 0 146 217q0 92 -42 136t-106 44q-72 0 -107.5 -38.5t-35.5 -131.5z" />
<glyph unicode="&#xf1;" d="M82 211v760q9 6 25 15.5t66.5 25.5t102.5 16q102 0 164 -53t62 -148v-2h8q33 100 114 157.5t195 57.5q156 0 231.5 -85.5t75.5 -274.5v-643q-9 -6 -25 -15.5t-66.5 -25.5t-102.5 -16q-105 0 -165 56.5t-60 174.5v399q0 97 -93 97q-51 0 -81.5 -40.5t-30.5 -113.5v-516 q-9 -6 -25 -15.5t-67 -25.5t-103 -16q-105 0 -165 56.5t-60 174.5zM123 1348q0 135 78 206.5t205 71.5q66 0 137 -25t135.5 -50t114.5 -25q41 0 76.5 9t57 22t37 26t21.5 22l6 9q3 -2 8.5 -7t20 -22t25 -38t19.5 -56.5t9 -75.5q0 -135 -77.5 -206.5t-204.5 -71.5 q-66 0 -137 25t-136 50t-115 25q-41 0 -76.5 -9t-57 -22t-37 -26t-21.5 -22l-6 -9q-3 2 -8.5 7t-20 22t-25 38t-19.5 56.5t-9 75.5z" />
<glyph unicode="&#xf2;" horiz-adv-x="1126" d="M31 541q0 245 143 374t387 129q261 0 398 -126.5t137 -376.5q0 -118 -37 -221.5t-104 -180t-168.5 -120.5t-223.5 -44q-131 0 -233.5 44t-167 121.5t-98 179t-33.5 221.5zM276 1485q0 118 55.5 171.5t176.5 53.5q22 0 45 -4.5t35 -9.5l12 -4q0 -5 -0.5 -13t0 -35t4.5 -54 t14 -66t25 -76q17 -42 41 -77.5t46 -56.5t41.5 -35.5t31.5 -20.5l12 -5q0 -5 -1 -13.5t-10 -30.5t-24.5 -39t-49 -30.5t-79.5 -13.5q-164 0 -269.5 104.5t-105.5 254.5zM459 539q0 -130 25.5 -182t78.5 -52q55 0 80 51t25 183q0 96 -23 129.5t-82 33.5q-56 0 -80 -34 t-24 -129z" />
<glyph unicode="&#xf3;" horiz-adv-x="1126" d="M31 541q0 245 143 374t387 129q261 0 398 -126.5t137 -376.5q0 -118 -37 -221.5t-104 -180t-168.5 -120.5t-223.5 -44q-131 0 -233.5 44t-167 121.5t-98 179t-33.5 221.5zM317 1253q5 2 12.5 6t30 19.5t43 35.5t45 56t41.5 78q24 58 35 119t10 93l-2 32q44 18 93 18 q120 0 175.5 -53.5t55.5 -171.5q0 -150 -105.5 -254.5t-269.5 -104.5q-46 0 -79.5 13t-49 32t-24.5 37.5t-10 31.5zM459 539q0 -130 25.5 -182t78.5 -52q55 0 80 51t25 183q0 96 -23 129.5t-82 33.5q-56 0 -80 -34t-24 -129z" />
<glyph unicode="&#xf4;" horiz-adv-x="1126" d="M31 541q0 245 143 374t387 129q261 0 398 -126.5t137 -376.5q0 -118 -37 -221.5t-104 -180t-168.5 -120.5t-223.5 -44q-131 0 -233.5 44t-167 121.5t-98 179t-33.5 221.5zM70 1311l264 268q97 100 223 100t223 -100l264 -268q-2 -7 -7 -19t-24.5 -42t-43.5 -52.5 t-67 -41.5t-93 -19q-61 0 -104.5 25.5t-108.5 90.5l-2 2q-23 23 -37 23t-37 -23l-2 -2q-65 -65 -108.5 -90.5t-104.5 -25.5q-50 0 -92.5 18t-67.5 43.5t-43 51t-25 43.5zM459 539q0 -130 25.5 -182t78.5 -52q55 0 80 51t25 183q0 96 -23 129.5t-82 33.5q-56 0 -80 -34 t-24 -129z" />
<glyph unicode="&#xf5;" horiz-adv-x="1126" d="M31 541q0 245 143 374t387 129q261 0 398 -126.5t137 -376.5q0 -118 -37 -221.5t-104 -180t-168.5 -120.5t-223.5 -44q-131 0 -233.5 44t-167 121.5t-98 179t-33.5 221.5zM82 1348q0 135 78 206.5t205 71.5q66 0 137 -25t135.5 -50t114.5 -25q41 0 76.5 9t57 22t37 26 t21.5 22l6 9q3 -2 8.5 -7t20 -22t25 -38t19.5 -56.5t9 -75.5q0 -135 -77.5 -206.5t-204.5 -71.5q-66 0 -137 25t-136 50t-115 25q-41 0 -76.5 -9t-57 -22t-37 -26t-21.5 -22l-6 -9q-3 2 -8.5 7t-20 22t-25 38t-19.5 56.5t-9 75.5zM459 539q0 -130 25.5 -182t78.5 -52 q55 0 80 51t25 183q0 96 -23 129.5t-82 33.5q-56 0 -80 -34t-24 -129z" />
<glyph unicode="&#xf6;" horiz-adv-x="1126" d="M31 541q0 245 143 374t387 129q261 0 398 -126.5t137 -376.5q0 -118 -37 -221.5t-104 -180t-168.5 -120.5t-223.5 -44q-131 0 -233.5 44t-167 121.5t-98 179t-33.5 221.5zM137 1198v164q0 111 63.5 161t168.5 50q41 0 81 -10.5t60 -20.5l20 -10v-162q0 -111 -64.5 -162 t-168.5 -51q-41 0 -81 10.5t-60 20.5zM459 539q0 -130 25.5 -182t78.5 -52q55 0 80 51t25 183q0 96 -23 129.5t-82 33.5q-56 0 -80 -34t-24 -129zM602 1198v164q0 111 63.5 161t168.5 50q41 0 81 -10.5t60 -20.5l20 -10v-162q0 -111 -64.5 -162t-168.5 -51q-41 0 -81 10.5 t-59 20.5z" />
<glyph unicode="&#xf7;" horiz-adv-x="1638" d="M197 561q0 91 54 149t161 58h1001q29 -51 29 -125q0 -91 -54 -149t-161 -58h-1002q-28 51 -28 125zM659 29v112q0 93 55.5 140t141.5 47q42 0 81 -12t57 -24l18 -11v-105q0 -94 -56 -143t-141 -49q-42 0 -81 11t-57 23zM659 913v113q0 93 55.5 139.5t141.5 46.5 q42 0 81 -12t57 -24l18 -11v-104q0 -94 -56 -143.5t-141 -49.5q-42 0 -81 11t-57 23z" />
<glyph unicode="&#xf8;" horiz-adv-x="1126" d="M31 541q0 245 143 374t387 129q87 0 172 -16l111 150q19 2 35 2q87 0 141.5 -51.5t54.5 -124.5q0 -72 -49 -138l-10 -14q80 -121 80 -311q0 -118 -37 -221.5t-104 -180t-168.5 -120.5t-223.5 -44q-97 0 -180 25l-100 -133q-19 -2 -35 -2q-87 0 -142 51t-55 123 q0 73 49 139l17 23q-86 142 -86 340zM459 539q0 -130 25.5 -182t78.5 -52q55 0 80 51t25 183q0 96 -23 129.5t-82 33.5q-56 0 -80 -34t-24 -129z" />
<glyph unicode="&#xf9;" d="M82 340v631q9 6 25 15.5t66.5 25.5t102.5 16q105 0 165.5 -56.5t60.5 -174.5v-391q0 -97 92 -97q51 0 82 40.5t31 113.5v508q9 6 25 15.5t66.5 25.5t102.5 16q105 0 165 -56.5t60 -174.5v-760q-9 -6 -25 -15.5t-66.5 -25.5t-102.5 -16q-101 0 -163 54.5t-62 149.5v2h-9 q-33 -99 -113.5 -155t-195.5 -56q-156 0 -231.5 87.5t-75.5 277.5zM276 1485q0 118 55.5 171.5t176.5 53.5q22 0 45 -4.5t35 -9.5l12 -4q0 -5 -0.5 -13t0 -35t4.5 -54t14 -66t25 -76q17 -42 41 -77.5t46 -56.5t41.5 -35.5t31.5 -20.5l12 -5q0 -5 -1 -13.5t-10 -30.5 t-24.5 -39t-49 -30.5t-79.5 -13.5q-164 0 -269.5 104.5t-105.5 254.5z" />
<glyph unicode="&#xfa;" d="M82 340v631q9 6 25 15.5t66.5 25.5t102.5 16q105 0 165.5 -56.5t60.5 -174.5v-391q0 -97 92 -97q51 0 82 40.5t31 113.5v508q9 6 25 15.5t66.5 25.5t102.5 16q105 0 165 -56.5t60 -174.5v-760q-9 -6 -25 -15.5t-66.5 -25.5t-102.5 -16q-101 0 -163 54.5t-62 149.5v2h-9 q-33 -99 -113.5 -155t-195.5 -56q-156 0 -231.5 87.5t-75.5 277.5zM358 1253q5 2 12.5 6t30 19.5t43 35.5t45 56t41.5 78q24 58 35 119t9 93l-1 32q44 18 93 18q120 0 175.5 -53.5t55.5 -171.5q0 -150 -105.5 -254.5t-269.5 -104.5q-46 0 -79.5 13t-49 32t-24.5 37.5 t-10 31.5z" />
<glyph unicode="&#xfb;" d="M82 340v631q9 6 25 15.5t66.5 25.5t102.5 16q105 0 165.5 -56.5t60.5 -174.5v-391q0 -97 92 -97q51 0 82 40.5t31 113.5v508q9 6 25 15.5t66.5 25.5t102.5 16q105 0 165 -56.5t60 -174.5v-760q-9 -6 -25 -15.5t-66.5 -25.5t-102.5 -16q-101 0 -163 54.5t-62 149.5v2h-9 q-33 -99 -113.5 -155t-195.5 -56q-156 0 -231.5 87.5t-75.5 277.5zM113 1311l264 268q97 100 223 100t223 -100l264 -268q-2 -7 -7 -19t-24.5 -42t-43.5 -52.5t-67 -41.5t-93 -19q-61 0 -104.5 25.5t-108.5 90.5l-2 2q-23 23 -37 23t-37 -23l-2 -2q-65 -65 -108.5 -90.5 t-104.5 -25.5q-50 0 -92.5 18t-67.5 43.5t-43 51t-25 43.5z" />
<glyph unicode="&#xfc;" d="M82 340v631q9 6 25 15.5t66.5 25.5t102.5 16q105 0 165.5 -56.5t60.5 -174.5v-391q0 -97 92 -97q51 0 82 40.5t31 113.5v508q9 6 25 15.5t66.5 25.5t102.5 16q105 0 165 -56.5t60 -174.5v-760q-9 -6 -25 -15.5t-66.5 -25.5t-102.5 -16q-101 0 -163 54.5t-62 149.5v2h-9 q-33 -99 -113.5 -155t-195.5 -56q-156 0 -231.5 87.5t-75.5 277.5zM190 1198v164q0 111 63.5 161t168.5 50q41 0 81.5 -10.5t60.5 -20.5l20 -10v-162q0 -111 -64.5 -162t-169.5 -51q-41 0 -81 10.5t-59 20.5zM655 1198v164q0 111 63.5 161t168.5 50q41 0 81.5 -10.5 t60.5 -20.5l20 -10v-162q0 -111 -64.5 -162t-169.5 -51q-41 0 -81 10.5t-60 20.5z" />
<glyph unicode="&#xfd;" horiz-adv-x="1132" d="M-31 958q9 8 25 19.5t71 31t115 19.5q231 0 277 -209l104 -491h8l176 651q8 5 22.5 11.5t60 18t92.5 11.5q94 0 148 -50.5t54 -133.5q0 -50 -20 -103l-264 -676q-38 -96 -59 -145.5t-55 -116t-64 -98.5t-73 -65t-95 -45.5t-119 -12.5q-63 0 -112 14.5t-74 35t-40.5 41.5 t-19.5 35l-4 15q13 5 34 15t74 50.5t91 90.5q25 34 47.5 69.5t32.5 54.5l10 19q-78 31 -131 94t-88 168zM326 1253q5 2 12.5 6t30 19.5t43 35.5t45 56t41.5 78q24 58 35 119t9 93l-1 32q43 18 92 18q120 0 175.5 -53.5t55.5 -171.5q0 -150 -105.5 -254.5t-269.5 -104.5 q-46 0 -79.5 13t-49 32t-24 37.5t-9.5 31.5z" />
<glyph unicode="&#xfe;" horiz-adv-x="1171" d="M82 -195v1584q9 6 25 15.5t66.5 25.5t102.5 16q105 0 165.5 -57t60.5 -175v-389h8q11 42 31 77.5t52.5 68t85.5 51t120 18.5q73 0 134 -28t111 -87t78.5 -162.5t28.5 -242.5q0 -270 -134.5 -406.5t-400.5 -136.5q-27 0 -55.5 3.5t-43.5 7.5l-15 4v-361q-9 -6 -25 -15.5 t-67 -25.5t-103 -16q-105 0 -165 56.5t-60 174.5zM502 297q28 -4 67 -4q80 0 117 45.5t37 163.5q0 205 -109 205q-51 0 -81.5 -40.5t-30.5 -113.5v-256z" />
<glyph unicode="&#xff;" horiz-adv-x="1132" d="M-31 958q9 8 25 19.5t71 31t115 19.5q231 0 277 -209l104 -491h8l176 651q8 5 22.5 11.5t60 18t92.5 11.5q94 0 148 -50.5t54 -133.5q0 -50 -20 -103l-264 -676q-38 -96 -59 -145.5t-55 -116t-64 -98.5t-73 -65t-95 -45.5t-119 -12.5q-63 0 -112 14.5t-74 35t-40.5 41.5 t-19.5 35l-4 15q13 5 34 15t74 50.5t91 90.5q25 34 47.5 69.5t32.5 54.5l10 19q-78 31 -131 94t-88 168zM160 1198v164q0 111 63.5 161t167.5 50q41 0 81.5 -10.5t60.5 -20.5l20 -10v-162q0 -111 -64.5 -162t-169.5 -51q-41 0 -80.5 10.5t-58.5 20.5zM625 1198v164 q0 111 63.5 161t167.5 50q41 0 81.5 -10.5t60.5 -20.5l20 -10v-162q0 -111 -64.5 -162t-169.5 -51q-41 0 -80.5 10.5t-59.5 20.5z" />
<glyph unicode="&#x152;" horiz-adv-x="1898" d="M41 705q0 351 160.5 507t488.5 156q178 0 297 -41h832q28 -51 28 -125q0 -90 -57.5 -148.5t-165.5 -58.5h-289v-145h463q29 -51 29 -125q0 -90 -57.5 -148.5t-165.5 -58.5h-269v-186h504q29 -51 29 -125q0 -91 -54 -149t-161 -58h-783q-79 -20 -178 -20q-297 0 -474 192 t-177 533zM489 702q0 -385 203 -385q96 0 149.5 95t53.5 290q0 169 -48.5 242.5t-156.5 73.5q-103 0 -152 -74.5t-49 -241.5z" />
<glyph unicode="&#x153;" horiz-adv-x="1607" d="M31 541q0 245 143 374t387 129q191 0 313 -67q113 67 281 67q206 0 314 -115.5t108 -320.5q0 -109 -27.5 -146.5t-107.5 -37.5h-350q10 -66 54.5 -92.5t131.5 -26.5q53 0 96.5 3t60.5 6l17 3q16 -31 16 -88q0 -130 -64.5 -192t-217.5 -62q-188 0 -314 93 q-134 -93 -309 -93q-131 0 -233.5 44t-167 121.5t-98 179t-33.5 221.5zM459 539q0 -130 25.5 -182t78.5 -52q55 0 80 51t25 183q0 96 -23 129.5t-82 33.5q-56 0 -80 -34t-24 -129zM1090 643h176q6 45 -15 67.5t-63 22.5q-85 0 -98 -90z" />
<glyph unicode="&#x178;" horiz-adv-x="1337" d="M-51 1266q3 4 10 10t30.5 21.5t50.5 27.5t70.5 21.5t90.5 9.5q118 0 186 -36.5t119 -119.5l186 -307h8l293 455q66 4 125 4q97 0 153 -51.5t56 -133.5q0 -79 -59 -159l-371 -504v-467q-9 -6 -26.5 -15.5t-71 -25.5t-107.5 -16q-109 0 -172 56.5t-63 174.5v326zM272 1485 v164q0 111 63.5 161t168.5 50q41 0 81.5 -10t60.5 -20l20 -11v-162q0 -111 -64.5 -162t-169.5 -51q-41 0 -81 10t-59 20zM737 1485v164q0 111 63.5 161t168.5 50q41 0 81 -10t60 -20l20 -11v-162q0 -111 -64.5 -162t-168.5 -51q-41 0 -81 10t-60 20z" />
<glyph unicode="&#x2c6;" horiz-adv-x="1077" d="M51 1311l264 268q97 100 224 100q126 0 223 -100l264 -268q-2 -7 -7 -19t-24.5 -42t-43.5 -52.5t-67 -41.5t-93 -19q-61 0 -104.5 25.5t-108.5 90.5l-3 2q-23 23 -36 23q-14 0 -37 -23l-2 -2q-65 -65 -108.5 -90.5t-104.5 -25.5q-50 0 -92.5 18t-68 43.5t-43.5 51 t-25 43.5z" />
<glyph unicode="&#x2dc;" horiz-adv-x="1052" d="M51 1348q0 135 78 206.5t205 71.5q66 0 137 -25t135.5 -50t114.5 -25q41 0 76.5 9t57 22t37.5 26t22 22l6 9q3 -2 8.5 -7t19.5 -22t24.5 -38t19.5 -56.5t9 -75.5q0 -135 -77.5 -206.5t-204.5 -71.5q-66 0 -137 25t-135.5 50t-114.5 25q-41 0 -76.5 -9t-57 -22t-37.5 -26 t-22 -22l-6 -9q-3 2 -8.5 7t-20 22t-25 38t-19.5 56.5t-9 75.5z" />
<glyph unicode="&#x2000;" horiz-adv-x="1022" />
<glyph unicode="&#x2001;" horiz-adv-x="2044" />
<glyph unicode="&#x2002;" horiz-adv-x="1022" />
<glyph unicode="&#x2003;" horiz-adv-x="2044" />
<glyph unicode="&#x2004;" horiz-adv-x="681" />
<glyph unicode="&#x2005;" horiz-adv-x="511" />
<glyph unicode="&#x2006;" horiz-adv-x="340" />
<glyph unicode="&#x2007;" horiz-adv-x="340" />
<glyph unicode="&#x2008;" horiz-adv-x="255" />
<glyph unicode="&#x2009;" horiz-adv-x="408" />
<glyph unicode="&#x200a;" horiz-adv-x="113" />
<glyph unicode="&#x2010;" horiz-adv-x="819" d="M102 553q0 91 54 149t161 58h371q29 -51 29 -125q0 -91 -54 -149t-161 -58h-371q-29 51 -29 125z" />
<glyph unicode="&#x2011;" horiz-adv-x="819" d="M102 553q0 91 54 149t161 58h371q29 -51 29 -125q0 -91 -54 -149t-161 -58h-371q-29 51 -29 125z" />
<glyph unicode="&#x2012;" horiz-adv-x="819" d="M102 553q0 91 54 149t161 58h371q29 -51 29 -125q0 -91 -54 -149t-161 -58h-371q-29 51 -29 125z" />
<glyph unicode="&#x2013;" horiz-adv-x="1536" d="M154 553q0 91 54 149t161 58h985q28 -51 28 -125q0 -91 -54 -149t-161 -58h-985q-28 51 -28 125z" />
<glyph unicode="&#x2014;" horiz-adv-x="2355" d="M154 553q0 91 54 149t161 58h1804q29 -51 29 -125q0 -91 -54 -149t-161 -58h-1805q-28 51 -28 125z" />
<glyph unicode="&#x2018;" horiz-adv-x="727" d="M123 1171q0 165 116.5 280.5t297.5 115.5q50 0 87.5 -14.5t54 -35t26.5 -41t11 -34.5l1 -15q-5 -2 -13.5 -6.5t-33 -22t-47 -39.5t-49.5 -61.5t-46 -85.5q-26 -64 -37 -131.5t-9 -102.5l3 -36q-53 -20 -106 -20q-133 0 -194.5 59.5t-61.5 189.5z" />
<glyph unicode="&#x2019;" horiz-adv-x="727" d="M10 1061q5 2 13.5 6.5t33 22t47 39.5t49.5 61.5t46 85.5q26 64 37 131.5t8 102.5l-2 36q53 21 106 21q132 0 194 -60t62 -190q0 -165 -116.5 -280t-297.5 -115q-50 0 -87.5 14.5t-54 34.5t-26.5 40.5t-11 34.5z" />
<glyph unicode="&#x201a;" horiz-adv-x="727" d="M10 -96q5 2 13.5 6.5t33 22t47 39.5t49.5 61.5t46 85.5q26 64 37 131.5t8 103.5l-2 35q53 21 106 21q132 0 194 -60t62 -190q0 -165 -116.5 -280.5t-297.5 -115.5q-50 0 -87.5 14.5t-54 35t-26.5 41t-11 35.5z" />
<glyph unicode="&#x201c;" horiz-adv-x="1269" d="M123 1171q0 165 116.5 280.5t297.5 115.5q50 0 87.5 -14.5t54 -35t26.5 -41t11 -34.5l1 -15q-5 -2 -13.5 -6.5t-33 -22t-47 -39.5t-49.5 -61.5t-46 -85.5q-26 -64 -37 -131.5t-9 -102.5l3 -36q-53 -20 -106 -20q-133 0 -194.5 59.5t-61.5 189.5zM666 1171 q0 165 116 280.5t297 115.5q50 0 87.5 -14.5t54.5 -35t27 -41t11 -34.5l1 -15q-5 -2 -13.5 -6.5t-33 -22t-47 -39.5t-49.5 -61.5t-46 -85.5q-26 -64 -37 -131.5t-8 -102.5l2 -36q-53 -20 -106 -20q-133 0 -194.5 59.5t-61.5 189.5z" />
<glyph unicode="&#x201d;" horiz-adv-x="1269" d="M10 1061q5 2 13.5 6.5t33 22t47 39.5t49.5 61.5t46 85.5q26 64 37 131.5t8 102.5l-2 36q53 21 106 21q132 0 194 -60t62 -190q0 -165 -116.5 -280t-297.5 -115q-50 0 -87.5 14.5t-54 34.5t-26.5 40.5t-11 34.5zM553 1061q5 2 13.5 6.5t33 22t46.5 39.5t49 61.5t46 85.5 q26 64 37 131.5t8 102.5l-2 36q54 21 107 21q132 0 194 -60t62 -190q0 -165 -116.5 -280t-297.5 -115q-50 0 -87.5 14.5t-54 34.5t-26.5 40.5t-11 34.5z" />
<glyph unicode="&#x201e;" horiz-adv-x="1269" d="M10 -96q5 2 13.5 6.5t33 22t47 39.5t49.5 61.5t46 85.5q26 64 37 131.5t8 103.5l-2 35q53 21 106 21q132 0 194 -60t62 -190q0 -165 -116.5 -280.5t-297.5 -115.5q-50 0 -87.5 14.5t-54 35t-26.5 41t-11 35.5zM553 -96q5 2 13.5 6.5t33 22t46.5 39.5t49 61.5t46 85.5 q26 64 37 131.5t8 103.5l-2 35q54 21 107 21q132 0 194 -60t62 -190q0 -165 -116.5 -280.5t-297.5 -115.5q-50 0 -87.5 14.5t-54 35t-26.5 41t-11 35.5z" />
<glyph unicode="&#x2022;" horiz-adv-x="763" d="M82 469v219q0 87 27.5 151.5t77 102t111.5 55t138 17.5q63 0 124.5 -15.5t91.5 -30.5l30 -16v-221q0 -169 -97.5 -247t-256.5 -78q-63 0 -124.5 16t-91.5 32z" />
<glyph unicode="&#x2026;" horiz-adv-x="1792" d="M113 31v172q0 130 74.5 189t197.5 59q48 0 95 -12t70 -24l23 -12v-170q0 -130 -74.5 -189.5t-197.5 -59.5q-48 0 -95 12t-70 24zM666 31v172q0 130 74.5 189t197.5 59q48 0 95 -12t70 -24l23 -12v-170q0 -130 -74.5 -189.5t-197.5 -59.5q-48 0 -95 12t-70 24zM1219 31 v172q0 130 74.5 189t197.5 59q48 0 95 -12t70 -24l23 -12v-170q0 -130 -74.5 -189.5t-197.5 -59.5q-48 0 -95 12t-70 24z" />
<glyph unicode="&#x202f;" horiz-adv-x="408" />
<glyph unicode="&#x2039;" horiz-adv-x="917" d="M82 588l469 456q68 -21 120 -82t52 -131q0 -82 -76 -155l-90 -88l90 -88q76 -73 76 -156q0 -70 -52 -131t-120 -82z" />
<glyph unicode="&#x203a;" horiz-adv-x="917" d="M195 344q0 84 75 156l90 88l-90 88q-75 72 -75 155q0 70 52 131t120 82l469 -456l-469 -457q-68 21 -120 82t-52 131z" />
<glyph unicode="&#x205f;" horiz-adv-x="511" />
<glyph unicode="&#x20ac;" horiz-adv-x="1478" d="M102 498q0 57 33.5 92t100.5 35h32q0 11 -1 34.5t-1 36.5h-147q-17 27 -17 78q0 57 33.5 92t100.5 35h45q42 245 199 356t435 111q179 0 278 -28t141 -89t42 -170q0 -25 -4.5 -52t-9.5 -41l-4 -15q-139 28 -342 28q-103 0 -166 -23t-94 -77h354q16 -27 16 -78 q0 -57 -33 -92t-100 -35h-278q0 -25 4 -71h391q16 -27 16 -78q0 -57 -33 -92t-100 -35h-205q78 -94 256 -94q87 0 158.5 7t99.5 14l29 7q17 -35 17 -92q0 -72 -19.5 -121.5t-67 -87t-132.5 -55.5t-211 -18q-227 0 -388 114.5t-225 325.5h-186q-17 27 -17 78z" />
<glyph unicode="&#x2122;" horiz-adv-x="1826" d="M154 1229q0 45 26.5 71.5t79.5 26.5h549q14 -24 14 -61q0 -45 -27 -75t-79 -30h-119v-479q-41 -29 -102 -29q-54 0 -85.5 29t-31.5 88v391h-211q-14 31 -14 68zM864 770v543q66 30 146 30q106 0 157 -43.5t70 -144.5l35 -188h4l80 346q57 28 123 28q194 0 194 -176v-483 q-29 -29 -90 -29q-54 0 -88 30t-31 87l15 348h-4l-105 -436q-37 -29 -98 -29q-51 0 -81.5 28t-43.5 89l-80 348h-4l10 -436q-29 -29 -90 -29q-54 0 -86.5 29t-32.5 88z" />
<glyph unicode="&#x25fc;" horiz-adv-x="1034" d="M0 0v1034h1034v-1034h-1034z" />
<glyph unicode="&#xfb01;" horiz-adv-x="1210" d="M72 -195v1305q0 185 106 277t346 92q138 0 218.5 -27.5t110.5 -75t30 -125.5q0 -25 -4.5 -47t-8.5 -32l-4 -9q-106 4 -262 4q-64 0 -88 -20.5t-24 -73.5v-74h583v-614q0 -94 76 -94l33 2q16 -31 16 -88q0 -95 -69 -160t-193 -65q-283 0 -283 311v393h-163v-1053 q-9 -6 -25 -15.5t-67 -25.5t-103 -16q-105 0 -165 56.5t-60 174.5z" />
<glyph unicode="&#xfb02;" horiz-adv-x="1374" d="M72 -195v1260q0 231 137.5 347t447.5 116q305 0 443.5 -116.5t138.5 -346.5v-680q0 -94 76 -94l33 2q16 -31 16 -88q0 -95 -69 -160t-193 -65q-283 0 -283 311v774q0 80 -37.5 116t-124.5 36q-89 0 -127 -36.5t-38 -115.5v-66h243q29 -46 29 -120q0 -89 -53.5 -142 t-161.5 -53h-57v-1053q-9 -6 -25 -15.5t-67 -25.5t-103 -16q-105 0 -165 56.5t-60 174.5z" />
</font>
</defs>
</svg>
