<?xml version="1.0" standalone="no"?>
<!DOCTYPE svg PUBLIC "-//W3C//DTD SVG 1.1//EN" "http://www.w3.org/Graphics/SVG/1.1/DTD/svg11.dtd" >
<svg xmlns="http://www.w3.org/2000/svg">
<metadata></metadata>
<defs>
<font id="telcelregular" horiz-adv-x="1103" >
<font-face units-per-em="2048" ascent="1583" descent="-465" />
<missing-glyph horiz-adv-x="522" />
<glyph horiz-adv-x="2048" />
<glyph horiz-adv-x="2048" />
<glyph unicode="&#xd;" horiz-adv-x="2048" />
<glyph unicode=" "  horiz-adv-x="522" />
<glyph unicode="&#x09;" horiz-adv-x="522" />
<glyph unicode="&#xa0;" horiz-adv-x="522" />
<glyph unicode="!" horiz-adv-x="591" d="M205 8v76q0 52 30 76t78 24q20 0 39 -4.5t28 -9.5l9 -4v-78q0 -100 -110 -100q-19 0 -37.5 5t-27.5 10zM227 1335q-3 90 80 90q18 0 36.5 -4.5t28.5 -8.5l9 -5l-10 -897q-3 -90 -82 -90q-15 0 -27.5 4.5t-17.5 9.5l-6 4z" />
<glyph unicode="&#x22;" horiz-adv-x="802" d="M188 1026v340q0 94 103 94q17 0 34 -4.5t25 -9.5l8 -4l-39 -330q-11 -92 -100 -92q-8 0 -15.5 1.5t-11.5 2.5zM485 1026v340q0 94 103 94q17 0 34 -4.5t25 -9.5l8 -4l-39 -330q-11 -92 -100 -92q-8 0 -15.5 1.5t-11.5 2.5z" />
<glyph unicode="#" horiz-adv-x="1974" d="M225 375q0 78 84 78h316l127 272h-516q-11 16 -11 49q0 78 84 78h502l307 657q26 60 74 60q30 0 51.5 -13.5t28.5 -26.5l6 -13l-877 -1883q-28 -57 -75 -57q-30 0 -51.5 13t-28.5 25l-6 13l325 699h-329q-11 16 -11 49zM676 -373l876 1882q29 60 76 60q30 0 51.5 -13.5 t28.5 -26.5l6 -13l-309 -664h336q10 -16 10 -49q0 -36 -21 -57t-63 -21h-324l-126 -272h524q10 -17 10 -50q0 -35 -20.5 -56t-63.5 -21h-510l-321 -693q-28 -57 -74 -57q-30 0 -51.5 13t-28.5 25z" />
<glyph unicode="$" horiz-adv-x="1226" d="M174 885q0 154 95.5 233.5t293.5 93.5v281q27 18 62 18q82 0 82 -90v-207q313 -8 313 -118q0 -15 -3 -28.5t-6 -19.5l-3 -6q-119 37 -326 37q-198 0 -279 -46t-81 -154q0 -106 73 -160t242 -66q159 -13 249 -46t128.5 -91t38.5 -154q0 -322 -346 -372v-305 q-27 -17 -64 -17q-80 0 -80 90v224q-166 3 -245.5 27.5t-79.5 82.5q0 15 2 25.5t4 14.5l2 3q108 -31 311 -31q189 0 270.5 61t81.5 175q0 67 -25 104t-94 59.5t-202 31.5q-211 15 -312.5 102t-101.5 248z" />
<glyph unicode="%" horiz-adv-x="2134" d="M225 840q0 189 90 283t252 94q344 0 344 -377q0 -184 -93 -303t-251 -119q-161 0 -251.5 118t-90.5 304zM354 838q0 -154 55.5 -234t157.5 -80q105 0 159 79.5t54 234.5q0 142 -51.5 204t-161.5 62q-106 0 -159.5 -62.5t-53.5 -203.5zM467 -207l1001 1573q28 43 66 43 q25 0 48.5 -16.5t29.5 -40.5l-1002 -1573q-28 -43 -65 -43q-25 0 -48.5 16.5t-29.5 40.5zM1225 406q0 190 90 283t252 93q344 0 344 -376q0 -184 -93 -303t-251 -119q-161 0 -251.5 118t-90.5 304zM1354 403q0 -153 55.5 -233t157.5 -80q104 0 158.5 79.5t54.5 233.5 q0 144 -52 206.5t-161 62.5q-106 0 -159.5 -63.5t-53.5 -205.5z" />
<glyph unicode="&#x26;" horiz-adv-x="1558" d="M154 418q0 189 87 286t218 97q90 0 174 -41l2 4l-84 98q-54 65 -83.5 125t-29.5 129q0 121 86.5 176.5t274.5 55.5q122 0 187 -12.5t85.5 -33.5t20.5 -59q0 -15 -3 -28t-7 -19l-3 -6q-86 20 -254 20q-133 0 -186 -26.5t-53 -87.5q0 -42 19 -78.5t65 -91.5l307 -361h4 l315 449q11 2 19 2q36 0 60 -22t24 -54q0 -26 -23 -61l-307 -412l387 -453q-27 -28 -82 -28q-45 0 -73 15t-60 54l-256 295h-2l-90 -123q-95 -131 -179 -186t-198 -55q-156 0 -259 120t-103 312zM303 418q0 -140 64.5 -224.5t154.5 -84.5q73 0 131 44.5t154 176.5l90 125 l-111 123q-55 61 -116.5 92.5t-145.5 31.5q-103 0 -162 -70t-59 -214z" />
<glyph unicode="'" horiz-adv-x="505" d="M188 1026v340q0 94 103 94q17 0 34 -4.5t25 -9.5l8 -4l-39 -330q-11 -92 -100 -92q-8 0 -15.5 1.5t-11.5 2.5z" />
<glyph unicode="(" horiz-adv-x="1030" d="M311 573q0 215 24 386.5t66 285t100.5 188.5t125 107.5t143.5 32.5q104 0 104 -84q0 -15 -3 -28.5t-6 -20.5l-3 -6q-26 2 -57 2q-55 0 -103 -25t-93 -87t-76.5 -158t-50.5 -247.5t-19 -345.5q0 -241 28 -415.5t77.5 -269t108 -137t128.5 -42.5l57 2q12 -20 12 -55 q0 -82 -104 -82q-77 0 -143.5 32.5t-125 107.5t-100.5 188.5t-66 284.5t-24 386z" />
<glyph unicode=")" horiz-adv-x="1030" d="M158 -344q0 16 3 29.5t6 19.5l3 6q24 -2 57 -2q55 0 102.5 25t92 87.5t76 158.5t50.5 247.5t19 345.5t-19 345.5t-50.5 247.5t-76 158t-92 87t-102.5 25l-57 -2q-12 22 -12 55q0 84 104 84q77 0 143.5 -32.5t125 -107.5t100.5 -188.5t66 -285t24 -386.5t-24 -386 t-66 -284.5t-100.5 -188.5t-125 -107.5t-143.5 -32.5q-104 0 -104 82z" />
<glyph unicode="*" horiz-adv-x="970" d="M135 940q0 43 48 84t103.5 63.5t98.5 28.5q-34 49 -96 101q-51 40 -117 59q0 8 2 18q5 30 23 51t47 21q59 0 123.5 -62t95.5 -126q43 63 67 122q21 57 21 130q18 6 45 6q68 -6 68 -84q0 -57 -35 -121t-80 -109q84 -26 149 -26q57 0 117 20q23 -20 23 -61 q0 -39 -36.5 -59.5t-92.5 -20.5q-46 0 -100 16t-89 35q4 -169 78 -258q-2 -4 -6.5 -10.5t-21.5 -17.5t-38 -13q-32 -4 -56.5 21t-37 64.5t-18.5 75.5t-6 64q0 32 8 68q-68 -22 -129 -61.5t-94 -90.5q-3 0 -7 1.5t-15 6.5t-19.5 12t-15.5 21t-7 31z" />
<glyph unicode="+" horiz-adv-x="1669" d="M225 573q0 36 21 58t63 22h461v525q18 10 49 10q36 0 58 -21t22 -63v-451h537q10 -18 10 -49q0 -36 -21 -58t-63 -22h-463v-530q-18 -10 -49 -10q-36 0 -58 21t-22 63v456h-534q-11 16 -11 49z" />
<glyph unicode="," horiz-adv-x="593" d="M76 -154q4 1 11 4t27.5 16t39 31.5t41 54t38.5 79.5q20 54 26.5 101.5t2.5 67.5l-4 21q18 10 51 10q94 0 94 -112q0 -126 -83.5 -227t-167.5 -101q-21 0 -37 5.5t-23 13.5t-11 16.5t-5 13.5v6z" />
<glyph unicode="-" horiz-adv-x="909" d="M147 580q0 36 20.5 56.5t63.5 20.5h521q10 -16 10 -49q0 -36 -21 -57t-63 -21h-520q-11 17 -11 50z" />
<glyph unicode="." horiz-adv-x="538" d="M178 8v82q0 98 109 98q20 0 38.5 -4.5t27.5 -9.5l9 -4v-82q0 -100 -110 -100q-19 0 -37.5 5t-27.5 10z" />
<glyph unicode="/" horiz-adv-x="1269" d="M117 -373l876 1882q29 60 76 60q30 0 51.5 -13.5t27.5 -26.5l7 -13l-879 -1883q-28 -57 -73 -57q-30 0 -51.5 13t-27.5 25z" />
<glyph unicode="0" horiz-adv-x="1273" d="M123 633q0 301 127.5 442.5t384.5 141.5q262 0 389 -141t127 -443q0 -292 -142 -470.5t-374 -178.5q-236 0 -374 177.5t-138 471.5zM272 629q0 -238 97 -380.5t266 -142.5q171 0 268.5 142t97.5 381t-93.5 348.5t-272.5 109.5q-363 0 -363 -458z" />
<glyph unicode="1" horiz-adv-x="724" d="M113 1096q0 75 84 75h274v-1165q-26 -18 -63 -18q-80 0 -80 90v971h-205q-10 16 -10 47z" />
<glyph unicode="2" horiz-adv-x="1187" d="M72 0l633 670q83 89 111 140t28 108q0 54 -27 87t-102 52.5t-207 19.5q-100 0 -187.5 -13.5t-124.5 -27.5l-38 -14q-8 18 -8 51q0 144 368 144q177 0 281.5 -30.5t150 -91t45.5 -161.5q0 -85 -39 -159.5t-149 -190.5l-440 -459h610q84 0 84 -76q0 -15 -2.5 -27t-4.5 -17 l-3 -5h-979z" />
<glyph unicode="3" horiz-adv-x="1165" d="M113 1073q0 31 13.5 54.5t49.5 45t109 33t180 11.5q274 0 390 -76t116 -254q0 -135 -79 -233t-224 -128v-2q159 -11 234 -83.5t75 -219.5q0 -202 -125 -320t-350 -118q-163 0 -240.5 25.5t-77.5 80.5q0 14 1.5 24.5t2.5 14.5l2 4q101 -26 285 -26q177 0 266.5 80.5 t89.5 224.5q0 135 -80.5 182t-304.5 47q-98 0 -98 78q0 14 2.5 25.5t5.5 16.5l2 5l64 -2q188 0 293.5 77.5t105.5 217.5q0 117 -81.5 168t-284.5 51q-98 0 -181.5 -13.5t-117.5 -27.5l-35 -14q-8 18 -8 51z" />
<glyph unicode="4" horiz-adv-x="1333" d="M41 233l797 1090q26 16 61 16q82 0 82 -90v-893h293q10 -16 10 -47q0 -76 -84 -76h-219v-352q-26 -16 -63 -16q-80 0 -80 90v278h-797zM285 356h553v742z" />
<glyph unicode="5" horiz-adv-x="1150" d="M174 768v403h801q10 -16 10 -47q0 -75 -84 -75h-584v-258q0 -112 56 -165t184 -53q171 0 271 -39t140 -114t40 -199q0 -202 -125.5 -320t-350.5 -118q-162 0 -239.5 25.5t-77.5 80.5q0 14 1.5 24.5t3.5 14.5l1 4q101 -26 285 -26q177 0 266.5 80.5t89.5 224.5 q0 128 -75.5 177.5t-268.5 49.5q-163 0 -253.5 89t-90.5 241z" />
<glyph unicode="6" horiz-adv-x="1218" d="M133 510q0 133 49.5 258.5t151.5 265.5l309 426q13 2 23 2q36 0 59 -22.5t23 -55.5q0 -31 -23 -61l-317 -408l4 -2q36 34 113 70.5t167 36.5q186 0 296 -123.5t110 -368.5q0 -238 -138 -391t-348 -153q-219 0 -349 143.5t-130 382.5zM283 508q0 -198 91.5 -300 t237.5 -102t241 111t95 309q0 189 -82.5 280t-232.5 91q-152 0 -251 -107.5t-99 -281.5z" />
<glyph unicode="7" horiz-adv-x="1085" d="M41 1124q0 14 2.5 25.5t4.5 16.5l3 5h983l-698 -1409q-6 -2 -25 -2q-35 0 -59.5 21t-24.5 57q0 25 17 58l575 1153h-694q-84 0 -84 75z" />
<glyph unicode="8" horiz-adv-x="1208" d="M143 1063q0 158 118 256t343 98t344 -98t119 -256q0 -124 -81.5 -220.5t-203.5 -121.5v-2q124 -18 201.5 -105t77.5 -223q0 -180 -130 -293.5t-327 -113.5q-201 0 -327.5 113t-126.5 294q0 135 77.5 222.5t198.5 105.5v2q-121 25 -202 121.5t-81 220.5zM293 1032 q0 -106 85.5 -186t225.5 -80q137 0 224 80.5t87 185.5q0 256 -311 256q-154 0 -232.5 -66t-78.5 -190zM295 389q0 -132 86 -207.5t223 -75.5t224 75.5t87 207.5q0 258 -311 258q-154 0 -231.5 -66.5t-77.5 -191.5z" />
<glyph unicode="9" horiz-adv-x="1220" d="M127 684q0 128 38 230.5t104.5 168t156.5 100t195 34.5q220 0 346.5 -137.5t126.5 -381.5q0 -143 -49 -266.5t-152 -265.5l-311 -426q-11 -2 -21 -2q-38 0 -61 21.5t-23 54.5q0 35 23 61l317 410l-2 2q-15 -14 -36 -28.5t-55 -33.5t-80 -31t-93 -12q-180 0 -302 133.5 t-122 368.5zM276 686q0 -181 87.5 -282t230.5 -101q151 0 250.5 108t99.5 281q0 199 -89 297t-234 98q-71 0 -131 -22.5t-109 -68.5t-77 -125.5t-28 -184.5z" />
<glyph unicode=":" horiz-adv-x="538" d="M178 8v82q0 98 109 98q20 0 38.5 -4.5t27.5 -9.5l9 -4v-82q0 -100 -110 -100q-19 0 -37.5 5t-27.5 10zM178 639v82q0 52 30 76t79 24q20 0 38.5 -4.5t27.5 -8.5l9 -5v-82q0 -100 -110 -100q-19 0 -37.5 4.5t-27.5 8.5z" />
<glyph unicode=";" horiz-adv-x="589" d="M76 -154q4 1 11 4t27.5 16t39 31.5t41 54t38.5 79.5q20 54 26.5 101.5t2.5 67.5l-4 21q18 10 51 10q94 0 94 -112q0 -126 -83.5 -227t-167.5 -101q-21 0 -37 5.5t-23 13.5t-11 16.5t-5 13.5v6zM205 639v82q0 100 110 100q19 0 37.5 -4.5t27.5 -8.5l9 -5v-82 q0 -52 -30 -76t-78 -24q-20 0 -39 4.5t-28 8.5z" />
<glyph unicode="&#x3c;" horiz-adv-x="1482" d="M266 584l828 596q2 -1 6 -2.5t13.5 -7.5t16.5 -14.5t13 -23t6 -32.5q0 -41 -41 -68l-631 -450l680 -508q0 -3 -1.5 -9t-7 -20.5t-13.5 -25.5t-23.5 -20t-34.5 -9q-31 0 -53 20z" />
<glyph unicode="=" horiz-adv-x="1667" d="M328 375q0 36 21 57t63 21h919q10 -17 10 -50q0 -35 -20.5 -56t-63.5 -21h-919q-10 16 -10 49zM328 774q0 36 21 57t63 21h919q10 -16 10 -49q0 -36 -21 -57t-63 -21h-919q-10 16 -10 49z" />
<glyph unicode="&#x3e;" horiz-adv-x="1482" d="M328 1096q0 3 1.5 9t6.5 20.5t13 25.5t23 20t34 9q25 0 55 -21l758 -573l-828 -596q-2 1 -6 2.5t-13.5 7.5t-16.5 14.5t-13 23t-6 32.5q0 38 39 67l631 451z" />
<glyph unicode="?" horiz-adv-x="784" d="M18 1313q0 38 22.5 61t91 37t190.5 14q216 0 327 -77t111 -246q0 -124 -62 -213t-184 -152q-63 -34 -81.5 -62.5t-18.5 -88.5v-76q0 -90 -80 -90q-16 0 -32 4.5t-24 9.5l-8 4v197q0 65 30 103t108 79q112 60 158 118.5t46 151.5q0 105 -72.5 153t-242.5 48 q-75 0 -141.5 -7t-95.5 -14l-29 -7q-13 20 -13 53zM252 8v76q0 52 30 76t78 24q20 0 39 -4.5t28 -9.5l9 -4v-78q0 -100 -110 -100q-19 0 -37.5 5t-27.5 10z" />
<glyph unicode="@" horiz-adv-x="1968" d="M246 449q0 273 159.5 416t462.5 143q219 0 309.5 -63.5t90.5 -209.5v-334q0 -74 18.5 -108.5t71.5 -34.5q44 0 84 23t75.5 71.5t56.5 136t21 203.5q0 150 -34.5 252.5t-114 171.5t-207 100t-315.5 31q-106 0 -200.5 -6t-153.5 -14.5t-102.5 -17.5t-61.5 -15l-19 -6 q-8 14 -8 45q0 135 555 135q216 0 367.5 -41.5t244.5 -127.5t135.5 -209.5t42.5 -295.5q0 -137 -31 -243.5t-84 -170.5t-118.5 -96t-140.5 -32q-102 0 -152 45.5t-55 121.5h-4q-26 -70 -93 -121t-163 -51q-97 0 -165.5 64t-68.5 178q0 128 80.5 192t212.5 64q105 0 199 -29 v117q0 89 -58 124.5t-206 35.5q-254 0 -379 -109t-125 -335q0 -137 35 -237.5t111.5 -173t202 -108.5t302.5 -36q168 0 297.5 15t174.5 29l46 15q8 -12 8 -45q0 -21 -14 -39.5t-51 -36t-94.5 -30t-150.5 -20t-214 -7.5q-207 0 -358 45.5t-243 134t-135.5 210.5t-43.5 284z M776 403q0 -68 38.5 -106.5t105.5 -38.5q99 0 160 69.5t61 184.5v25q-74 24 -174 24q-191 0 -191 -158z" />
<glyph unicode="A" horiz-adv-x="1314" d="M61 61q0 23 11 45l493 1209q39 18 90 18q116 0 164 -123l457 -1206q-31 -18 -70 -18q-49 0 -74.5 20t-44.5 70l-147 389h-563l-184 -469q-23 -8 -52 -8q-35 0 -57.5 20.5t-22.5 52.5zM424 594h473l-225 602l-4 2z" />
<glyph unicode="B" horiz-adv-x="1187" d="M174 41v1266h514q324 0 324 -279q0 -64 -21 -119.5t-54.5 -92t-67.5 -60t-68 -35.5v-2q128 -6 209.5 -83t81.5 -226q0 -193 -136 -311t-389 -119h-13q-104 0 -196 14q-98 16 -142 32zM324 143q93 -34 243 -34q181 0 275 79.5t94 217.5q0 112 -61.5 165.5t-188.5 53.5 h-362v-482zM324 754h256q129 0 202.5 64t73.5 171q0 101 -50.5 145t-162.5 44h-319v-424z" />
<glyph unicode="C" horiz-adv-x="1155" d="M113 694q0 171 43 298.5t122 204.5t184.5 114t237.5 37q121 0 200.5 -8.5t119.5 -26t55 -37.5t15 -49q0 -16 -3 -29t-7 -18l-3 -6q-129 32 -352 32q-226 0 -341.5 -122.5t-115.5 -387.5q0 -291 126.5 -436t355.5 -145q94 0 168 7.5t102 15.5l27 7q6 -12 6 -45 q0 -116 -332 -116q-281 0 -444.5 185.5t-163.5 524.5z" />
<glyph unicode="D" horiz-adv-x="1331" d="M174 41v1266h479q284 0 426 -141t142 -453q0 -355 -180 -542t-509 -187q-102 0 -191.5 14t-128.5 28zM324 141q85 -28 208 -28q259 0 396 146t137 437q0 136 -26.5 228t-84.5 148.5t-142 81t-206 24.5h-282v-1037z" />
<glyph unicode="E" d="M174 0v1307h799q10 -17 10 -50q0 -36 -21 -57.5t-63 -21.5h-575v-439h628q11 -18 11 -49q0 -36 -21 -58t-63 -22h-555v-481h669q11 -16 11 -49q0 -36 -21 -58t-63 -22h-746z" />
<glyph unicode="F" horiz-adv-x="1073" d="M174 82v1229h799q10 -16 10 -49q0 -36 -21 -58t-63 -22h-575v-439h628q11 -18 11 -49q0 -36 -21 -58t-63 -22h-555v-604q-27 -18 -66 -18q-84 0 -84 90z" />
<glyph unicode="G" horiz-adv-x="1302" d="M113 694q0 171 44.5 298.5t126 204.5t188.5 114t239 37q160 0 254 -16.5t125.5 -41.5t31.5 -63q0 -16 -3 -29t-6 -18l-3 -6q-152 32 -375 32q-467 0 -467 -510q0 -290 126 -435.5t356 -145.5q77 0 143.5 7.5t94.5 15.5l28 7v437h-295q-10 16 -10 49q0 36 21 58t63 22h366 v-664q-17 -7 -50.5 -17.5t-147.5 -28t-242 -17.5q-281 0 -444.5 185.5t-163.5 524.5z" />
<glyph unicode="H" horiz-adv-x="1359" d="M174 78v1239q25 18 66 18q84 0 84 -90v-506h714v578q25 18 66 18q84 0 84 -90v-1239q-27 -18 -66 -18q-84 0 -84 90v532h-714v-604q-27 -18 -66 -18q-84 0 -84 90z" />
<glyph unicode="I" horiz-adv-x="495" d="M174 78v1239q25 18 66 18q84 0 84 -90v-1239q-27 -18 -66 -18q-84 0 -84 90z" />
<glyph unicode="J" horiz-adv-x="909" d="M61 98q0 14 1.5 25.5t3.5 16.5l2 5q87 -30 243 -30q159 0 223 53.5t64 196.5v952q25 18 66 18q84 0 84 -90v-887q0 -202 -94.5 -288t-303.5 -86q-158 0 -223.5 29t-65.5 85z" />
<glyph unicode="K" horiz-adv-x="1241" d="M174 78v1239q25 18 66 18q84 0 84 -90v-522h247q49 0 66.5 10.5t40.5 48.5l319 541h39q34 0 56 -22t22 -54q0 -26 -18 -53l-312 -496q186 -11 242 -211l129 -481q-27 -18 -68 -18q-84 0 -106 92l-104 385q-19 69 -61 99t-126 30h-366v-588q-27 -18 -66 -18q-84 0 -84 90z " />
<glyph unicode="L" horiz-adv-x="1073" d="M174 0v1317q25 18 66 18q84 0 84 -90v-1116h669q11 -16 11 -49q0 -36 -21 -58t-63 -22h-746z" />
<glyph unicode="M" horiz-adv-x="1701" d="M174 78v1227q39 30 94 30q65 0 106 -28.5t66 -89.5l412 -1049h2l455 1143q35 24 86 24q60 0 97.5 -35t37.5 -92v-1202q-27 -18 -66 -18q-84 0 -84 84v6l11 1063h-2l-449 -1123q-29 -28 -82 -28q-84 0 -119 86l-422 1065h-4l11 -1135q-27 -18 -66 -18q-84 0 -84 90z" />
<glyph unicode="N" horiz-adv-x="1402" d="M174 78v1227q41 30 96 30q54 0 90 -24.5t68 -73.5l657 -1061h2l-8 1141q27 18 66 18q84 0 84 -90l-2 -1227q-35 -30 -90 -30q-103 0 -166 102l-656 1057h-2l11 -1141q-27 -18 -66 -18q-84 0 -84 90z" />
<glyph unicode="O" horiz-adv-x="1394" d="M113 694q0 141 29 252.5t80.5 186t125.5 123.5t160 70.5t188 21.5q106 0 193.5 -21.5t162 -70.5t125 -124t79 -186t28.5 -252q0 -168 -45 -304t-124.5 -224t-186 -135t-230.5 -47q-262 0 -423.5 187t-161.5 523zM268 694q0 -142 33.5 -254.5t92.5 -183.5t136.5 -108 t167.5 -37q88 0 165 37t136.5 108t94 183.5t34.5 254.5q0 272 -114.5 396t-317.5 124q-93 0 -168 -28.5t-134.5 -88t-92.5 -162t-33 -241.5z" />
<glyph unicode="P" horiz-adv-x="1136" d="M174 78v1229h553q156 0 247 -91.5t91 -250.5q0 -199 -118.5 -307.5t-315.5 -108.5h-307v-543q-27 -18 -66 -18q-84 0 -84 90zM324 678h303q131 0 206.5 67.5t75.5 192.5q0 240 -223 240h-362v-500z" />
<glyph unicode="Q" horiz-adv-x="1398" d="M113 694q0 141 29 252.5t80.5 186t125.5 123.5t160 70.5t188 21.5q106 0 193.5 -21.5t161.5 -70.5t125 -123t79.5 -183t28.5 -248q0 -96 -20 -182t-52 -148t-74.5 -112t-84.5 -80t-84 -47v-4h280q42 0 63 -22t21 -58q0 -15 -2.5 -27t-4.5 -17l-3 -5h-625 q-264 0 -424.5 180t-160.5 514zM268 694q0 -279 120 -423t310 -144q87 0 163.5 36t136.5 104.5t95 178.5t35 248q0 272 -114.5 396t-317.5 124q-93 0 -168 -28.5t-134.5 -88t-92.5 -162t-33 -241.5z" />
<glyph unicode="R" horiz-adv-x="1241" d="M174 78v1229h549q162 0 247 -73.5t85 -217.5q0 -70 -23 -129t-59.5 -97.5t-74 -62.5t-75.5 -35v-4q81 -10 128.5 -58t74.5 -143l129 -481q-27 -18 -68 -18q-84 0 -106 92l-104 385q-19 69 -61 99t-126 30h-366v-588q-27 -18 -66 -18q-84 0 -84 90zM324 723h290 q129 0 207 68.5t78 183.5q0 106 -53.5 154.5t-169.5 48.5h-352v-455z" />
<glyph unicode="S" horiz-adv-x="1144" d="M106 981q0 192 124.5 279.5t375.5 87.5q120 0 199.5 -9t119.5 -27t55 -38.5t15 -50.5q0 -15 -3 -28.5t-6 -19.5l-3 -6q-137 37 -350 37q-199 0 -285 -53t-86 -184q0 -116 79.5 -176t246.5 -70q177 -12 276 -50t136.5 -100.5t37.5 -166.5q0 -92 -24.5 -165t-78.5 -132.5 t-150.5 -92t-229.5 -32.5q-373 0 -373 129q0 14 1.5 25t2.5 16l2 4q15 -5 43 -12t118.5 -19t185.5 -12q354 0 354 262q0 58 -13 93.5t-51.5 63.5t-106.5 42t-179 22q-433 29 -433 383z" />
<glyph unicode="T" horiz-adv-x="1206" d="M35 1227q0 36 21 58t63 22h1042q10 -19 10 -50q0 -36 -21 -57.5t-63 -21.5h-409v-1172q-25 -18 -66 -18q-84 0 -84 90v1100h-483q-10 16 -10 49z" />
<glyph unicode="U" horiz-adv-x="1374" d="M174 438v879q25 18 66 18q84 0 84 -90v-803q0 -152 97 -241.5t275 -89.5q174 0 265.5 89t91.5 242v875q24 18 65 18q84 0 84 -90v-807q0 -202 -130 -328t-376 -126q-128 0 -228.5 34.5t-164 96.5t-96.5 144t-33 179z" />
<glyph unicode="V" horiz-adv-x="1341" d="M55 1317q31 18 70 18q49 0 74.5 -20t44.5 -72l428 -1120h4l465 1202q22 6 51 6q35 0 56.5 -19.5t21.5 -51.5q0 -25 -8 -46l-484 -1208q-39 -18 -90 -18q-119 0 -164 123z" />
<glyph unicode="W" horiz-adv-x="1935" d="M82 1317q22 18 61 18q49 0 75 -20.5t38 -71.5l260 -1120h2l381 1200q18 12 55 12q50 0 79 -21t44 -71l330 -1120h4l307 1200q22 8 51 8q37 0 59.5 -21.5t22.5 -56.5q0 -20 -6 -41l-321 -1206q-41 -18 -94 -18q-128 0 -164 123l-291 987h-4l-344 -1092q-40 -18 -95 -18 q-133 0 -161 125z" />
<glyph unicode="X" horiz-adv-x="1312" d="M61 16l508 664l-471 627q27 28 80 28q52 0 81.5 -15t57.5 -54l345 -471h4l409 551q15 2 25 2q39 0 63.5 -22t24.5 -54q0 -36 -23 -62l-409 -528l497 -666q-31 -28 -84 -28q-86 0 -135 69l-372 508h-3l-387 -512q-28 -37 -57 -51t-78 -14q-24 0 -43 7t-26 14z" />
<glyph unicode="Y" horiz-adv-x="1273" d="M31 1307q27 28 80 28q52 0 81.5 -15t57.5 -54l397 -543h2l463 623q11 2 23 2q40 0 64 -22t24 -54q0 -34 -21 -62l-481 -624v-580q-25 -18 -66 -18q-84 0 -84 90v506z" />
<glyph unicode="Z" horiz-adv-x="1185" d="M41 0l840 1178h-684q-42 0 -63 21.5t-21 57.5q0 15 2.5 27.5t4.5 17.5l3 5h1022l-840 -1178h731q42 0 63 -22t21 -58q0 -15 -2.5 -27t-5.5 -17l-2 -5h-1069z" />
<glyph unicode="[" horiz-adv-x="997" d="M379 -410v1962h455q10 -16 10 -49q0 -76 -84 -76h-238v-1714h238q84 0 84 -75q0 -14 -2.5 -26t-5.5 -17l-2 -5h-455z" />
<glyph unicode="\" horiz-adv-x="1269" d="M117 1516q1 2 2.5 5.5t8.5 13t15.5 16.5t24.5 12.5t35 5.5q44 0 73 -60l879 -1882q-1 -2 -2.5 -5.5t-8.5 -12.5t-15.5 -15.5t-24.5 -12t-35 -5.5q-48 0 -76 57z" />
<glyph unicode="]" horiz-adv-x="997" d="M154 -362q0 75 84 75h237v1714h-237q-84 0 -84 76q0 15 2.5 27t5.5 17l2 5h454v-1962h-454q-10 17 -10 48z" />
<glyph unicode="_" horiz-adv-x="950" d="M-90 -360q0 36 21 56.5t63 20.5h1036q10 -16 10 -49q0 -36 -21 -57t-63 -21h-1036q-10 17 -10 50z" />
<glyph unicode="`" horiz-adv-x="561" d="M121 1495q0 109 92 109q15 0 28.5 -3t20.5 -5l6 -3q-2 -8 -4.5 -23.5t2 -63.5t23.5 -97q14 -39 35 -70t40.5 -47t37 -26.5t28.5 -13.5l10 -3q0 -2 -0.5 -5.5t-4.5 -13t-11 -16.5t-22.5 -12.5t-36.5 -5.5q-83 0 -163.5 89.5t-80.5 209.5z" />
<glyph unicode="a" horiz-adv-x="989" d="M94 266q0 152 98 226.5t259 74.5q121 0 243 -35v154q0 112 -57.5 154.5t-218.5 42.5q-71 0 -136 -7.5t-94 -15.5l-30 -8q-8 16 -8 51q0 39 27 63.5t99 39t195 14.5q189 0 278 -70.5t89 -238.5v-705q-27 -18 -64 -18q-80 0 -80 90v117h-4q-32 -87 -112.5 -150t-198.5 -63 t-201.5 75t-83.5 209zM240 285q0 -83 50.5 -131t131.5 -48q119 0 195.5 84t76.5 226v26q-91 31 -215 31q-239 0 -239 -188z" />
<glyph unicode="b" horiz-adv-x="1085" d="M133 371v1036q25 18 62 18q81 0 81 -90v-430q137 115 318 115q82 0 151 -27.5t123 -83.5t84.5 -151t30.5 -221q0 -253 -130 -405t-333 -152q-186 0 -286.5 102.5t-100.5 288.5zM276 391q0 -295 246 -295q138 0 225 108.5t87 303.5q0 207 -77.5 298t-221.5 91 q-134 0 -259 -84v-422z" />
<glyph unicode="c" horiz-adv-x="909" d="M102 530q0 247 120 368.5t333 121.5q114 0 176.5 -12t84.5 -33.5t22 -59.5q0 -16 -3 -28.5t-5 -17.5l-3 -5q-114 19 -245 19q-167 0 -248.5 -83t-81.5 -272q0 -214 92.5 -318t263.5 -104q61 0 107.5 3t62.5 7l17 3q6 -12 6 -43q0 -46 -51 -69t-172 -23q-224 0 -350 149.5 t-126 396.5z" />
<glyph unicode="d" horiz-adv-x="1116" d="M102 492q0 253 122 390.5t323 137.5q149 0 274 -76v459q25 18 62 18q82 0 82 -90v-1325q-27 -18 -64 -18q-80 0 -80 90v117h-4q-31 -88 -114.5 -150.5t-210.5 -62.5q-185 0 -287.5 128.5t-102.5 381.5zM252 508q0 -402 274 -402q132 0 213.5 94t81.5 261v389 q-1 0 -17 6.5t-20.5 8t-21.5 7.5t-26.5 8.5t-26.5 7.5t-31 7t-31.5 5t-35.5 4t-36 1q-146 0 -234.5 -101.5t-88.5 -295.5z" />
<glyph unicode="e" horiz-adv-x="995" d="M102 530q0 246 118 368t319 122q181 0 277.5 -100t96.5 -265q0 -81 -16 -106t-72 -25h-573v-9q0 -192 87 -299q89 -110 269 -110q57 0 104 3t65 7l18 3q6 -12 6 -43q0 -46 -51 -69t-172 -23q-224 0 -350 149.5t-126 396.5zM258 627h516q1 15 1 29q0 100 -50 166 q-57 76 -182 75q-265 0 -285 -270z" />
<glyph unicode="f" horiz-adv-x="612" d="M143 -332v1544q0 246 258 246q187 0 187 -88q0 -14 -1.5 -24.5t-2.5 -14.5l-2 -4q-38 6 -136 6q-90 0 -124.5 -32.5t-34.5 -114.5v-207h305q10 -16 10 -49q0 -76 -84 -76h-231v-1260q-27 -16 -64 -16q-80 0 -80 90z" />
<glyph unicode="g" horiz-adv-x="1005" d="M102 680q0 159 94 249.5t230 90.5q69 0 124.5 -17t90.5 -45.5t57 -58t35 -63.5h2v86q0 86 82 86q16 0 31.5 -5t23.5 -9l7 -5v-299q0 -182 -101 -281.5t-291 -99.5q-67 0 -139 21q-57 -57 -57 -117q0 -59 43 -79q28 -12 90 -12q33 0 74 3q47 4 88 4q84 0 141 -15 q85 -23 118.5 -74t33.5 -138q0 -158 -112.5 -241t-336.5 -83q-144 0 -206 26t-62 83q0 14 1.5 24.5t2.5 14.5l2 4q88 -29 238 -29q178 0 252.5 46t74.5 136q0 35 -7 56.5t-27 38.5t-55 22.5t-90 7.5q-14 1 -31 1q-45 0 -103 -5q-24 -2 -46 -2q-99 0 -151 34q-63 41 -63 132 q0 96 100 201q-76 47 -117 128t-41 183zM248 672q0 -110 66 -178t182 -68t177.5 58.5t61.5 156.5q0 107 -74.5 180.5t-195.5 73.5q-96 0 -156.5 -58.5t-60.5 -164.5z" />
<glyph unicode="h" horiz-adv-x="1124" d="M154 78v1329q24 18 61 18q82 0 82 -90v-534h2q31 87 116 153t214 66q169 0 256.5 -93.5t87.5 -303.5v-617q-27 -18 -64 -18q-80 0 -80 90v526q0 158 -59 224.5t-180 66.5q-131 0 -212 -96.5t-81 -263.5v-529q-27 -18 -64 -18q-79 0 -79 90z" />
<glyph unicode="i" horiz-adv-x="481" d="M145 1245v88q0 92 95 92q16 0 32 -4.5t24 -8.5l7 -5v-88q0 -92 -94 -92q-16 0 -32 4.5t-24 8.5zM154 164v825q24 19 61 19q82 0 82 -90v-732q0 -49 18 -71.5t58 -22.5l33 2q6 -8 6 -26q0 -35 -28.5 -58.5t-82.5 -23.5q-147 0 -147 178z" />
<glyph unicode="j" horiz-adv-x="473" d="M-106 -334q0 14 1.5 24.5t2.5 14.5l2 4q30 -6 112 -6t113 32t31 111v1143q26 19 63 19q80 0 80 -90v-1094q0 -246 -242 -246q-84 0 -123.5 24t-39.5 64zM150 1245v88q0 92 94 92q16 0 31.5 -4.5t23.5 -8.5l8 -5v-88q0 -92 -94 -92q-16 0 -32 4.5t-23 8.5z" />
<glyph unicode="k" horiz-adv-x="1003" d="M154 78v1329q24 18 61 18q82 0 82 -90v-723h74q89 0 153.5 46.5t124.5 160.5q25 50 40.5 95.5t18.5 65.5l3 21q22 9 47 9q40 0 61 -21t21 -59q0 -100 -83 -203.5t-188 -140.5v-2q105 -9 165 -55.5t87 -143.5l101 -379q-29 -18 -64 -18q-82 0 -104 92l-74 282 q-20 72 -59.5 98.5t-120.5 26.5h-203v-481q-27 -18 -64 -18q-79 0 -79 90z" />
<glyph unicode="l" horiz-adv-x="481" d="M154 164v1243q24 18 61 18q82 0 82 -90v-1149q0 -49 18 -71.5t58 -22.5l33 2q6 -8 6 -26q0 -35 -28.5 -58.5t-82.5 -23.5q-147 0 -147 178z" />
<glyph unicode="m" horiz-adv-x="1800" d="M154 78v911q24 19 61 19q82 0 82 -90v-117h2q31 87 116 153t214 66q264 0 321 -229h4q40 105 133.5 167t217.5 62q169 0 256.5 -93.5t87.5 -303.5v-617q-27 -18 -64 -18q-80 0 -80 90v526q0 158 -59 224.5t-180 66.5q-131 0 -212 -96.5t-81 -263.5v-529q-27 -18 -64 -18 q-80 0 -80 90v526q0 158 -59 224.5t-180 66.5q-131 0 -212 -96.5t-81 -263.5v-529q-27 -18 -64 -18q-79 0 -79 90z" />
<glyph unicode="n" horiz-adv-x="1124" d="M154 78v911q24 19 61 19q82 0 82 -90v-117h2q31 87 116 153t214 66q169 0 256.5 -93.5t87.5 -303.5v-617q-27 -18 -64 -18q-80 0 -80 90v526q0 158 -59 224.5t-180 66.5q-131 0 -212 -96.5t-81 -263.5v-529q-27 -18 -64 -18q-79 0 -79 90z" />
<glyph unicode="o" d="M102 530q0 245 118.5 367.5t330.5 122.5q453 0 453 -490q0 -237 -124 -391.5t-329 -154.5q-142 0 -245 72.5t-153.5 195t-50.5 278.5zM252 528q0 -199 80.5 -310.5t218.5 -111.5q141 0 222 111.5t81 310.5q0 363 -303 363q-143 0 -221 -88.5t-78 -274.5z" />
<glyph unicode="p" horiz-adv-x="1105" d="M154 -332v1321q24 19 61 19q82 0 82 -90v-117h2q32 88 116 153.5t210 65.5q187 0 289 -127t102 -381q0 -253 -123 -392.5t-322 -139.5q-155 0 -274 75v-461q-27 -16 -64 -16q-39 0 -59 20.5t-20 69.5zM297 150q106 -42 180 -52q33 -4 66 -4q144 0 233.5 102t89.5 296 q0 205 -72 304t-204 99q-131 0 -212 -96.5t-81 -263.5v-385z" />
<glyph unicode="q" horiz-adv-x="1112" d="M102 492q0 257 125.5 392.5t354.5 135.5q101 0 196.5 -19.5t141.5 -38.5l45 -20v-1348q-27 -16 -64 -16q-80 0 -80 90v527h-4q-31 -88 -114.5 -150.5t-210.5 -62.5q-185 0 -287.5 128.5t-102.5 381.5zM252 508q0 -402 274 -402q132 0 213.5 94t81.5 261v403 q-10 5 -29.5 11.5t-83.5 18t-133 11.5q-146 0 -234.5 -101.5t-88.5 -295.5z" />
<glyph unicode="r" horiz-adv-x="741" d="M154 78v911q24 19 61 19q82 0 82 -90v-117h2q29 86 105 152.5t174 66.5q68 0 98.5 -24t30.5 -78q0 -15 -3.5 -28t-6.5 -18l-3 -6q-49 17 -133 17q-118 0 -191 -89t-73 -259v-529q-27 -18 -64 -18q-79 0 -79 90z" />
<glyph unicode="s" horiz-adv-x="890" d="M82 737q0 146 99.5 214.5t297.5 68.5q123 0 188 -12.5t85 -33.5t20 -59q0 -15 -3 -28t-6 -19l-3 -6q-90 21 -256 21q-154 0 -214.5 -33.5t-60.5 -118.5t54 -126t182 -50q187 -13 261.5 -68.5t74.5 -177.5q0 -151 -92 -239t-295 -88q-152 0 -214.5 25.5t-62.5 82.5 q0 14 1.5 24.5t3.5 14.5l1 4q88 -29 244 -29q151 0 210.5 45t59.5 138q0 53 -19 82t-70.5 45.5t-151.5 23.5q-163 11 -248.5 87t-85.5 212z" />
<glyph unicode="t" horiz-adv-x="667" d="M143 231v1010q25 19 62 19q82 0 82 -91v-190h325q11 -16 11 -49q0 -76 -84 -76h-252v-600q0 -81 31 -112t120 -31l135 4q7 -12 7 -43q0 -40 -47 -64t-144 -24q-129 0 -187.5 61.5t-58.5 185.5z" />
<glyph unicode="u" horiz-adv-x="1124" d="M154 379v610q24 19 61 19q82 0 82 -90v-521q0 -159 58.5 -225t179.5 -66q132 0 213 94t81 261v528q25 19 62 19q82 0 82 -90v-912q-2 -2 -9 -5.5t-22.5 -8t-32.5 -4.5q-80 0 -80 90v117h-4q-30 -87 -114.5 -150t-214.5 -63q-166 0 -254 94.5t-88 302.5z" />
<glyph unicode="v" horiz-adv-x="1052" d="M35 989q26 19 65 19q46 0 71 -21t46 -72l305 -792h2l340 872q18 9 45 9q35 0 56.5 -20t21.5 -54q0 -22 -10 -45l-356 -879q-33 -18 -86 -18q-57 0 -94 29.5t-62 93.5z" />
<glyph unicode="w" horiz-adv-x="1697" d="M66 989q26 19 63 19q47 0 74.5 -21.5t40.5 -71.5l211 -792h4l321 870q23 13 54 13q44 0 69.5 -21t42.5 -72l277 -790h4l260 872q20 9 47 9q35 0 56.5 -20t21.5 -54q0 -13 -8 -45l-277 -879q-35 -18 -86 -18q-59 0 -95.5 29.5t-58.5 93.5l-239 675h-4l-289 -780 q-35 -18 -86 -18q-119 0 -154 123z" />
<glyph unicode="x" horiz-adv-x="1036" d="M51 14l381 506l-344 459q25 29 78 29q45 0 73 -15.5t56 -54.5l225 -311q140 184 283 387q12 2 20 2q36 0 60 -22.5t24 -53.5q0 -36 -22 -61l-279 -359l379 -506q-27 -28 -80 -28q-45 0 -72.5 15t-54.5 54l-260 357l-260 -357q-30 -39 -56 -54t-71 -15q-24 0 -44 7t-28 14 z" />
<glyph unicode="y" horiz-adv-x="1052" d="M35 989q26 19 65 19q46 0 71 -21t46 -72l305 -792h2l340 872q18 9 45 9q35 0 56.5 -20t21.5 -54q0 -22 -10 -45l-356 -885q-100 -249 -162.5 -338.5t-159.5 -89.5q-21 0 -38 5t-26 12t-15 14.5t-8 12.5l-1 5q3 1 9 4t24 15.5t37 30t46 50t52 72.5q28 46 53.5 97t37.5 78 l11 28q-35 10 -59 37.5t-43 77.5z" />
<glyph unicode="z" horiz-adv-x="987" d="M35 0l637 854h-488q-84 0 -84 76q0 15 3 27t5 17l3 5h815l-635 -854h532q84 0 84 -76q0 -15 -2.5 -27t-4.5 -17l-3 -5h-862z" />
<glyph unicode="{" horiz-adv-x="962" d="M195 592q0 15 2.5 26.5t4.5 15.5l3 5q26 -2 63 -2q69 0 105.5 40t36.5 118v526q0 248 243 248q83 0 122.5 -24t39.5 -64q0 -14 -1.5 -24.5t-3.5 -14.5l-1 -4q-31 4 -111 4q-83 0 -114 -32t-31 -112v-471q0 -100 -33.5 -156.5t-103.5 -76.5v-2q72 -18 104.5 -68.5 t32.5 -148.5v-529q0 -80 31 -111.5t114 -31.5q36 0 63.5 1.5t37.5 3.5l10 1q6 -12 6 -43q0 -88 -162 -88q-243 0 -243 246v557q0 72 -28.5 102.5t-88.5 30.5q-98 0 -98 78z" />
<glyph unicode="|" horiz-adv-x="1206" d="M532 -332v1882q25 19 62 19q82 0 82 -90v-1885q-27 -16 -64 -16q-80 0 -80 90z" />
<glyph unicode="}" horiz-adv-x="962" d="M147 -334q0 14 1.5 24.5t3.5 14.5l2 4q30 -6 110 -6q83 0 114.5 32t31.5 111v484q0 197 137 237v4q-72 18 -104.5 67.5t-32.5 147.5v512q0 80 -31.5 112t-114.5 32l-110 -4q-7 12 -7 43q0 40 39.5 64t122.5 24q244 0 244 -248v-539q0 -73 28.5 -104t88.5 -31q98 0 98 -78 q0 -14 -2.5 -25.5t-5.5 -16.5l-2 -5q-27 2 -64 2q-141 0 -141 -157v-543q0 -246 -244 -246q-162 0 -162 88z" />
<glyph unicode="&#xa1;" horiz-adv-x="632" d="M233 829v78q0 52 30.5 76.5t78.5 24.5q20 0 39 -5t28 -11l9 -5v-76q0 -52 -30.5 -76t-80.5 -24q-19 0 -37.5 4.5t-27.5 8.5zM242 -414l10 899q0 90 80 90q15 0 28 -4.5t19 -8.5l6 -5l10 -897q0 -90 -82 -90q-17 0 -35 4t-27 8z" />
<glyph unicode="&#xa2;" horiz-adv-x="1150" d="M174 530q0 228 105.5 348t295.5 136v284q27 19 64 19q80 0 80 -90v-211q138 -6 198 -33t60 -76q0 -16 -2.5 -28.5t-4.5 -17.5l-3 -5q-106 27 -299 27q-171 0 -257.5 -83.5t-86.5 -271.5q0 -213 97.5 -317.5t272.5 -104.5q68 0 127.5 6t84.5 12l26 5q6 -12 6 -43 q0 -92 -219 -100v-301q-27 -17 -62 -17q-82 0 -82 90v234q-187 28 -294 172t-107 366z" />
<glyph unicode="&#xa3;" horiz-adv-x="1474" d="M174 49q0 76 84 76h162v778q0 161 86.5 234t290.5 73q119 0 183.5 -13.5t81.5 -32.5t17 -50q0 -14 -1.5 -24.5t-3.5 -14.5l-1 -4q-82 14 -229 14q-116 0 -175.5 -20t-82.5 -63t-23 -125v-183h481q11 -16 11 -47q0 -35 -21.5 -55.5t-62.5 -20.5h-408v-446h754 q10 -16 10 -49q0 -76 -84 -76h-1059q-10 16 -10 49z" />
<glyph unicode="&#xa5;" horiz-adv-x="1540" d="M174 1307q27 28 80 28q52 0 81.5 -15t57.5 -54l398 -543h2l462 623q15 2 23 2q39 0 63.5 -22t24.5 -54q0 -35 -20 -62l-465 -604h409q10 -16 10 -49q0 -36 -20.5 -57t-62.5 -21h-353v-149h426q10 -16 10 -49q0 -36 -20.5 -57t-62.5 -21h-353v-197q-24 -18 -65 -18 q-84 0 -84 90v125h-428q-11 16 -11 49q0 36 21 57t63 21h355v149h-428q-11 16 -11 49q0 78 84 78h338z" />
<glyph unicode="&#xa6;" horiz-adv-x="1206" d="M532 -332v664q25 16 62 16q82 0 82 -90v-664q-27 -16 -64 -16q-80 0 -80 90zM532 889v661q25 19 62 19q82 0 82 -90v-664q-27 -16 -64 -16q-80 0 -80 90z" />
<glyph unicode="&#xa7;" horiz-adv-x="1353" d="M168 571q0 98 68 183q-68 90 -68 227q0 192 124.5 279.5t375.5 87.5q119 0 198.5 -9t119.5 -27t55.5 -38.5t15.5 -50.5q0 -15 -3.5 -28.5t-6.5 -19.5l-3 -6q-141 37 -350 37q-199 0 -284.5 -53t-85.5 -184q0 -117 78.5 -176t246.5 -70q177 -12 276 -50t137 -100.5 t38 -166.5q0 -106 -72 -199q72 -69 72 -209q0 -73 -15 -133.5t-50 -114.5t-89.5 -91.5t-138.5 -59t-191 -21.5q-372 0 -372 127q0 14 1.5 25.5t2.5 16.5l2 5q15 -5 43.5 -12t119 -19t183.5 -12q354 0 354 262q0 76 -26 118t-102 68t-222 36q-432 29 -432 378zM324 563 q0 -118 78.5 -176.5t246.5 -69.5q186 -12 266 -49q35 56 35 109q0 76 -25.5 118t-102 68t-222.5 35q-151 9 -248 66q-28 -54 -28 -101z" />
<glyph unicode="&#xa8;" horiz-adv-x="776" d="M123 1274v61q0 101 104 101q18 0 35.5 -5t25.5 -9l9 -5v-61q0 -101 -104 -101q-19 0 -36.5 4.5t-25.5 9.5zM481 1274v61q0 101 105 101q18 0 35.5 -5t25.5 -9l8 -5v-61q0 -101 -104 -101q-19 0 -36.5 4.5t-25.5 9.5z" />
<glyph unicode="&#xa9;" horiz-adv-x="1710" d="M174 662q0 139 54 265t145.5 217t217.5 145t265 54q138 0 264.5 -54t218 -145t145.5 -217t54 -265q0 -111 -34.5 -215.5t-98 -188t-147.5 -146.5t-187.5 -97.5t-214.5 -34.5q-139 0 -265.5 54t-217.5 145t-145 217.5t-54 265.5zM266 662q0 -160 79 -296t215 -215t296 -79 q159 0 295 79t215.5 215t79.5 296t-79.5 296t-215 214.5t-295.5 78.5t-296 -78.5t-215 -214.5t-79 -296zM565 674q0 166 81 245.5t228 79.5q120 0 162.5 -16t42.5 -51q0 -9 -1.5 -17.5t-3.5 -12.5l-1 -5q-67 18 -186 18q-115 0 -170 -56t-55 -185q0 -141 66.5 -208 t178.5 -67q50 0 87.5 4.5t49.5 8.5l13 4q4 -11 4 -29q0 -68 -170 -68q-145 0 -235.5 93t-90.5 262z" />
<glyph unicode="&#xaa;" horiz-adv-x="2035" />
<glyph unicode="&#xab;" horiz-adv-x="1380" d="M164 588l444 432l7.5 -2.5t16.5 -8t21.5 -15t17 -23t7.5 -31.5q0 -42 -39 -78l-291 -274l291 -275q39 -36 39 -75q0 -28 -17.5 -48.5t-34.5 -27.5l-18 -6zM596 588l444 432l7.5 -2.5t16.5 -8t21.5 -15t17 -23t7.5 -31.5q0 -44 -37 -78l-293 -274l293 -275q37 -34 37 -75 q0 -28 -17.5 -48.5t-34.5 -27.5l-18 -6z" />
<glyph unicode="&#xad;" horiz-adv-x="909" d="M147 580q0 36 20.5 56.5t63.5 20.5h521q10 -16 10 -49q0 -36 -21 -57t-63 -21h-520q-11 17 -11 50z" />
<glyph unicode="&#xae;" horiz-adv-x="1710" d="M174 662q0 139 54 265t145.5 217t217.5 145t265 54q138 0 264.5 -54t218 -145t145.5 -217t54 -265q0 -111 -34.5 -215.5t-98 -188t-147.5 -146.5t-187.5 -97.5t-214.5 -34.5q-139 0 -265.5 54t-217.5 145t-145 217.5t-54 265.5zM266 662q0 -160 79 -296t215 -215t296 -79 q159 0 295 79t215.5 215t79.5 296t-79.5 296t-215 214.5t-295.5 78.5t-296 -78.5t-215 -214.5t-79 -296zM623 373v606h286q82 0 129 -38t47 -107q0 -65 -35.5 -106t-78.5 -54v-4q43 -6 66 -32t38 -77l62 -231q-20 -11 -43 -11q-55 0 -66 56l-47 174q-11 39 -30.5 53 t-63.5 14h-172v-286q-16 -11 -41 -11q-51 0 -51 54zM715 696h139q65 0 100 31.5t35 85.5q0 45 -24 66.5t-78 21.5h-172v-205z" />
<glyph unicode="&#xaf;" horiz-adv-x="2035" />
<glyph unicode="&#xb0;" horiz-adv-x="997" d="M174 1288q0 134 95.5 230t228.5 96q135 0 230 -96t95 -230q0 -135 -95 -230t-230 -95q-134 0 -229 95t-95 230zM291 1288q0 -86 60.5 -146.5t146.5 -60.5t147.5 60.5t61.5 146.5t-61.5 146.5t-147.5 60.5t-146.5 -60.5t-60.5 -146.5z" />
<glyph unicode="&#xb4;" horiz-adv-x="561" d="M123 1249q4 1 11 3t26.5 13.5t37.5 27t39 46.5t35 70q19 49 25 95t2 68l-4 21q20 11 53 11q92 0 92 -109q0 -120 -80 -209.5t-161 -89.5q-22 0 -38 5.5t-23 13t-10.5 15.5t-3.5 14z" />
<glyph unicode="&#xb5;" horiz-adv-x="1134" d="M154 -332v1321q24 19 61 19q82 0 82 -90v-521q0 -159 58.5 -225t179.5 -66q132 0 213 94t81 261v528q25 19 62 19q82 0 82 -90v-912q-2 -2 -9 -5.5t-22.5 -8t-32.5 -4.5q-80 0 -80 90v117h-4q-30 -87 -114.5 -150t-214.5 -63q-134 0 -199 79v-467q-27 -16 -64 -16 q-39 0 -59 20.5t-20 69.5z" />
<glyph unicode="&#xb6;" horiz-adv-x="1533" d="M225 856q0 198 118.5 324.5t301.5 126.5h563v-1483q0 -246 -243 -246q-84 0 -123 26t-39 66q0 15 1.5 25.5t3.5 14.5l1 3q29 -4 111 -4q79 0 109 29.5t30 107.5v498h-307q-150 0 -267 56t-188.5 173.5t-71.5 282.5z" />
<glyph unicode="&#xb7;" horiz-adv-x="550" d="M184 530v82q0 99 109 99q20 0 39 -4.5t28 -9.5l9 -5v-82q0 -52 -30.5 -76t-80.5 -24q-19 0 -37.5 5t-27.5 10z" />
<glyph unicode="&#xb8;" horiz-adv-x="722" d="M279 -330q3 1 9 3.5t21.5 12t28.5 21.5t28 34.5t23 49.5q11 37 11.5 70t-4.5 47l-5 14q22 10 55 10q41 0 66 -24.5t25 -77.5q0 -85 -57 -149t-126 -64q-33 0 -51.5 13.5t-20.5 26.5z" />
<glyph unicode="&#xbb;" horiz-adv-x="1380" d="M219 238q0 41 39 75l291 275l-291 274q-39 34 -39 78q0 27 17.5 47t35.5 27l17 6l444 -432l-444 -432l-7.5 2.5t-16.5 8t-21.5 15t-17 23.5t-7.5 33zM653 238q0 41 37 75l293 275l-293 274q-37 34 -37 78q0 27 17.5 47t35.5 27l17 6l444 -432l-444 -432l-7.5 2.5t-16.5 8 t-21.5 15t-17 23.5t-7.5 33z" />
<glyph unicode="&#xbf;" horiz-adv-x="784" d="M25 -106q0 237 245 364q62 32 81.5 61.5t19.5 90.5v75q0 90 80 90q16 0 32 -4.5t23 -8.5l8 -5v-197q0 -66 -29.5 -103.5t-107.5 -78.5q-113 -60 -159 -119.5t-46 -152.5q0 -105 72.5 -153t242.5 -48q75 0 141.5 7.5t95.5 14.5l30 7q12 -18 12 -51q0 -39 -22.5 -62 t-90.5 -37t-190 -14q-216 0 -327 77t-111 247zM348 829v78q0 52 30.5 76.5t80.5 24.5q19 0 37.5 -5t27.5 -11l8 -5v-76q0 -52 -30 -76t-78 -24q-20 0 -39 4.5t-28 8.5z" />
<glyph unicode="&#xc0;" horiz-adv-x="1314" d="M61 61q0 23 11 45l493 1209q39 18 90 18q116 0 164 -123l457 -1206q-31 -18 -70 -18q-49 0 -74.5 20t-44.5 70l-147 389h-563l-184 -469q-23 -8 -52 -8q-35 0 -57.5 20.5t-22.5 52.5zM424 594h473l-225 602l-4 2zM510 1761q0 109 92 109q15 0 28.5 -2.5t19.5 -5.5l7 -2 q-2 -8 -4.5 -23.5t2 -64t23.5 -97.5q14 -39 35 -69.5t40.5 -46.5t37 -26.5t27.5 -13.5l11 -3q0 -2 -0.5 -5.5t-4.5 -13t-11 -16.5t-22.5 -13t-36.5 -6q-83 0 -163.5 89.5t-80.5 209.5z" />
<glyph unicode="&#xc1;" horiz-adv-x="1314" d="M61 61q0 23 11 45l493 1209q39 18 90 18q116 0 164 -123l457 -1206q-31 -18 -70 -18q-49 0 -74.5 20t-44.5 70l-147 389h-563l-184 -469q-23 -8 -52 -8q-35 0 -57.5 20.5t-22.5 52.5zM424 594h473l-225 602l-4 2zM502 1510v6q4 1 11 3t26.5 13t37.5 26.5t39 46.5t35 70 q19 49 25 95.5t2 67.5l-4 22q20 10 53 10q92 0 92 -109q0 -120 -80 -209.5t-161 -89.5q-22 0 -38 5.5t-23 13.5t-10.5 16t-4.5 13z" />
<glyph unicode="&#xc2;" horiz-adv-x="1314" d="M61 61q0 23 11 45l493 1209q39 18 90 18q116 0 164 -123l457 -1206q-31 -18 -70 -18q-49 0 -74.5 20t-44.5 70l-147 389h-563l-184 -469q-23 -8 -52 -8q-35 0 -57.5 20.5t-22.5 52.5zM319 1532l218 223q64 64 125 64q60 0 124 -64l220 -223l-2.5 -7.5t-8 -16.5t-15 -21.5 t-23.5 -17t-33 -7.5q-42 0 -76 37l-133 141q-24 24 -33.5 31.5t-19.5 7.5q-15 0 -54 -39l-131 -141q-37 -37 -78 -37q-27 0 -47 17.5t-26 34.5zM424 594h473l-225 602l-4 2z" />
<glyph unicode="&#xc3;" horiz-adv-x="1314" d="M61 61q0 23 11 45l493 1209q39 18 90 18q116 0 164 -123l457 -1206q-31 -18 -70 -18q-49 0 -74.5 20t-44.5 70l-147 389h-563l-184 -469q-23 -8 -52 -8q-35 0 -57.5 20.5t-22.5 52.5zM266 1575q0 69 52.5 112.5t160.5 43.5q66 0 136.5 -25.5t134.5 -50.5t114 -25 q41 0 75 9t53.5 22t33 26t18.5 22l5 9q22 -22 22 -65q0 -71 -51 -115.5t-156 -44.5q-63 0 -131 24.5t-131.5 49t-114.5 24.5q-39 0 -73 -9t-55 -22t-36 -26t-21 -22l-7 -9q-29 23 -29 72zM424 594h473l-225 602l-4 2z" />
<glyph unicode="&#xc4;" horiz-adv-x="1314" d="M61 61q0 23 11 45l493 1209q39 18 90 18q116 0 164 -123l457 -1206q-31 -18 -70 -18q-49 0 -74.5 20t-44.5 70l-147 389h-563l-184 -469q-23 -8 -52 -8q-35 0 -57.5 20.5t-22.5 52.5zM410 1540v62q0 100 104 100q18 0 35.5 -5t26.5 -9l8 -5v-61q0 -100 -105 -100 q-19 0 -36.5 4.5t-24.5 9.5zM424 594h473l-225 602l-4 2zM768 1540v62q0 100 104 100q18 0 35.5 -5t26.5 -9l8 -5v-61q0 -100 -104 -100q-19 0 -36.5 4.5t-25.5 9.5z" />
<glyph unicode="&#xc5;" horiz-adv-x="1314" d="M61 61q0 23 11 45l493 1209q39 18 90 18q116 0 164 -123l457 -1206q-31 -18 -70 -18q-49 0 -74.5 20t-44.5 70l-147 389h-563l-184 -469q-23 -8 -52 -8q-35 0 -57.5 20.5t-22.5 52.5zM424 594h473l-225 602l-4 2zM434 1692q0 95 67.5 163t162.5 68t163 -68t68 -163 t-68 -162.5t-163 -67.5t-162.5 67.5t-67.5 162.5zM532 1692q0 -54 39 -92.5t93 -38.5t92.5 38.5t38.5 92.5t-38.5 92.5t-92.5 38.5t-93 -38.5t-39 -92.5z" />
<glyph unicode="&#xc6;" horiz-adv-x="1875" d="M76 63q0 22 8 43l326 965q41 120 110 178t195 58h1028q10 -17 10 -50q0 -36 -21 -57.5t-63 -21.5h-575v-439h628q11 -18 11 -49q0 -36 -21 -58t-63 -22h-555v-481h669q11 -16 11 -49q0 -36 -21 -58t-63 -22h-746v610h-532l-207 -614q-22 -8 -51 -8q-35 0 -56.5 20.5 t-21.5 54.5zM455 739h489v439h-196q-85 0 -125 -29t-64 -100z" />
<glyph unicode="&#xc7;" horiz-adv-x="1155" d="M113 694q0 171 43 298.5t122 204.5t184.5 114t237.5 37q121 0 200.5 -8.5t119.5 -26t55 -37.5t15 -49q0 -16 -3 -29t-7 -18l-3 -6q-129 32 -352 32q-226 0 -341.5 -122.5t-115.5 -387.5q0 -291 126.5 -436t355.5 -145q94 0 168 7.5t102 15.5l27 7q6 -12 6 -45 q0 -116 -332 -116q-281 0 -444.5 185.5t-163.5 524.5zM547 -330q3 1 9 3.5t21.5 12t28.5 21.5t28 34.5t23 49.5q11 37 11.5 70t-4.5 47l-5 14q23 10 56 10q41 0 65.5 -24.5t24.5 -77.5q0 -85 -56.5 -149t-125.5 -64q-33 0 -52 13.5t-21 26.5z" />
<glyph unicode="&#xc8;" d="M174 0v1307h799q10 -17 10 -50q0 -36 -21 -57.5t-63 -21.5h-575v-439h628q11 -18 11 -49q0 -36 -21 -58t-63 -22h-555v-481h669q11 -16 11 -49q0 -36 -21 -58t-63 -22h-746zM397 1761q0 109 92 109q15 0 29 -2.5t20 -5.5l7 -2q-3 -8 -5.5 -23.5t2 -64t23.5 -97.5 q23 -62 61 -101.5t64 -48.5l27 -9q0 -2 -0.5 -5.5t-4.5 -13t-11 -16.5t-23 -13t-37 -6q-83 0 -163.5 89.5t-80.5 209.5z" />
<glyph unicode="&#xc9;" d="M174 0v1307h799q10 -17 10 -50q0 -36 -21 -57.5t-63 -21.5h-575v-439h628q11 -18 11 -49q0 -36 -21 -58t-63 -22h-555v-481h669q11 -16 11 -49q0 -36 -21 -58t-63 -22h-746zM440 1510v6q4 1 11 3t27 13t37.5 26.5t39 46.5t35.5 70q19 49 24.5 95.5t1.5 67.5l-4 22 q21 10 54 10q92 0 92 -109q0 -120 -80 -209.5t-162 -89.5q-22 0 -38 5.5t-23 13.5t-10.5 16t-4.5 13z" />
<glyph unicode="&#xca;" d="M174 0v1307h799q10 -17 10 -50q0 -36 -21 -57.5t-63 -21.5h-575v-439h628q11 -18 11 -49q0 -36 -21 -58t-63 -22h-555v-481h669q11 -16 11 -49q0 -36 -21 -58t-63 -22h-746zM240 1532l217 223q64 64 125 64t125 -64l219 -223l-2.5 -7.5t-8 -16.5t-15 -21.5t-23.5 -17 t-33 -7.5q-42 0 -76 37l-133 141q-24 24 -33.5 31.5t-19.5 7.5q-15 0 -54 -39l-131 -141q-37 -37 -78 -37q-27 0 -47 17.5t-26 34.5z" />
<glyph unicode="&#xcb;" d="M174 0v1307h799q10 -17 10 -50q0 -36 -21 -57.5t-63 -21.5h-575v-439h628q11 -18 11 -49q0 -36 -21 -58t-63 -22h-555v-481h669q11 -16 11 -49q0 -36 -21 -58t-63 -22h-746zM319 1540v62q0 100 105 100q18 0 35.5 -5t26.5 -9l8 -5v-61q0 -100 -105 -100q-19 0 -36.5 4.5 t-25.5 9.5zM678 1540v62q0 100 104 100q18 0 35.5 -5t26.5 -9l8 -5v-61q0 -100 -104 -100q-19 0 -36.5 4.5t-25.5 9.5z" />
<glyph unicode="&#xcc;" horiz-adv-x="495" d="M74 1761q0 109 92 109q15 0 28.5 -2.5t19.5 -5.5l7 -2q-2 -8 -4.5 -23.5t2 -64t23.5 -97.5q14 -39 35 -69.5t40.5 -46.5t37 -26.5t27.5 -13.5l11 -3q0 -2 -0.5 -5.5t-4.5 -13t-11 -16.5t-23 -13t-37 -6q-83 0 -163 89.5t-80 209.5zM174 78v1239q25 18 66 18q84 0 84 -90 v-1239q-27 -18 -66 -18q-84 0 -84 90z" />
<glyph unicode="&#xcd;" horiz-adv-x="495" d="M102 1510v6q4 1 11 3t27 13t37.5 26.5t39 46.5t35.5 70q19 49 24.5 95.5t1.5 67.5l-4 22q21 10 54 10q92 0 92 -109q0 -120 -80 -209.5t-162 -89.5q-22 0 -38 5.5t-23 13.5t-10.5 16t-4.5 13zM174 78v1239q25 18 66 18q84 0 84 -90v-1239q-27 -18 -66 -18q-84 0 -84 90z " />
<glyph unicode="&#xce;" horiz-adv-x="495" d="M-98 1532l217 223q64 64 125 64t125 -64l219 -223l-2.5 -7.5t-8 -16.5t-15 -21.5t-23.5 -17t-33 -7.5q-42 0 -76 37l-133 141q-24 24 -33.5 31.5t-19.5 7.5q-15 0 -54 -39l-131 -141q-37 -37 -77 -37q-27 0 -47 17.5t-27 34.5zM176 78v1239q25 18 66 18q84 0 84 -90 v-1239q-27 -18 -66 -18q-84 0 -84 90z" />
<glyph unicode="&#xcf;" horiz-adv-x="495" d="M-18 1540v62q0 100 104 100q18 0 35.5 -5t26.5 -9l8 -5v-61q0 -100 -105 -100q-19 0 -36.5 4.5t-24.5 9.5zM172 78v1239q25 18 66 18q84 0 84 -90v-1239q-27 -18 -66 -18q-84 0 -84 90zM340 1540v62q0 100 104 100q18 0 35.5 -5t26.5 -9l8 -5v-61q0 -100 -104 -100 q-19 0 -36.5 4.5t-25.5 9.5z" />
<glyph unicode="&#xd0;" horiz-adv-x="1331" d="M174 41v1266h479q284 0 426 -141t142 -453q0 -355 -180 -542t-509 -187q-102 0 -191.5 14t-128.5 28zM324 141q85 -28 208 -28q259 0 396 146t137 437q0 136 -26.5 228t-84.5 148.5t-142 81t-206 24.5h-282v-1037z" />
<glyph unicode="&#xd1;" horiz-adv-x="1402" d="M174 78v1227q41 30 96 30q54 0 90 -24.5t68 -73.5l657 -1061h2l-8 1141q27 18 66 18q84 0 84 -90l-2 -1227q-35 -30 -90 -30q-103 0 -166 102l-656 1057h-2l11 -1141q-27 -18 -66 -18q-84 0 -84 90zM307 1575q0 69 52.5 112.5t160.5 43.5q66 0 136.5 -25.5t134.5 -50.5 t114 -25q41 0 75 9t53.5 22t33 26t18.5 22l5 9q22 -22 22 -65q0 -71 -51 -115.5t-156 -44.5q-63 0 -131 24.5t-131.5 49t-114.5 24.5q-39 0 -73 -9t-55 -22t-36 -26t-22 -22l-6 -9q-29 23 -29 72z" />
<glyph unicode="&#xd2;" horiz-adv-x="1394" d="M113 694q0 141 29 252.5t80.5 186t125.5 123.5t160 70.5t188 21.5q106 0 193.5 -21.5t162 -70.5t125 -124t79 -186t28.5 -252q0 -168 -45 -304t-124.5 -224t-186 -135t-230.5 -47q-262 0 -423.5 187t-161.5 523zM268 694q0 -142 33.5 -254.5t92.5 -183.5t136.5 -108 t167.5 -37q88 0 165 37t136.5 108t94 183.5t34.5 254.5q0 272 -114.5 396t-317.5 124q-93 0 -168 -28.5t-134.5 -88t-92.5 -162t-33 -241.5zM500 1761q0 109 92 109q15 0 28.5 -2.5t19.5 -5.5l7 -2q-2 -8 -4.5 -23.5t2 -64t23.5 -97.5q14 -39 35 -69.5t40.5 -46.5t37 -26.5 t27.5 -13.5l11 -3q0 -2 -0.5 -5.5t-4.5 -13t-11 -16.5t-23 -13t-37 -6q-83 0 -163 89.5t-80 209.5z" />
<glyph unicode="&#xd3;" horiz-adv-x="1394" d="M113 694q0 141 29 252.5t80.5 186t125.5 123.5t160 70.5t188 21.5q106 0 193.5 -21.5t162 -70.5t125 -124t79 -186t28.5 -252q0 -168 -45 -304t-124.5 -224t-186 -135t-230.5 -47q-262 0 -423.5 187t-161.5 523zM268 694q0 -142 33.5 -254.5t92.5 -183.5t136.5 -108 t167.5 -37q88 0 165 37t136.5 108t94 183.5t34.5 254.5q0 272 -114.5 396t-317.5 124q-93 0 -168 -28.5t-134.5 -88t-92.5 -162t-33 -241.5zM563 1516q4 1 11 3t27 13t37.5 26.5t39 46.5t35.5 70q19 49 24.5 95.5t1.5 67.5l-4 22q20 10 53 10q93 0 93 -109 q0 -120 -80 -209.5t-162 -89.5q-22 0 -38 5.5t-23 13.5t-10.5 16t-3.5 13z" />
<glyph unicode="&#xd4;" horiz-adv-x="1394" d="M113 694q0 141 29 252.5t80.5 186t125.5 123.5t160 70.5t188 21.5q106 0 193.5 -21.5t162 -70.5t125 -124t79 -186t28.5 -252q0 -168 -45 -304t-124.5 -224t-186 -135t-230.5 -47q-262 0 -423.5 187t-161.5 523zM268 694q0 -142 33.5 -254.5t92.5 -183.5t136.5 -108 t167.5 -37q88 0 165 37t136.5 108t94 183.5t34.5 254.5q0 272 -114.5 396t-317.5 124q-93 0 -168 -28.5t-134.5 -88t-92.5 -162t-33 -241.5zM358 1532l217 223q64 64 125 64t125 -64l219 -223l-2.5 -7.5t-8 -16.5t-15 -21.5t-23 -17t-32.5 -7.5q-42 0 -76 37l-133 141 q-39 39 -54 39q-14 0 -53 -39l-131 -141q-37 -37 -78 -37q-27 0 -47 17.5t-27 34.5z" />
<glyph unicode="&#xd5;" horiz-adv-x="1394" d="M113 694q0 141 29 252.5t80.5 186t125.5 123.5t160 70.5t188 21.5q106 0 193.5 -21.5t162 -70.5t125 -124t79 -186t28.5 -252q0 -168 -45 -304t-124.5 -224t-186 -135t-230.5 -47q-262 0 -423.5 187t-161.5 523zM268 694q0 -142 33.5 -254.5t92.5 -183.5t136.5 -108 t167.5 -37q88 0 165 37t136.5 108t94 183.5t34.5 254.5q0 272 -114.5 396t-317.5 124q-93 0 -168 -28.5t-134.5 -88t-92.5 -162t-33 -241.5zM303 1575q0 69 52.5 112.5t160.5 43.5q66 0 136.5 -25.5t134.5 -50.5t114 -25q41 0 74.5 9t53 22t33 26t18.5 22l5 9q23 -22 23 -65 q0 -71 -51 -115.5t-156 -44.5q-63 0 -131 24.5t-131.5 49t-114.5 24.5q-39 0 -73 -9t-55 -22t-36 -26t-22 -22l-6 -9q-29 23 -29 72z" />
<glyph unicode="&#xd6;" horiz-adv-x="1394" d="M113 694q0 141 29 252.5t80.5 186t125.5 123.5t160 70.5t188 21.5q106 0 193.5 -21.5t162 -70.5t125 -124t79 -186t28.5 -252q0 -168 -45 -304t-124.5 -224t-186 -135t-230.5 -47q-262 0 -423.5 187t-161.5 523zM268 694q0 -142 33.5 -254.5t92.5 -183.5t136.5 -108 t167.5 -37q88 0 165 37t136.5 108t94 183.5t34.5 254.5q0 272 -114.5 396t-317.5 124q-93 0 -168 -28.5t-134.5 -88t-92.5 -162t-33 -241.5zM446 1540v62q0 100 105 100q18 0 35.5 -5t25.5 -9l9 -5v-61q0 -100 -105 -100q-19 0 -36.5 4.5t-25.5 9.5zM805 1540v62 q0 100 104 100q18 0 35.5 -5t25.5 -9l9 -5v-61q0 -100 -105 -100q-19 0 -36.5 4.5t-25.5 9.5z" />
<glyph unicode="&#xd7;" horiz-adv-x="1677" d="M328 1010q3 8 8.5 19t27 29.5t46.5 18.5q28 0 59 -28l371 -369l420 420q8 -3 19 -8.5t29.5 -27t18.5 -46.5q0 -31 -29 -60l-368 -368l420 -422q-1 -3 -3 -7.5t-9.5 -16t-16 -20.5t-23 -16.5t-30.5 -7.5q-34 0 -60 29l-368 369l-422 -420q-3 1 -7.5 3t-16 9.5t-20.5 16 t-16.5 23t-7.5 30.5q0 30 29 59l369 371z" />
<glyph unicode="&#xd8;" horiz-adv-x="1394" d="M113 -55q0 33 22 61l129 176q-151 187 -151 512q0 176 43.5 304.5t123.5 203.5t183 110.5t233 35.5q220 0 359 -101l159 213q9 2 15 2q36 0 60 -22.5t24 -53.5q0 -35 -23 -61l-129 -176q123 -161 123 -455q0 -169 -45 -305t-124.5 -223.5t-185.5 -134.5t-231 -47 q-189 0 -327 102l-160 -217h-14q-36 0 -60 22t-24 54zM268 694q0 -241 90 -389l611 825q-106 84 -273 84q-93 0 -168 -28.5t-134.5 -88t-92.5 -162t-33 -241.5zM455 195q107 -84 243 -84q88 0 165 37t136.5 107.5t94 183.5t34.5 255q0 198 -65 322z" />
<glyph unicode="&#xd9;" horiz-adv-x="1374" d="M174 438v879q25 18 66 18q84 0 84 -90v-803q0 -152 97 -241.5t275 -89.5q174 0 265.5 89t91.5 242v875q24 18 65 18q84 0 84 -90v-807q0 -202 -130 -328t-376 -126q-128 0 -228.5 34.5t-164 96.5t-96.5 144t-33 179zM512 1700q0 108 92 108q15 0 28.5 -2.5t19.5 -5.5 l7 -2q-2 -8 -4.5 -23.5t2 -63.5t23.5 -97q14 -39 35 -70t40.5 -47t37 -26.5t27.5 -13.5l11 -3q0 -2 -0.5 -5.5t-4.5 -13t-11 -16.5t-22.5 -12.5t-36.5 -5.5q-83 0 -163.5 89.5t-80.5 209.5z" />
<glyph unicode="&#xda;" horiz-adv-x="1374" d="M174 438v879q25 18 66 18q84 0 84 -90v-803q0 -152 97 -241.5t275 -89.5q174 0 265.5 89t91.5 242v875q24 18 65 18q84 0 84 -90v-807q0 -202 -130 -328t-376 -126q-128 0 -228.5 34.5t-164 96.5t-96.5 144t-33 179zM555 1516q4 1 11 3t27 13t37.5 26.5t39 46.5t35.5 70 q19 49 24.5 95.5t1.5 67.5l-4 22q20 10 53 10q92 0 92 -109q0 -120 -80 -209.5t-161 -89.5q-22 0 -38 5.5t-23 13.5t-10.5 16t-3.5 13z" />
<glyph unicode="&#xdb;" horiz-adv-x="1374" d="M174 438v879q25 18 66 18q84 0 84 -90v-803q0 -152 97 -241.5t275 -89.5q174 0 265.5 89t91.5 242v875q24 18 65 18q84 0 84 -90v-807q0 -202 -130 -328t-376 -126q-128 0 -228.5 34.5t-164 96.5t-96.5 144t-33 179zM352 1532l217 223q64 64 125 64t125 -64l219 -223 l-2.5 -7.5t-8 -16.5t-15 -21.5t-23.5 -17t-33 -7.5q-41 0 -75 37l-133 141q-39 39 -54 39q-14 0 -53 -39l-131 -141q-37 -37 -78 -37q-27 0 -47 17.5t-27 34.5z" />
<glyph unicode="&#xdc;" horiz-adv-x="1374" d="M174 438v879q25 18 66 18q84 0 84 -90v-803q0 -152 97 -241.5t275 -89.5q174 0 265.5 89t91.5 242v875q24 18 65 18q84 0 84 -90v-807q0 -202 -130 -328t-376 -126q-128 0 -228.5 34.5t-164 96.5t-96.5 144t-33 179zM434 1540v62q0 100 105 100q18 0 35.5 -5t25.5 -9 l8 -5v-61q0 -100 -104 -100q-19 0 -36.5 4.5t-25.5 9.5zM793 1540v62q0 100 104 100q18 0 35.5 -5t25.5 -9l9 -5v-61q0 -100 -105 -100q-19 0 -36.5 4.5t-25.5 9.5z" />
<glyph unicode="&#xdd;" horiz-adv-x="1273" d="M31 1307q27 28 80 28q52 0 81.5 -15t57.5 -54l397 -543h2l463 623q11 2 23 2q40 0 64 -22t24 -54q0 -34 -21 -62l-481 -624v-580q-25 -18 -66 -18q-84 0 -84 90v506zM520 1510v6q4 1 11 3t27 13t37.5 26.5t39 46.5t35.5 70q19 49 24.5 95.5t1.5 67.5l-4 22q20 10 53 10 q93 0 93 -109q0 -120 -80 -209.5t-162 -89.5q-22 0 -38 5.5t-23 13.5t-10.5 16t-4.5 13z" />
<glyph unicode="&#xde;" horiz-adv-x="1136" d="M174 78v1239q25 18 66 18q84 0 84 -90v-164h405q156 0 246 -91.5t90 -250.5q0 -199 -117.5 -307t-314.5 -108h-309v-318q-27 -18 -66 -18q-84 0 -84 90zM324 453h303q133 0 208.5 67t75.5 193q0 239 -223 239h-364v-499z" />
<glyph unicode="&#xdf;" horiz-adv-x="1085" d="M143 -332v1481q0 158 94 252t257 94q168 0 273 -102.5t105 -272.5q0 -129 -61 -219t-166 -123v-2q153 -8 246.5 -97t93.5 -253q0 -210 -111.5 -326t-289.5 -116q-105 0 -156 27.5t-51 74.5q0 14 1.5 24.5t3.5 14.5l1 4q49 -23 168 -23q128 0 208.5 78.5t80.5 231.5 q0 138 -77 207t-251 69q-98 0 -98 78q0 14 2.5 25.5t5.5 16.5l2 5l65 -2q100 0 166 71.5t66 211.5q0 130 -61.5 200t-165.5 70q-101 0 -154 -58.5t-53 -172.5v-1543q-27 -16 -64 -16q-80 0 -80 90z" />
<glyph unicode="&#xe0;" horiz-adv-x="991" d="M94 266q0 152 98 226.5t259 74.5q121 0 243 -35v154q0 112 -57.5 154.5t-218.5 42.5q-71 0 -136 -7.5t-94 -15.5l-30 -8q-8 16 -8 51q0 39 27 63.5t99 39t195 14.5q189 0 278 -70.5t89 -238.5v-705q-27 -18 -64 -18q-80 0 -80 90v117h-4q-32 -87 -112.5 -150t-198.5 -63 t-201.5 75t-83.5 209zM240 285q0 -83 50.5 -131t131.5 -48q119 0 195.5 84t76.5 226v26q-91 31 -215 31q-239 0 -239 -188zM336 1495q0 109 92 109q15 0 28.5 -3t19.5 -5l7 -3q-2 -8 -4.5 -23.5t2 -63.5t23.5 -97q14 -39 35 -70t40.5 -47t37 -26.5t27.5 -13.5l11 -3 q0 -2 -0.5 -5.5t-4.5 -13t-11 -16.5t-22.5 -12.5t-36.5 -5.5q-83 0 -163.5 89.5t-80.5 209.5z" />
<glyph unicode="&#xe1;" horiz-adv-x="991" d="M94 266q0 152 98 226.5t259 74.5q121 0 243 -35v154q0 112 -57.5 154.5t-218.5 42.5q-71 0 -136 -7.5t-94 -15.5l-30 -8q-8 16 -8 51q0 39 27 63.5t99 39t195 14.5q189 0 278 -70.5t89 -238.5v-705q-27 -18 -64 -18q-80 0 -80 90v117h-4q-32 -87 -112.5 -150t-198.5 -63 t-201.5 75t-83.5 209zM240 285q0 -83 50.5 -131t131.5 -48q119 0 195.5 84t76.5 226v26q-91 31 -215 31q-239 0 -239 -188zM383 1249q4 1 11 3t26.5 13.5t37.5 27t39 46.5t35 70q19 49 25 95t2 68l-4 21q20 11 53 11q92 0 92 -109q0 -120 -80 -209.5t-161 -89.5 q-22 0 -38 5.5t-23 13t-10.5 15.5t-3.5 14z" />
<glyph unicode="&#xe2;" horiz-adv-x="991" d="M94 266q0 152 98 226.5t259 74.5q121 0 243 -35v154q0 112 -57.5 154.5t-218.5 42.5q-71 0 -136 -7.5t-94 -15.5l-30 -8q-8 16 -8 51q0 39 27 63.5t99 39t195 14.5q189 0 278 -70.5t89 -238.5v-705q-27 -18 -64 -18q-80 0 -80 90v117h-4q-32 -87 -112.5 -150t-198.5 -63 t-201.5 75t-83.5 209zM147 1266l218 223q63 63 124 63q62 0 125 -63l220 -223l-2.5 -7.5t-8 -16.5t-15 -21.5t-23.5 -17t-33 -7.5q-42 0 -76 37l-133 141q-39 39 -54 39q-14 0 -53 -39l-131 -141q-37 -37 -78 -37q-27 0 -47 17.5t-26 34.5zM240 285q0 -83 50.5 -131 t131.5 -48q119 0 195.5 84t76.5 226v26q-91 31 -215 31q-239 0 -239 -188z" />
<glyph unicode="&#xe3;" horiz-adv-x="991" d="M98 266q0 152 98 226.5t259 74.5q121 0 243 -35v154q0 112 -57.5 154.5t-218.5 42.5q-71 0 -136 -7.5t-94 -15.5l-30 -8q-8 16 -8 51q0 39 27 63.5t99 39t195 14.5q189 0 278 -70.5t89 -238.5v-705q-27 -18 -64 -18q-80 0 -80 90v117h-4q-32 -87 -112.5 -150t-198.5 -63 t-201.5 75t-83.5 209zM100 1309q0 69 52.5 112t160.5 43q66 0 136.5 -25t134.5 -50t114 -25q41 0 75 9t53.5 22t33 26t18.5 22l5 9q22 -23 22 -66q0 -71 -51 -115t-156 -44q-63 0 -131 24.5t-131 49t-114 24.5q-39 0 -73 -9t-55 -22t-36.5 -26t-21.5 -22l-7 -9 q-29 23 -29 72zM244 285q0 -83 50.5 -131t131.5 -48q119 0 195.5 84t76.5 226v26q-91 31 -215 31q-239 0 -239 -188z" />
<glyph unicode="&#xe4;" horiz-adv-x="991" d="M94 266q0 152 98 226.5t259 74.5q121 0 243 -35v154q0 112 -57.5 154.5t-218.5 42.5q-71 0 -136 -7.5t-94 -15.5l-30 -8q-8 16 -8 51q0 39 27 63.5t99 39t195 14.5q189 0 278 -70.5t89 -238.5v-705q-27 -18 -64 -18q-80 0 -80 90v117h-4q-32 -87 -112.5 -150t-198.5 -63 t-201.5 75t-83.5 209zM225 1274v61q0 101 105 101q18 0 35.5 -5t25.5 -9l8 -5v-61q0 -101 -104 -101q-19 0 -36.5 4.5t-25.5 9.5zM240 285q0 -83 50.5 -131t131.5 -48q119 0 195.5 84t76.5 226v26q-91 31 -215 31q-239 0 -239 -188zM584 1274v61q0 101 104 101q18 0 35.5 -5 t26.5 -9l8 -5v-61q0 -101 -105 -101q-19 0 -36.5 4.5t-24.5 9.5z" />
<glyph unicode="&#xe5;" horiz-adv-x="991" d="M94 266q0 152 98 226.5t259 74.5q121 0 243 -35v154q0 112 -57.5 154.5t-218.5 42.5q-71 0 -136 -7.5t-94 -15.5l-30 -8q-8 16 -8 51q0 39 27 63.5t99 39t195 14.5q189 0 278 -70.5t89 -238.5v-705q-27 -18 -64 -18q-80 0 -80 90v117h-4q-32 -87 -112.5 -150t-198.5 -63 t-201.5 75t-83.5 209zM240 285q0 -83 50.5 -131t131.5 -48q119 0 195.5 84t76.5 226v26q-91 31 -215 31q-239 0 -239 -188zM262 1425q0 95 67.5 163.5t162.5 68.5t163 -68.5t68 -163.5t-68 -162t-163 -67t-162.5 67t-67.5 162zM360 1425q0 -54 39 -92.5t93 -38.5t92.5 38.5 t38.5 92.5t-38.5 92.5t-92.5 38.5t-93 -38.5t-39 -92.5z" />
<glyph unicode="&#xe6;" horiz-adv-x="1581" d="M96 266q0 152 98 226.5t259 74.5q121 0 243 -35v154q0 112 -57.5 154.5t-218.5 42.5q-71 0 -136 -7.5t-94 -15.5l-30 -8q-8 16 -8 51q0 39 27 63.5t99 39t195 14.5q156 0 237 -45.5t89 -112.5q28 65 113 111.5t214 46.5q181 0 278 -100.5t97 -264.5q0 -80 -16.5 -105.5 t-71.5 -25.5h-573q-2 -195 85 -306.5t271 -111.5q57 0 103.5 3t64.5 7l18 3q7 -12 7 -43q0 -47 -51.5 -69.5t-174.5 -22.5q-146 0 -250.5 66.5t-156.5 187.5h-2q-34 -110 -132.5 -183t-230.5 -73q-125 0 -210 74.5t-85 209.5zM242 285q0 -83 50.5 -131t131.5 -48 q119 0 195.5 84t76.5 226v26q-91 31 -215 31q-239 0 -239 -188zM846 627h514q10 117 -47.5 193.5t-182.5 76.5q-267 0 -284 -270z" />
<glyph unicode="&#xe7;" horiz-adv-x="909" d="M102 530q0 247 120 368.5t333 121.5q114 0 176.5 -12t84.5 -33.5t22 -59.5q0 -17 -3 -30t-5 -17l-3 -4q-114 19 -245 19q-167 0 -248.5 -83t-81.5 -272q0 -215 92 -318.5t264 -103.5q61 0 107.5 3t62.5 7l17 3q6 -12 6 -43q0 -47 -51 -69.5t-172 -22.5q-224 0 -350 149.5 t-126 396.5zM389 -330q3 1 9 3.5t21.5 12t29 21.5t28.5 34.5t23 49.5q11 37 11.5 70t-4.5 47l-5 14q22 10 55 10q41 0 65.5 -24.5t24.5 -77.5q0 -85 -56.5 -149t-125.5 -64q-33 0 -52 13.5t-21 26.5z" />
<glyph unicode="&#xe8;" horiz-adv-x="995" d="M102 530q0 246 118 368t319 122q181 0 277.5 -100t96.5 -265q0 -81 -16 -106t-72 -25h-573q-2 -198 87 -308t269 -110q57 0 104 3t65 7l18 3q6 -12 6 -43q0 -46 -51 -69t-172 -23q-224 0 -350 149.5t-126 396.5zM258 627h516q8 119 -49 194.5t-182 75.5q-265 0 -285 -270 zM336 1495q0 109 92 109q15 0 28.5 -3t19.5 -5l7 -3q-2 -8 -4.5 -23.5t2 -63.5t23.5 -97q14 -39 35 -70t40.5 -47t37 -26.5t27.5 -13.5l11 -3q0 -2 -0.5 -5.5t-4.5 -13t-11 -16.5t-22.5 -12.5t-36.5 -5.5q-83 0 -163.5 89.5t-80.5 209.5z" />
<glyph unicode="&#xe9;" horiz-adv-x="995" d="M102 530q0 246 118 368t319 122q181 0 277.5 -100t96.5 -265q0 -81 -16 -106t-72 -25h-573q-2 -198 87 -308t269 -110q57 0 104 3t65 7l18 3q6 -12 6 -43q0 -46 -51 -69t-172 -23q-224 0 -350 149.5t-126 396.5zM258 627h516q8 119 -49 194.5t-182 75.5q-265 0 -285 -270 zM395 1249q4 1 11 3t27 13.5t37.5 27t39 46.5t35.5 70q19 49 24.5 95t1.5 68l-4 21q21 11 54 11q92 0 92 -109q0 -120 -80 -209.5t-162 -89.5q-22 0 -38 5.5t-23 13t-10.5 15.5t-3.5 14z" />
<glyph unicode="&#xea;" horiz-adv-x="995" d="M102 530q0 246 118 368t319 122q181 0 277.5 -100t96.5 -265q0 -81 -16 -106t-72 -25h-573q-2 -198 87 -308t269 -110q57 0 104 3t65 7l18 3q6 -12 6 -43q0 -46 -51 -69t-172 -23q-224 0 -350 149.5t-126 396.5zM180 1266l217 223q63 63 125 63t125 -63l219 -223 l-2.5 -7.5t-8 -16.5t-15 -21.5t-23.5 -17t-33 -7.5q-41 0 -75 37l-134 141q-24 24 -33.5 31.5t-19.5 7.5q-14 0 -53 -39l-131 -141q-37 -37 -78 -37q-27 0 -47 17.5t-27 34.5zM258 627h516q8 119 -49 194.5t-182 75.5q-265 0 -285 -270z" />
<glyph unicode="&#xeb;" horiz-adv-x="995" d="M102 530q0 246 118 368t319 122q181 0 277.5 -100t96.5 -265q0 -81 -16 -106t-72 -25h-573q-2 -198 87 -308t269 -110q57 0 104 3t65 7l18 3q6 -12 6 -43q0 -46 -51 -69t-172 -23q-224 0 -350 149.5t-126 396.5zM258 627h516q8 119 -49 194.5t-182 75.5q-265 0 -285 -270 zM264 1274v61q0 101 105 101q18 0 35.5 -5t25.5 -9l8 -5v-61q0 -101 -104 -101q-19 0 -36.5 4.5t-25.5 9.5zM623 1274v61q0 101 104 101q18 0 35.5 -5t25.5 -9l9 -5v-61q0 -101 -105 -101q-19 0 -36.5 4.5t-25.5 9.5z" />
<glyph unicode="&#xec;" horiz-adv-x="481" d="M39 1495q0 109 92 109q15 0 28.5 -3t20.5 -5l6 -3q-2 -8 -4.5 -23.5t2 -63.5t23.5 -97q14 -39 35 -70t40.5 -47t37 -26.5t28.5 -13.5l10 -3q0 -2 -0.5 -5.5t-4.5 -13t-11 -16.5t-22.5 -12.5t-36.5 -5.5q-83 0 -163.5 89.5t-80.5 209.5zM154 164v825q24 19 61 19 q82 0 82 -90v-732q0 -49 18 -71.5t58 -22.5l33 2q6 -8 6 -26q0 -35 -28.5 -58.5t-82.5 -23.5q-147 0 -147 178z" />
<glyph unicode="&#xed;" horiz-adv-x="481" d="M84 1244v5q4 1 11 3t26.5 13.5t37.5 27t39 46.5t35 70q19 49 25 95t2 68l-4 21q20 11 53 11q92 0 92 -109q0 -120 -80 -209.5t-161 -89.5q-22 0 -38 5.5t-23 13t-10.5 15.5t-4.5 14zM154 164v825q24 19 61 19q82 0 82 -90v-732q0 -49 18 -71.5t58 -22.5l33 2q6 -8 6 -26 q0 -35 -28.5 -58.5t-82.5 -23.5q-147 0 -147 178z" />
<glyph unicode="&#xee;" horiz-adv-x="481" d="M-119 1266l217 223q63 63 125 63t125 -63l219 -223l-2.5 -7.5t-8 -16.5t-15 -21.5t-23.5 -17t-33 -7.5q-41 0 -75 37l-134 141q-24 24 -33.5 31.5t-19.5 7.5q-14 0 -53 -39l-131 -141q-37 -37 -78 -37q-27 0 -47 17.5t-26 34.5zM154 164v825q24 19 61 19q82 0 82 -90 v-732q0 -49 18 -71.5t58 -22.5l33 2q6 -8 6 -26q0 -35 -28.5 -58.5t-82.5 -23.5q-147 0 -147 178z" />
<glyph unicode="&#xef;" horiz-adv-x="481" d="M-35 1274v61q0 101 105 101q18 0 35.5 -5t25.5 -9l8 -5v-61q0 -101 -104 -101q-19 0 -36.5 4.5t-25.5 9.5zM154 164v825q24 19 61 19q82 0 82 -90v-732q0 -49 18 -71.5t58 -22.5l33 2q6 -8 6 -26q0 -35 -28.5 -58.5t-82.5 -23.5q-147 0 -147 178zM324 1274v61 q0 101 104 101q18 0 35.5 -5t26.5 -9l8 -5v-61q0 -101 -105 -101q-19 0 -36.5 4.5t-24.5 9.5z" />
<glyph unicode="&#xf0;" horiz-adv-x="1218" d="M133 528q0 246 109.5 369t296.5 123q89 0 166.5 -37t113.5 -70l2 2l-317 408q-23 30 -23 61q0 33 23.5 55.5t60.5 22.5l21 -2l311 -426q102 -142 151.5 -267t49.5 -257q0 -238 -131 -382t-349 -144q-210 0 -347.5 153t-137.5 391zM283 526q0 -198 94.5 -309t238.5 -111 q147 0 239.5 102t92.5 300q0 174 -99.5 281.5t-250.5 107.5t-233 -90.5t-82 -280.5z" />
<glyph unicode="&#xf1;" horiz-adv-x="1124" d="M147 78v911q25 19 62 19q82 0 82 -90v-117h2q31 87 116 153t214 66q169 0 256.5 -93.5t87.5 -303.5v-617q-27 -18 -64 -18q-80 0 -80 90v526q0 158 -59 224.5t-180 66.5q-131 0 -212 -96.5t-81 -263.5v-529q-27 -18 -64 -18q-80 0 -80 90zM156 1309q0 69 52.5 112 t160.5 43q66 0 136.5 -25t134.5 -50t114 -25q41 0 74.5 9t53 22t33 26t18.5 22l5 9q23 -23 23 -66q0 -71 -51 -115t-156 -44q-63 0 -131 24.5t-131.5 49t-114.5 24.5q-39 0 -73 -9t-55 -22t-36.5 -26t-22.5 -22l-6 -9q-28 23 -28 72z" />
<glyph unicode="&#xf2;" d="M100 530q0 245 118.5 367.5t330.5 122.5q452 0 452 -490q0 -155 -54 -278.5t-158 -195.5t-240 -72q-142 0 -245 72.5t-153.5 195t-50.5 278.5zM250 528q0 -199 80.5 -310.5t218.5 -111.5q141 0 222 111.5t81 310.5q0 363 -303 363q-143 0 -221 -88.5t-78 -274.5z M375 1495q0 109 92 109q15 0 28.5 -3t20.5 -5l6 -3q-2 -8 -4.5 -23.5t2 -63.5t23.5 -97q14 -39 35 -70t40.5 -47t37 -26.5t28.5 -13.5l10 -3q0 -2 -0.5 -5.5t-4.5 -13t-11 -16.5t-23 -12.5t-37 -5.5q-83 0 -163 89.5t-80 209.5z" />
<glyph unicode="&#xf3;" d="M100 530q0 245 118.5 367.5t330.5 122.5q452 0 452 -490q0 -155 -54 -278.5t-158 -195.5t-240 -72q-142 0 -245 72.5t-153.5 195t-50.5 278.5zM250 528q0 -199 80.5 -310.5t218.5 -111.5q141 0 222 111.5t81 310.5q0 363 -303 363q-143 0 -221 -88.5t-78 -274.5z M426 1244v5q4 1 11 3t26.5 13.5t37.5 27t39 46.5t35 70q19 49 25 95t2 68l-4 21q20 11 53 11q92 0 92 -109q0 -120 -80 -209.5t-161 -89.5q-22 0 -38 5.5t-23 13t-10.5 15.5t-4.5 14z" />
<glyph unicode="&#xf4;" d="M100 530q0 245 118.5 367.5t330.5 122.5q452 0 452 -490q0 -155 -54 -278.5t-158 -195.5t-240 -72q-142 0 -245 72.5t-153.5 195t-50.5 278.5zM207 1266l217 223q63 63 125 63t125 -63l219 -223l-2.5 -7.5t-8 -16.5t-15 -21.5t-23.5 -17t-33 -7.5q-42 0 -76 37l-133 141 q-24 24 -33.5 31.5t-19.5 7.5q-14 0 -53 -39l-131 -141q-37 -37 -78 -37q-27 0 -47 17.5t-26 34.5zM250 528q0 -199 80.5 -310.5t218.5 -111.5q141 0 222 111.5t81 310.5q0 363 -303 363q-143 0 -221 -88.5t-78 -274.5z" />
<glyph unicode="&#xf5;" d="M100 530q0 245 118.5 367.5t330.5 122.5q452 0 452 -490q0 -155 -54 -278.5t-158 -195.5t-240 -72q-142 0 -245 72.5t-153.5 195t-50.5 278.5zM152 1309q0 69 52.5 112t160.5 43q66 0 136.5 -25t134.5 -50t114 -25q41 0 74.5 9t53 22t33 26t18.5 22l5 9q22 -23 22 -66 q0 -71 -50.5 -115t-155.5 -44q-63 0 -131 24.5t-131.5 49t-114.5 24.5q-39 0 -73 -9t-55 -22t-36.5 -26t-22.5 -22l-6 -9q-28 23 -28 72zM250 528q0 -199 80.5 -310.5t218.5 -111.5q141 0 222 111.5t81 310.5q0 363 -303 363q-143 0 -221 -88.5t-78 -274.5z" />
<glyph unicode="&#xf6;" d="M100 530q0 245 118.5 367.5t330.5 122.5q452 0 452 -490q0 -155 -54 -278.5t-158 -195.5t-240 -72q-142 0 -245 72.5t-153.5 195t-50.5 278.5zM250 528q0 -199 80.5 -310.5t218.5 -111.5q141 0 222 111.5t81 310.5q0 363 -303 363q-143 0 -221 -88.5t-78 -274.5z M293 1274v61q0 101 104 101q18 0 35.5 -5t25.5 -9l9 -5v-61q0 -101 -105 -101q-19 0 -36.5 4.5t-25.5 9.5zM651 1274v61q0 101 105 101q18 0 35.5 -5t25.5 -9l8 -5v-61q0 -101 -104 -101q-19 0 -36.5 4.5t-25.5 9.5z" />
<glyph unicode="&#xf7;" horiz-adv-x="1669" d="M225 573q0 36 21 58t63 22h1127q10 -18 10 -49q0 -36 -21 -58t-63 -22h-1126q-11 16 -11 49zM741 8v82q0 98 111 98q19 0 37.5 -4.5t27.5 -9.5l9 -4v-82q0 -52 -30 -76t-79 -24q-20 0 -39 5t-28 10zM741 1004v81q0 52 30.5 76.5t80.5 24.5q19 0 37.5 -5t27.5 -9l9 -5v-82 q0 -52 -30 -76t-79 -24q-20 0 -39 4.5t-28 9.5z" />
<glyph unicode="&#xf8;" d="M90 -55q0 31 23 61l102 139q-113 147 -113 385q0 245 118.5 367.5t330.5 122.5q158 0 264 -68l135 181q4 2 8 2q37 0 61.5 -22.5t24.5 -53.5q0 -33 -22 -62l-102 -139q84 -119 84 -328q0 -156 -54.5 -279.5t-158 -195t-240.5 -71.5q-135 0 -232 69l-135 -184h-8 q-38 0 -62 21.5t-24 54.5zM252 528q0 -159 51 -264l430 578q-73 49 -182 49q-143 0 -221 -88.5t-78 -274.5zM395 154q67 -48 156 -48q141 0 222 111.5t81 310.5q0 112 -33 199z" />
<glyph unicode="&#xf9;" horiz-adv-x="1124" d="M154 379v610q24 19 61 19q82 0 82 -90v-521q0 -159 58.5 -225t179.5 -66q132 0 213 94t81 261v528q25 19 62 19q82 0 82 -90v-912q-2 -2 -9 -5.5t-22.5 -8t-32.5 -4.5q-80 0 -80 90v117h-4q-30 -87 -114.5 -150t-214.5 -63q-166 0 -254 94.5t-88 302.5zM377 1495 q0 109 92 109q15 0 28.5 -3t20.5 -5l6 -3q-2 -8 -4.5 -23.5t2 -63.5t23.5 -97q14 -39 35 -70t40.5 -47t37 -26.5t28.5 -13.5l10 -3q0 -2 -0.5 -5.5t-4.5 -13t-11 -16.5t-22.5 -12.5t-36.5 -5.5q-83 0 -163.5 89.5t-80.5 209.5z" />
<glyph unicode="&#xfa;" horiz-adv-x="1124" d="M154 379v610q24 19 61 19q82 0 82 -90v-521q0 -159 58.5 -225t179.5 -66q132 0 213 94t81 261v528q25 19 62 19q82 0 82 -90v-912q-2 -2 -9 -5.5t-22.5 -8t-32.5 -4.5q-80 0 -80 90v117h-4q-30 -87 -114.5 -150t-214.5 -63q-166 0 -254 94.5t-88 302.5zM451 1249 q4 1 11 3t26.5 13.5t37.5 27t39 46.5t35 70q19 49 25 95t2 68l-4 21q20 11 53 11q92 0 92 -109q0 -120 -80 -209.5t-162 -89.5q-35 0 -53.5 13t-20.5 27z" />
<glyph unicode="&#xfb;" horiz-adv-x="1124" d="M154 379v610q24 19 61 19q82 0 82 -90v-521q0 -159 58.5 -225t179.5 -66q132 0 213 94t81 261v528q25 19 62 19q82 0 82 -90v-912q-2 -2 -9 -5.5t-22.5 -8t-32.5 -4.5q-80 0 -80 90v117h-4q-30 -87 -114.5 -150t-214.5 -63q-166 0 -254 94.5t-88 302.5zM225 1266l217 223 q63 63 125 63t125 -63l219 -223l-2.5 -7.5t-8 -16.5t-15 -21.5t-23.5 -17t-33 -7.5q-41 0 -75 37l-133 141q-39 39 -54 39q-14 0 -53 -39l-131 -141q-37 -37 -78 -37q-27 0 -47 17.5t-26 34.5z" />
<glyph unicode="&#xfc;" horiz-adv-x="1124" d="M154 379v610q24 19 61 19q82 0 82 -90v-521q0 -159 58.5 -225t179.5 -66q132 0 213 94t81 261v528q25 19 62 19q82 0 82 -90v-912q-2 -2 -9 -5.5t-22.5 -8t-32.5 -4.5q-80 0 -80 90v117h-4q-30 -87 -114.5 -150t-214.5 -63q-166 0 -254 94.5t-88 302.5zM313 1274v61 q0 101 105 101q18 0 35.5 -5t25.5 -9l8 -5v-61q0 -101 -104 -101q-19 0 -36.5 4.5t-25.5 9.5zM672 1274v61q0 101 104 101q18 0 35.5 -5t26.5 -9l8 -5v-61q0 -101 -105 -101q-19 0 -36.5 4.5t-24.5 9.5z" />
<glyph unicode="&#xfd;" horiz-adv-x="1085" d="M31 989q26 19 65 19q46 0 71 -21t46 -72l305 -792h2l340 872q18 9 45 9q35 0 56.5 -20t21.5 -54q0 -22 -10 -45l-357 -885q-34 -85 -57 -138.5t-50 -107.5t-48.5 -83.5t-48 -54.5t-55 -34.5t-62.5 -9.5q-21 0 -38 5t-26 12t-15 14.5t-8 12.5l-1 5q3 1 9 4t24 15.5t37 30 t46 50t52 72.5q28 46 53.5 97t37.5 78l11 28q-35 10 -59 37.5t-43 77.5zM406 1249q4 1 11 3t26.5 13.5t37.5 27t39 46.5t35 70q19 49 25 95t2 68l-4 21q20 11 53 11q92 0 92 -109q0 -120 -80 -209.5t-162 -89.5q-35 0 -53.5 13t-19.5 27z" />
<glyph unicode="&#xfe;" horiz-adv-x="1105" d="M154 -332v1739q24 18 61 18q82 0 82 -90v-534h2q32 88 116 153.5t210 65.5q187 0 289 -127t102 -381t-121.5 -393t-321.5 -139q-157 0 -276 75v-461q-27 -16 -64 -16q-39 0 -59 20.5t-20 69.5zM297 150q140 -56 248 -56q144 0 232.5 102t88.5 296q0 205 -72 304t-204 99 q-131 0 -212 -96.5t-81 -263.5v-385z" />
<glyph unicode="&#xff;" horiz-adv-x="1052" d="M35 989q26 19 65 19q46 0 71 -21t46 -72l305 -792h2l340 872q18 9 45 9q35 0 56.5 -20t21.5 -54q0 -22 -10 -45l-356 -885q-100 -249 -162.5 -338.5t-159.5 -89.5q-21 0 -38 5t-26 12t-15 14.5t-8 12.5l-1 5q3 1 9 4t24 15.5t37 30t46 50t52 72.5q28 46 53.5 97t37.5 78 l11 28q-35 10 -59 37.5t-43 77.5zM266 1274v61q0 101 105 101q18 0 35.5 -5t25.5 -9l8 -5v-61q0 -101 -104 -101q-19 0 -36.5 4.5t-25.5 9.5zM625 1274v61q0 101 104 101q18 0 35.5 -5t25.5 -9l9 -5v-61q0 -101 -105 -101q-19 0 -36.5 4.5t-25.5 9.5z" />
<glyph unicode="&#x152;" horiz-adv-x="2039" d="M113 694q0 175 43 303.5t122 204t181 111t231 35.5q299 0 430 -203v162h789q10 -17 10 -50q0 -36 -21 -57.5t-63 -21.5h-565v-428h618q10 -19 10 -50q0 -36 -20.5 -57.5t-62.5 -21.5h-545v-492h659q10 -16 10 -49q0 -36 -21 -58t-63 -22h-735v227q-70 -117 -182 -180 t-246 -63q-261 0 -420 186.5t-159 523.5zM268 694q0 -281 118.5 -432t305.5 -151q88 0 164.5 37t135 108t92.5 183.5t34 254.5q0 520 -428 520q-92 0 -166 -28.5t-133 -88t-91 -162t-32 -241.5z" />
<glyph unicode="&#x153;" horiz-adv-x="1746" d="M102 530q0 245 118.5 367.5t330.5 122.5q282 0 379 -199q102 199 362 199q179 0 276 -100.5t97 -264.5q0 -80 -16.5 -105.5t-71.5 -25.5h-573q-2 -198 87 -308t269 -110q57 0 103.5 3t64.5 7l18 3q6 -12 6 -43q0 -47 -51 -69.5t-172 -22.5q-143 0 -246.5 64.5 t-156.5 182.5q-54 -115 -150.5 -181t-224.5 -66q-142 0 -245 72.5t-153.5 195t-50.5 278.5zM252 528q0 -199 80.5 -310.5t218.5 -111.5q141 0 222 111.5t81 310.5q0 363 -303 363q-143 0 -221 -88.5t-78 -274.5zM1010 627h516q8 117 -49 193.5t-181 76.5q-266 0 -286 -270z " />
<glyph unicode="&#x178;" horiz-adv-x="1273" d="M31 1307q27 28 80 28q52 0 81.5 -15t57.5 -54l397 -543h2l463 623q11 2 23 2q40 0 64 -22t24 -54q0 -34 -21 -62l-481 -624v-580q-25 -18 -66 -18q-84 0 -84 90v506zM399 1540v62q0 100 105 100q18 0 35.5 -5t25.5 -9l8 -5v-61q0 -100 -104 -100q-19 0 -36.5 4.5 t-25.5 9.5zM758 1540v62q0 100 104 100q18 0 35.5 -5t26.5 -9l8 -5v-61q0 -100 -105 -100q-19 0 -36.5 4.5t-24.5 9.5z" />
<glyph unicode="&#x2c6;" horiz-adv-x="929" d="M123 1266l217 223q63 63 125 63t125 -63l219 -223l-2.5 -7.5t-8 -16.5t-15 -21.5t-23.5 -17t-33 -7.5q-42 0 -76 37l-133 141q-24 24 -33.5 31.5t-19.5 7.5q-14 0 -53 -39l-131 -141q-37 -37 -78 -37q-27 0 -47 17.5t-26 34.5z" />
<glyph unicode="&#x2dc;" horiz-adv-x="1050" d="M123 1309q0 69 52.5 112t160.5 43q66 0 136.5 -25t134.5 -50t114 -25q41 0 74.5 9t53 22t33 26t18.5 22l5 9q23 -23 23 -66q0 -71 -51 -115t-156 -44q-63 0 -131 24.5t-131.5 49t-114.5 24.5q-39 0 -73 -9t-55 -22t-36 -26t-22 -22l-6 -9q-29 23 -29 72z" />
<glyph unicode="&#x2000;" horiz-adv-x="961" />
<glyph unicode="&#x2001;" horiz-adv-x="1923" />
<glyph unicode="&#x2002;" horiz-adv-x="961" />
<glyph unicode="&#x2003;" horiz-adv-x="1923" />
<glyph unicode="&#x2004;" horiz-adv-x="641" />
<glyph unicode="&#x2005;" horiz-adv-x="480" />
<glyph unicode="&#x2006;" horiz-adv-x="320" />
<glyph unicode="&#x2007;" horiz-adv-x="320" />
<glyph unicode="&#x2008;" horiz-adv-x="240" />
<glyph unicode="&#x2009;" horiz-adv-x="384" />
<glyph unicode="&#x200a;" horiz-adv-x="106" />
<glyph unicode="&#x2010;" horiz-adv-x="909" d="M147 580q0 36 20.5 56.5t63.5 20.5h521q10 -16 10 -49q0 -36 -21 -57t-63 -21h-520q-11 17 -11 50z" />
<glyph unicode="&#x2011;" horiz-adv-x="909" d="M147 580q0 36 20.5 56.5t63.5 20.5h521q10 -16 10 -49q0 -36 -21 -57t-63 -21h-520q-11 17 -11 50z" />
<glyph unicode="&#x2012;" horiz-adv-x="909" d="M147 580q0 36 20.5 56.5t63.5 20.5h521q10 -16 10 -49q0 -36 -21 -57t-63 -21h-520q-11 17 -11 50z" />
<glyph unicode="&#x2013;" horiz-adv-x="1574" d="M174 580q0 36 21 56.5t63 20.5h1135q10 -16 10 -49q0 -36 -21 -57t-63 -21h-1135q-10 17 -10 50z" />
<glyph unicode="&#x2014;" horiz-adv-x="2394" d="M174 580q0 36 21 56.5t63 20.5h1954q10 -16 10 -49q0 -36 -21 -57t-63 -21h-1954q-10 17 -10 50z" />
<glyph unicode="&#x2018;" horiz-adv-x="589" d="M188 1135q0 125 84 225t168 100q33 0 52 -14t22 -28l2 -13q-4 -1 -11.5 -3.5t-28 -15.5t-39.5 -31.5t-42 -54t-39 -79.5q-20 -54 -25.5 -101t-0.5 -68l4 -20q-20 -12 -51 -12q-95 0 -95 115z" />
<glyph unicode="&#x2019;" horiz-adv-x="589" d="M76 1075q4 1 11 3.5t27.5 15.5t39 31.5t41 54t38.5 80.5q20 54 26.5 101t2.5 67l-4 20q18 12 51 12q94 0 94 -114q0 -125 -83.5 -225.5t-167.5 -100.5q-34 0 -53 14t-21 28z" />
<glyph unicode="&#x201a;" horiz-adv-x="602" d="M82 -154q4 1 11 4t27.5 16t39.5 31.5t41.5 54t38.5 79.5q20 54 26 101.5t2 67.5l-4 21q18 10 51 10q95 0 95 -112q0 -126 -84 -227t-168 -101q-21 0 -37 5.5t-23 13.5t-11 16.5t-5 13.5v6z" />
<glyph unicode="&#x201c;" horiz-adv-x="907" d="M188 1135q0 125 84 225t168 100q33 0 52 -14t22 -28l2 -13q-4 -1 -11.5 -3.5t-28 -15.5t-39.5 -31.5t-42 -54t-39 -79.5q-20 -54 -25.5 -101t-0.5 -68l4 -20q-20 -12 -51 -12q-95 0 -95 115zM506 1135q0 125 84 225t168 100q33 0 52 -14t22 -28l2 -13q-4 -1 -11.5 -3.5 t-28 -15.5t-39.5 -31.5t-42 -54t-39 -79.5q-20 -54 -26 -101t-2 -68l5 -20q-20 -12 -51 -12q-94 0 -94 115z" />
<glyph unicode="&#x201d;" horiz-adv-x="907" d="M76 1075q4 1 11 3.5t27.5 15.5t39 31.5t41 54t38.5 80.5q20 54 26.5 101t2.5 67l-4 20q18 12 51 12q94 0 94 -114q0 -125 -83.5 -225.5t-167.5 -100.5q-34 0 -53 14t-21 28zM393 1075q4 1 11 3.5t27.5 15.5t39.5 31.5t41.5 54t38.5 80.5q20 54 26 101t2 67l-4 20 q19 12 52 12q94 0 94 -114q0 -125 -84 -225.5t-168 -100.5q-34 0 -53 14t-21 28z" />
<glyph unicode="&#x201e;" horiz-adv-x="919" d="M82 -154q4 1 11 4t27.5 16t39.5 31.5t41.5 54t38.5 79.5q20 54 26 101.5t2 67.5l-4 21q18 10 51 10q95 0 95 -112q0 -126 -84 -227t-168 -101q-21 0 -37 5.5t-23 13.5t-11 16.5t-5 13.5v6zM399 -154q4 1 11 4t27.5 16t39.5 31.5t41.5 54t38.5 79.5q20 54 26.5 101.5 t2.5 67.5l-4 21q18 10 51 10q94 0 94 -112q0 -126 -84 -227t-168 -101q-21 0 -37 5.5t-23 13.5t-11 16.5t-4 13.5z" />
<glyph unicode="&#x2022;" horiz-adv-x="526" d="M102 526v136q0 91 53 132.5t138 41.5q35 0 68 -8t49 -16l16 -9v-133q0 -91 -53.5 -133.5t-139.5 -42.5q-34 0 -66.5 8t-48.5 16z" />
<glyph unicode="&#x2026;" horiz-adv-x="1656" d="M184 8v76q0 52 30 76t79 24q20 0 39 -4.5t28 -9.5l9 -4v-78q0 -52 -30.5 -76t-80.5 -24q-19 0 -37.5 5t-27.5 10zM737 8v76q0 52 30 76t79 24q20 0 39 -4.5t28 -9.5l9 -4v-78q0 -52 -30.5 -76t-80.5 -24q-19 0 -37.5 5t-27.5 10zM1290 8v76q0 52 30 76t79 24 q20 0 39 -4.5t28 -9.5l9 -4v-78q0 -52 -30.5 -76t-80.5 -24q-19 0 -37.5 5t-27.5 10z" />
<glyph unicode="&#x202f;" horiz-adv-x="384" />
<glyph unicode="&#x2039;" horiz-adv-x="948" d="M164 588l444 432l7.5 -2.5t16.5 -8t21.5 -15t17 -23t7.5 -31.5q0 -42 -39 -78l-291 -274l291 -275q39 -36 39 -75q0 -28 -17.5 -48.5t-34.5 -27.5l-18 -6z" />
<glyph unicode="&#x203a;" horiz-adv-x="948" d="M270 238q0 41 39 75l291 275l-291 274q-39 34 -39 78q0 27 17.5 47t34.5 27l18 6l444 -432l-444 -432l-7.5 2.5t-16.5 8t-21.5 15t-17 23.5t-7.5 33z" />
<glyph unicode="&#x205f;" horiz-adv-x="480" />
<glyph unicode="&#x20ac;" horiz-adv-x="1527" d="M147 508q0 36 21 57t63 21h162q-7 81 -4 149h-231q-11 16 -11 49q0 36 21 57t63 21h170q37 249 186 367.5t384 118.5q120 0 199 -8.5t118 -26t53.5 -37.5t14.5 -49q0 -16 -3 -29t-7 -18l-3 -6q-125 32 -348 32q-185 0 -293.5 -83t-140.5 -261h600q10 -16 10 -49 q0 -36 -21 -57t-63 -21h-542q-3 -68 4 -149h612q10 -16 10 -49q0 -36 -21 -57t-63 -21h-514q44 -172 159 -258t288 -86q94 0 167 7.5t99 15.5l27 7q6 -12 6 -45q0 -116 -328 -116q-225 0 -375.5 122.5t-201.5 352.5h-256q-11 16 -11 49z" />
<glyph unicode="&#x2122;" horiz-adv-x="1748" d="M147 1251q0 56 62 56h565q8 -15 8 -35q0 -26 -15 -42t-46 -16h-201v-555q-20 -14 -49 -14q-61 0 -61 64v505h-254q-9 14 -9 37zM877 709v594q30 20 71 20q52 0 78.5 -22t46.5 -72l166 -432h4l193 508q28 16 63 16q48 0 75.5 -24.5t27.5 -69.5v-568q-17 -14 -48 -14 q-63 0 -63 64l6 481h-2l-197 -526q-20 -19 -55 -19q-55 0 -78 62l-182 483h-2l4 -531q-16 -14 -47 -14q-61 0 -61 64z" />
<glyph unicode="&#x25fc;" horiz-adv-x="1013" d="M0 0v1014h1014v-1014h-1014z" />
<glyph unicode="&#xfb01;" horiz-adv-x="968" d="M143 -332v1544q0 123 74 184.5t238 61.5q78 0 129.5 -7t76 -20t33 -27.5t8.5 -35.5q0 -14 -1.5 -24.5t-2.5 -14.5l-2 -4q-63 8 -198 8q-127 0 -169 -31.5t-42 -115.5v-207h495v-795q0 -94 76 -94l33 2q6 -8 6 -26q0 -35 -27.5 -58.5t-81.5 -23.5q-149 0 -149 178v692 h-352v-1260q-27 -16 -64 -16q-80 0 -80 90z" />
<glyph unicode="&#xfb02;" horiz-adv-x="1030" d="M143 -332v1528q0 138 90.5 216.5t264.5 78.5q175 0 263.5 -78t88.5 -217v-1012q0 -94 76 -94l32 2q7 -8 7 -26q0 -35 -27.5 -58.5t-81.5 -23.5q-149 0 -149 178v1018q0 97 -49.5 141.5t-159.5 44.5t-160.5 -44.5t-50.5 -139.5v-203h264q10 -16 10 -49q0 -76 -84 -76h-190 v-1260q-27 -16 -64 -16q-80 0 -80 90z" />
</font>
</defs>
</svg>
