<?xml version="1.0" standalone="no"?>
<!DOCTYPE svg PUBLIC "-//W3C//DTD SVG 1.1//EN" "http://www.w3.org/Graphics/SVG/1.1/DTD/svg11.dtd" >
<svg xmlns="http://www.w3.org/2000/svg">
<metadata>Generated by IcoMoon</metadata>
<defs>
<font id="TelcelFont" horiz-adv-x="1024">
<font-face units-per-em="1024" ascent="960" descent="-64" />
<missing-glyph horiz-adv-x="1024" />
<glyph unicode="&#x20;" horiz-adv-x="512" d="" />
<glyph unicode="&#xe900;" glyph-name="dosts-vertical" d="M620.606 851.394c0-59.981-48.625-108.606-108.606-108.606s-108.606 48.625-108.606 108.606c0 59.981 48.625 108.606 108.606 108.606s108.606-48.625 108.606-108.606zM620.606 448c0-59.981-48.625-108.606-108.606-108.606s-108.606 48.625-108.606 108.606c0 59.981 48.625 108.606 108.606 108.606s108.606-48.625 108.606-108.606zM620.606 44.606c0-59.981-48.625-108.606-108.606-108.606s-108.606 48.625-108.606 108.606c0 59.981 48.625 108.606 108.606 108.606s108.606-48.625 108.606-108.606z" />
<glyph unicode="&#xe901;" glyph-name="lista" d="M350.007 547.708h596.999v-184.914h-596.999v184.914zM350.034 839.263h596.973v-184.929h-596.973v184.929zM141.159 647.941h40.293v200.059h-32.838c0-1.753-0.497-4.422-1.505-8.005-1.777-5.991-4.328-10.764-7.717-14.347-4.956-5.256-11.378-8.762-19.264-10.488-4.956-1.125-13.654-1.949-26.011-2.485v-26.758h47.043v-137.976zM350.034 256.192h596.973v-184.914h-596.973v184.914zM150.615 64.32c22.966 0 40.32 6.434 52.039 19.252 11.732 12.842 17.589 27.687 17.589 44.635 0 16.1-5.033 28.811-15.065 38.058-6.708 6.199-11.862 9.261-15.458 9.261 4.812 1.857 9.402 5.283 13.797 10.357 7.009 8.095 10.488 18.035 10.488 29.818 0 16.65-5.86 29.897-17.55 39.811-11.746 9.862-27.138 14.818-46.259 14.818-10.292 0-18.99-1.242-26.052-3.726-7.074-2.497-13.181-6.080-18.336-10.764-6.878-6.631-11.952-13.85-15.169-21.63-3.035-8.96-4.708-18.376-5.089-28.314h36.712c-0.196 9.86 1.882 17.72 6.265 23.606 4.328 5.884 11.155 8.815 20.44 8.815 8.070 0 14.321-2.407 18.781-7.181 4.42-4.786 6.67-10.973 6.67-18.609 0-11.785-4.369-19.606-13.065-23.477-5.048-2.288-13.942-3.53-26.692-3.714v-28.157c13.038 0 22.573-1.229 28.627-3.714 10.645-4.42 15.957-13.235 15.957-26.353 0-9.966-2.892-17.55-8.606-22.862-5.729-5.283-12.464-7.911-20.166-7.911-12.556 0-21.252 4.851-26.013 14.49-2.589 5.217-3.884 11.848-3.884 19.853h-38.61c0.64-15.916 3.845-28.811 9.651-38.62 11.012-18.51 30.696-27.742 58.998-27.742zM132.33 434.487c-20.898-14.896-34.121-29.032-39.731-42.359-5.807-11.862-8.893-24.98-9.259-39.328h137.009v34.644h-87.35c2.497 4.107 5.557 7.743 9.193 10.895 3.622 3.125 10.384 8.187 20.258 15.172l15.734 11.194c13.274 9.365 22.847 17.879 28.627 25.504 8.854 11.494 13.276 24.666 13.276 39.483 0 19.303-6.265 34.826-18.781 46.572-12.529 11.717-29.386 17.577-50.548 17.577-26.809 0-45.459-9.966-55.947-29.924-5.559-10.488-8.633-24.234-9.261-41.261h38.228c0.446 11.22 1.937 19.407 4.395 24.559 4.33 8.919 12.476 13.392 24.43 13.392 8.749 0 15.446-2.824 20.154-8.461 4.682-5.598 7.050-12.633 7.050-21.094 0-10.372-4.107-19.957-12.294-28.695-5.325-5.609-17.068-14.895-35.183-27.87z" />
<glyph unicode="&#xe902;" glyph-name="mosaico" d="M64.006 896h385v-385h-385v385zM64.006 388h385v-385h-385v385zM571.006 894h385v-385h-385v385zM571.006 386h385v-385h-385v385z" />
<glyph unicode="&#xe903;" glyph-name="save-doc" d="M987.136 671.232l-239.616 249.856c-10.24 10.24-22.528 16.384-36.864 16.384h-636.928c-30.72 0-53.248-24.576-53.248-51.2v-872.448c0-28.672 22.528-53.248 53.248-53.248h876.544c28.672 0 53.248 22.528 53.248 53.248v622.592c-2.048 14.336-8.192 24.576-16.384 34.816zM593.92 794.112v-149.504c0-20.48-16.384-34.816-34.816-34.816h-98.304c-20.48 0-34.816 16.384-34.816 34.816v149.504c0 20.48 16.384 34.816 34.816 34.816h98.304c18.432 0 34.816-16.384 34.816-34.816zM749.568 30.208h-491.52v253.952h491.52v-253.952zM931.84 30.208h-110.592v260.096c0 34.816-26.624 63.488-63.488 63.488h-507.904c-34.816 0-63.488-26.624-63.488-63.488v-260.096h-96.256v835.584h88.064v-282.624c0-26.624 22.528-51.2 51.2-51.2h393.216c26.624 0 51.2 22.528 51.2 51.2v282.624h28.672l227.328-237.568v-598.016h2.048z" />
<glyph unicode="&#xe904;" glyph-name="download-mte" d="M512 939.52c-270.336 0-491.52-221.184-491.52-491.52s221.184-491.52 491.52-491.52 491.52 221.184 491.52 491.52-221.184 491.52-491.52 491.52zM391.168 546.304h79.872v178.176c0 24.576 14.336 47.104 38.912 47.104s38.912-22.528 38.912-47.104v-178.176h79.872c14.336 0 20.48-18.432 12.288-26.624l-120.832-126.976c-6.144-6.144-16.384-6.144-22.528 0l-122.88 126.976c-2.048 8.192 4.096 26.624 16.384 26.624zM786.432 192c0-16.384-14.336-20.48-28.672-20.48h-491.52c-16.384 0-28.672 4.096-28.672 20.48v147.456c0 16.384 14.336 26.624 28.672 26.624s28.672-12.288 28.672-26.624v-108.544h432.128v108.544c0 16.384 14.336 26.624 28.672 26.624s28.672-12.288 28.672-26.624v-147.456z" />
<glyph unicode="&#xe905;" glyph-name="gestionar-alias" d="M484.693 417.28c92.16 0 141.653-58.027 141.653-58.027v558.080h-290.133v-551.253c0 0 54.613 51.2 148.48 51.2zM585.387 468.48h-145.067v76.8h145.067v-76.8zM585.387 582.827h-76.8v85.333h76.8v-85.333zM506.88 847.36h76.8v-136.533h-76.8v136.533zM373.76 847.36h76.8v-76.8h-76.8v76.8zM373.76 705.707h76.8v-119.467h-76.8v119.467zM868.693 622.080v92.16h-42.667v90.453h-29.013v85.333h-25.6v-85.333h-30.72v-88.747h-42.667v-92.16h-34.133v-286.72l76.8-131.413h162.133v416.427h-34.133zM781.653 495.787h-76.8v76.8h76.8v-76.8zM872.107 378.027h-167.253v76.8h167.253v-76.8zM296.96 359.253v332.8h-175.787v-488.107h100.693l75.093 155.307zM249.173 536.747h-76.8v116.053h76.8v-116.053zM628.053 202.24l37.547 30.72h1.707l-1.707 1.707-29.013 54.613-6.827-1.707-40.96-13.653c-8.533 6.827-17.067 13.653-25.6 20.48l3.413 49.493-59.733 17.067-22.187-46.080c-10.24 0-22.187 0-32.427-3.413l-30.72 37.547-54.613-29.013 15.36-47.787c-8.533-8.533-15.36-15.36-20.48-25.6l-20.48 1.707-30.72 3.413-10.24-35.84-8.533-25.6 44.373-22.187c0-10.24 1.707-22.187 3.413-32.427l-37.547-30.72 30.72-52.907 47.787 15.36c8.533-8.533 17.067-13.653 27.307-20.48l-5.12-49.493 61.44-17.067 22.187 46.080c10.24 0 22.187 1.707 32.427 3.413l30.72-37.547 54.613 30.72-15.36 47.787c8.533 8.533 13.653 17.067 20.48 27.307l49.493-3.413 17.067 59.733-44.373 22.187c-1.707 3.413-1.707 13.653-3.413 25.6zM482.987 120.32c-27.307 0-47.787 20.48-47.787 47.787 0 13.653 6.827 27.307 15.36 35.84s18.773 10.24 30.72 10.24 23.893-5.12 30.72-10.24c10.24-10.24 17.067-22.187 17.067-35.84 1.707-27.307-20.48-47.787-46.080-47.787z" />
<glyph unicode="&#xe906;" glyph-name="notificacion-bloq" d="M882.347 814.933c-13.653 13.653-34.133 13.653-47.787 0l-133.12-133.12c-32.427 47.787-80.213 83.627-138.24 95.573v51.2c0 25.6-27.307 46.080-51.2 46.080s-51.2-20.48-51.2-46.080v-51.2c-102.4-20.48-170.667-114.347-170.667-226.987v-167.253l-90.453-133.12c-8.533-13.653-11.947-34.133-3.413-49.493 3.413-5.12 6.827-10.24 10.24-13.653l-85.333-85.333c-13.653-13.653-13.653-34.133 0-47.787 6.827-6.827 15.36-10.24 23.893-10.24s17.067 3.413 23.893 10.24l713.387 713.387c13.653 13.653 13.653 34.133 0 47.787zM409.6 122.027c0-56.32 47.787-100.693 102.4-100.693s102.4 46.080 102.4 100.693c0 0 0 1.707 0 1.707l-204.8-1.707c0 1.707 0 0 0 0zM733.867 383.147v138.24l-339.627-346.453h395.947c17.067 0 32.427 10.24 39.253 25.6 8.533 15.36 5.12 34.133-5.12 47.787l-90.453 134.827z" />
<glyph unicode="&#xe907;" glyph-name="maletin" d="M624.64 288.256c-73.728 0-149.504 0-223.232 0 0 43.008 0 86.016 0 129.024-124.928 0-251.904 0-376.832 0 0-4.096 0-6.144 0-8.192 0-124.928 0-249.856 0-374.784 0 0 0-2.048 0-4.096 325.632 0 655.36 0 980.992 0 0 129.024 0 260.096 0 389.12-124.928 0-251.904 0-378.88 0-2.048-45.056-2.048-88.064-2.048-131.072zM962.56 704c-12.288 0-126.976 0-172.032 0-4.096 0-8.192 0-14.336 0 0 12.288 0 24.576 0 36.864 0 16.384 0 30.72-2.048 45.056-8.192 38.912-30.72 65.536-71.68 73.728-4.096 2.048-6.144 2.048-10.24 4.096-120.832 0-239.616 0-360.448 0-4.096 0-8.192-2.048-10.24-4.096-43.008-8.192-75.776-47.104-75.776-98.304 0-16.384-2.048-59.392-2.048-59.392s-114.688 0-167.936 0c-40.96 0-57.344-6.144-57.344-40.96 0-51.2 0-182.272 0-182.272 4.096 0 8.192 0 12.288 2.048 120.832 0 239.616 0 360.448 0 4.096 0 6.144 0 10.24 0 0 28.672 0 59.392 0 88.064 73.728 0 149.504 0 223.232 0 0-28.672 0-59.392 0-88.064 4.096 0 8.192 0 12.288 0 118.784 0 235.52 0 354.304 0 4.096 0 8.192 0 12.288 0 0 0 0 122.88 0 180.224 0 24.576-10.24 43.008-40.96 43.008zM706.56 704c-129.024 0-260.096 0-391.168 0 0 24.576-2.048 45.056 0 67.584 2.048 14.336 16.384 24.576 30.72 24.576 108.544 0 219.136 0 325.632 0 18.432 0 36.864-14.336 34.816-34.816 0-18.432 0-40.96 0-57.344zM454.656 511.488c0-55.296 0-110.592 0-165.888 36.864 0 73.728 0 112.64 0 0 55.296 0 110.592 0 165.888-36.864 0-75.776 0-112.64 0z" />
<glyph unicode="&#xe908;" glyph-name="ingresar" horiz-adv-x="754" d="M476.279 636.13h76.205c17.464 0 31.752 14.288 31.752 31.752v31.752c0 17.464-14.288 31.752-31.752 31.752h-76.205c-17.464 0-31.752-14.288-31.752-31.752v-31.752c0-17.464 14.288-31.752 31.752-31.752zM215.913 731.386h-77.792c-17.464 0-31.752-14.288-31.752-31.752v-31.752c0-17.464 14.288-31.752 31.752-31.752h76.205c17.464 0 31.752 14.288 31.752 31.752v31.752c1.588 17.464-12.701 31.752-30.164 31.752zM307.994 748.85h76.205c17.464 0 31.752 14.288 31.752 31.752v31.752c0 17.464-14.288 31.752-31.752 31.752h-76.205c-17.464 0-31.752-14.288-31.752-31.752v-31.752c0-17.464 14.288-31.752 31.752-31.752zM476.279 748.85h76.205c17.464 0 31.752 14.288 31.752 31.752v31.752c0 17.464-14.288 31.752-31.752 31.752h-76.205c-17.464 0-31.752-14.288-31.752-31.752v-31.752c0-17.464 14.288-31.752 31.752-31.752zM215.913 845.693h-77.792c-17.464 0-31.752-14.288-31.752-31.752v-31.752c0-17.464 14.288-31.752 31.752-31.752h76.205c17.464 0 31.752 14.288 31.752 31.752v31.752c1.588 17.464-12.701 31.752-30.164 31.752zM300.056 636.13c1.588 6.35 6.35 12.701 11.113 19.051 9.526 9.526 22.226 14.288 34.927 14.288 19.051 0 39.69-11.113 46.040-31.752 14.288 3.175 23.814 15.876 23.814 30.164v31.752c0 17.464-14.288 31.752-31.752 31.752h-76.205c-17.464 0-31.752-14.288-31.752-31.752v-31.752c0-15.876 9.526-26.989 23.814-31.752zM642.977 353.538c-3.175 19.051-15.876 63.504-68.267 66.679-6.35 0-12.701 3.175-17.464 9.526-11.113 17.464-26.989 26.989-46.040 26.989-6.35 0-12.701-1.588-19.051-3.175-1.588 0-4.763-1.588-6.35-1.588-7.938 0-14.288 3.175-19.051 9.526-11.113 15.876-25.402 22.226-44.453 22.226-3.175 0-7.938 0-11.113-1.588-1.588 0-3.175 0-3.175 0-12.701 0-23.814 11.113-23.814 23.814v112.719c0 26.989-20.639 38.102-38.102 38.102-11.113 0-20.639-4.763-28.577-11.113-6.35-6.35-11.113-15.876-11.113-28.577v-241.315c0-9.526-6.35-17.464-14.288-22.226-14.288-6.35-23.814-15.876-28.577-30.164-17.464-58.741 55.566-168.285 69.854-190.512 1.588-3.175 3.175-7.938 4.763-11.113l4.763-61.916c0-6.35 6.35-12.701 14.288-12.701h211.15c6.35 0 12.701 4.763 14.288 11.113l7.938 65.091c0 3.175 1.588 6.35 3.175 9.526 44.453 74.617 61.916 147.647 49.216 220.676z" />
<glyph unicode="&#xe909;" glyph-name="file" horiz-adv-x="882" d="M590.222 803.556v-82.489h99.556zM713.956 558.933h-24.178v143.644h-116.622v100.978h-381.156v-244.622h-24.178c-27.022 0-49.778-22.756-49.778-49.778v-122.311c0-27.022 22.756-49.778 49.778-49.778h24.178v-244.622h499.2v244.622h24.178c27.022 0 49.778 22.756 49.778 49.778v122.311c-1.422 28.444-24.178 49.778-51.2 49.778zM746.667 386.844c0-18.489-14.222-32.711-32.711-32.711h-546.133c-18.489 0-32.711 14.222-32.711 32.711v122.311c0 18.489 14.222 32.711 32.711 32.711h546.133c18.489 0 32.711-14.222 32.711-32.711v-122.311zM298.667 408.178h14.222v32.711h28.444v12.8h-28.444v21.333h32.711v12.8h-46.933zM381.156 487.822h14.222v-78.222h-14.222v78.222zM449.422 487.822h-14.222v-79.644h46.933v12.8h-32.711zM531.911 443.733h27.022v11.378h-27.022v19.911h32.711v12.8h-46.933v-79.644h48.356v12.8h-34.133z" />
<glyph unicode="&#xe90a;" glyph-name="ojo" d="M509.444 559.601c-66.449 0-120.972-49.411-120.972-110.749s54.522-110.749 120.972-110.749c66.449 0 120.972 49.411 120.972 110.749s-54.522 110.749-120.972 110.749zM511.148 396.033c-32.373 0-57.93 23.854-57.93 52.819s25.557 52.819 57.93 52.819 57.93-23.854 57.93-52.819-25.557-52.819-57.93-52.819zM511.148 874.809c-235.128 0-425.957-190.829-425.957-425.957s190.829-425.957 425.957-425.957 425.957 190.829 425.957 425.957-190.829 425.957-425.957 425.957zM797.391 414.775c0 0-100.526-156.752-287.947-156.752-189.125 0-287.947 156.752-287.947 156.752-20.446 20.446-59.634 34.077-59.634 34.077s39.188 11.927 59.634 34.077c0 0 100.526 156.752 287.947 156.752 189.125 0 287.947-156.752 287.947-156.752 20.446-20.446 63.042-34.077 63.042-34.077s-42.596-13.631-63.042-34.077z" />
<glyph unicode="&#xe90b;" glyph-name="info" d="M511.148 874.809c-235.128 0-425.957-190.829-425.957-425.957s190.829-425.957 425.957-425.957 425.957 190.829 425.957 425.957-190.829 425.957-425.957 425.957zM436.18 711.241c0 18.742 15.334 34.077 34.077 34.077h81.784c18.742 0 34.077-15.334 34.077-34.077v-40.892c0-18.742-15.334-34.077-34.077-34.077h-81.784c-18.742 0-34.077 15.334-34.077 34.077v40.892zM661.085 176.24c0-13.631-10.223-23.854-23.854-23.854h-252.166c-13.631 0-23.854 10.223-23.854 23.854v63.042c0 13.631 10.223 23.854 23.854 23.854h27.261c13.631 0 23.854 10.223 23.854 23.854v177.198c0 13.631-10.223 23.854-23.854 23.854h-27.261c-13.631 0-23.854 10.223-23.854 23.854v63.042c0 13.631 10.223 23.854 23.854 23.854h177.198c13.631 0 23.854-10.223 23.854-23.854v-287.947c0-13.631 10.223-23.854 23.854-23.854h27.261c13.631 0 23.854-10.223 23.854-23.854v-63.042z" />
<glyph unicode="&#xe90c;" glyph-name="lapiz" d="M639.2 745.6l47.7 47.8 170.6-170.6-47.7-47.7-170.6 170.5zM295.6 60.8l-170.6 170.7 485.6 486.7 170.6-170.6-485.6-486.8zM104.7 195.7l153.9-153.9-155.2-1.2 1.3 155.1zM803.8 856.6c32.2 0 60.9-11.9 82.3-33.4 22.6-22.7 34.6-52.6 33.4-85.9-1.2-32.2-13.2-62-34.6-85.9l-169.3 170.6c10.7 10.7 23.8 17.9 38.2 23.9 16.7 7.2 33.3 10.7 50 10.7zM913.6 624c60.9 65.7 62.1 167.1 1.2 227.9-29.8 29.8-70.4 44.1-111 44.1-44.2 0-89.5-16.7-124.1-51.3l-615.6-615.6v-229.1h227.9l621.6 622.8v1.2z" />
<glyph unicode="&#xe90d;" glyph-name="resumen" d="M609.374 644.319v196.319h-441.325v-785.276h686.331v588.957h-245.006zM223.018 694.577h337.669v-50.258h-337.669v50.258zM758.577 143.313h-172.761v109.939h172.761v-109.939zM758.577 349.055h-533.988v50.258h533.988v-50.258zM758.577 496.687h-533.988v50.258h533.988v-50.258zM659.632 840.638v-147.632h147.632z" />
<glyph unicode="&#xe90e;" glyph-name="llamada-espera" d="M791.558 677.301c0 0 0 1.571 0 0l53.399 54.969c9.423 9.423 9.423 25.129 0 34.552v0c-9.423 9.423-25.129 9.423-34.552 0l-47.117-48.687c-32.982 40.834-76.957 72.245-127.215 91.092v15.706c0 54.969-40.834 98.945-95.804 98.945s-98.945-43.975-98.945-98.945c0-4.712 0-9.423 1.571-15.706-113.080-40.834-191.607-147.632-191.607-271.706 0-177.472-40.834-328.245-62.822-394.209l-62.822-64.393c-9.423-9.423-9.423-25.129 0-34.552v0c9.423-9.423 25.129-9.423 34.552 0l21.988 21.988 609.374 610.945zM903.067 108.761c-3.141 3.141-75.387 191.607-75.387 428.761 0 32.982-4.712 64.393-15.706 94.233l-582.675-584.245h433.472c0-4.712-3.141-7.853-3.141-10.994 0-37.693 29.84-65.963 67.534-65.963 34.552 0 65.963 28.27 65.963 65.963 0 4.712-1.571 7.853-1.571 10.994h69.104c15.706 0 29.84 7.853 37.693 18.847 6.282 14.135 9.423 28.27 4.712 42.405z" />
<glyph unicode="&#xe90f;" glyph-name="servicios" d="M650.209 840.638h-276.417c-34.552 0-61.252-28.27-61.252-61.252v-662.773c0-34.552 28.27-61.252 61.252-61.252h276.417c34.552 0 61.252 28.27 61.252 61.252v662.773c0 32.982-26.699 61.252-61.252 61.252zM482.16 774.675h61.252c4.712 0 7.853-3.141 7.853-7.853s-3.141-7.853-7.853-7.853h-61.252c-4.712 0-7.853 3.141-7.853 7.853-1.571 4.712 3.141 7.853 7.853 7.853zM446.037 777.816c4.712 0 9.423-4.712 9.423-9.423s-4.712-9.423-9.423-9.423-9.423 4.712-9.423 9.423c0 4.712 4.712 9.423 9.423 9.423zM512 88.344c-21.988 0-37.693 17.276-37.693 37.693 0 21.988 17.276 37.693 37.693 37.693 21.988 0 37.693-17.276 37.693-37.693s-17.276-37.693-37.693-37.693zM681.62 192h-339.239v510.429h339.239v-510.429zM405.202 419.73c17.276 0 31.411 14.135 31.411 31.411s-14.135 31.411-31.411 31.411-31.411-14.135-31.411-31.411c1.571-18.847 15.706-31.411 31.411-31.411zM389.497 452.712h12.564v12.564c0 1.571 1.571 3.141 3.141 3.141s3.141-1.571 3.141-3.141v-12.564h12.564c1.571 0 3.141-1.571 3.141-3.141s-1.571-3.141-3.141-3.141h-12.564v-12.564c0-1.571-1.571-3.141-3.141-3.141s-3.141 1.571-3.141 3.141v12.564h-12.564c-1.571 0-3.141 1.571-3.141 3.141s1.571 3.141 3.141 3.141zM405.202 283.092c17.276 0 31.411 14.135 31.411 31.411s-14.135 31.411-31.411 31.411-31.411-14.135-31.411-31.411c1.571-17.276 15.706-31.411 31.411-31.411zM389.497 317.644h12.564v12.564c0 1.571 1.571 3.141 3.141 3.141s3.141-1.571 3.141-3.141v-12.564h12.564c1.571 0 3.141-1.571 3.141-3.141s-1.571-3.141-3.141-3.141h-12.564v-12.564c0-1.571-1.571-3.141-3.141-3.141s-3.141 1.571-3.141 3.141v12.564h-12.564c-1.571 0-3.141 1.571-3.141 3.141s1.571 3.141 3.141 3.141zM405.202 554.798c17.276 0 31.411 14.135 31.411 31.411s-14.135 31.411-31.411 31.411-31.411-14.135-31.411-31.411c1.571-17.276 15.706-31.411 31.411-31.411zM387.926 586.209c1.571 1.571 3.141 1.571 4.712 0l7.853-7.853 18.847 20.417c1.571 1.571 3.141 1.571 4.712 0s1.571-3.141 0-4.712l-23.558-25.129-12.564 10.994c-1.571 3.141-1.571 4.712 0 6.282zM455.46 605.055h106.798v-12.564h-106.798v12.564zM455.46 581.497h175.902v-12.564h-175.902v12.564zM455.46 473.129h106.798v-12.564h-106.798v12.564zM455.46 449.571h175.902v-12.564h-175.902v12.564zM455.46 331.779h106.798v-12.564h-106.798v12.564zM455.46 308.221h175.902v-12.564h-175.902v12.564z" />
<glyph unicode="&#xe910;" glyph-name="move-folder-2" d="M158.72 313.173h-63.147c-11.947 0-22.187 10.24-22.187 22.187v440.32c0 11.947 10.24 22.187 22.187 22.187h141.653c5.12 0 11.947-1.707 15.36-6.827l76.8-80.213c15.36-15.36 35.84-23.893 56.32-23.893h247.467c11.947 0 22.187-10.24 22.187-22.187v-54.613c0-15.36 11.947-29.013 29.013-29.013 15.36 0 29.013 11.947 29.013 29.013v54.613c0 42.667-35.84 78.507-78.507 78.507h-249.173c-5.12 0-11.947 1.707-15.36 6.827l-76.8 80.213c-15.36 15.36-35.84 23.893-56.32 23.893h-141.653c-42.667 0-78.507-35.84-78.507-78.507v-440.32c0-42.667 35.84-78.507 78.507-78.507h61.44c15.36 0 29.013 11.947 29.013 29.013s-11.947 27.307-27.307 27.307zM894.293 149.333c-15.36 0-29.013-11.947-29.013-29.013 0-11.947-10.24-22.187-22.187-22.187h-535.893c-11.947 0-22.187 10.24-22.187 22.187v442.027c0 11.947 10.24 22.187 22.187 22.187h141.653c5.12 0 11.947-1.707 15.36-6.827l76.8-80.213c15.36-15.36 35.84-23.893 56.32-23.893h247.467c11.947 0 22.187-10.24 22.187-22.187 0-15.36 11.947-29.013 29.013-29.013s29.013 11.947 29.013 29.013c0 42.667-35.84 78.507-78.507 78.507h-249.173c-5.12 0-11.947 1.707-15.36 6.827l-76.8 80.213c-15.36 15.36-35.84 23.893-56.32 23.893h-141.653c-42.667 0-78.507-35.84-78.507-78.507v-440.32c0-42.667 35.84-78.507 78.507-78.507h539.307c42.667 0 78.507 35.84 78.507 78.507-1.707 15.36-13.653 27.307-30.72 27.307zM991.573 313.173l-97.28 71.68c-10.24 6.827-22.187 5.12-29.013-5.12s-5.12-22.187 5.12-29.013l63.147-46.080h-201.387c-11.947 0-22.187-10.24-22.187-22.187s10.24-22.187 22.187-22.187h201.387l-64.853-51.2c-8.533-6.827-10.24-20.48-3.413-30.72 3.413-5.12 10.24-8.533 17.067-8.533 5.12 0 8.533 1.707 13.653 5.12l98.987 78.507c8.533 6.827 13.653 17.067 13.653 29.013-1.707 11.947-6.827 23.893-17.067 30.72z" />
<glyph unicode="&#xe911;" glyph-name="simple-avatar" d="M869.612 211.692c-47.262 20.48-100.825 44.111-148.086 63.015-14.178 3.151-26.782 7.877-40.96 11.028-15.754 11.028-31.508 48.837-40.96 66.166-7.877 1.575-17.329 3.151-25.206 3.151 1.575 28.357 18.905 29.932 25.206 51.988 6.302 18.905 0 44.111 9.452 61.44 6.302 12.603 22.055 12.603 29.932 23.631 6.302 9.452 11.028 26.782 14.178 37.809 3.151 22.055 7.877 50.412-3.151 72.468-6.302 12.603-9.452 12.603-11.028 28.357-1.575 17.329 4.726 77.194 6.302 89.797 0 33.083 0 63.015-7.877 94.523 0 0-9.452 28.357-25.206 37.809l-29.932 4.726-18.905 17.329c-75.618 45.686-155.963 14.178-200.074-3.151-63.015-20.48-102.4-108.702-74.043-239.458 4.726-22.055-12.603-31.508-11.028-44.111 1.575-26.782 3.151-89.797 28.357-105.551 1.575-1.575 20.48-6.302 20.48-4.726 3.151-25.206 4.726-51.988 7.877-77.194 6.302-17.329 22.055-18.905 25.206-44.111l-18.905-4.726c-9.452-18.905-25.206-55.138-40.96-66.166-14.178-3.151-26.782-7.877-40.96-11.028-47.262-18.905-100.825-42.535-148.086-63.015-44.111-18.905-94.523-25.206-110.277-70.892 0-31.508-3.151-103.975-1.575-144.935h945.231c0 40.96-1.575 113.428-1.575 144.935-17.329 45.686-69.317 51.988-113.428 70.892z" />
<glyph unicode="&#xe912;" glyph-name="notificacion" d="M413.013 123.733c0 0 0-1.707 0 0 0-56.32 44.373-102.4 98.987-102.4s98.987 46.080 98.987 100.693c0 0 0 0 0 0h-197.973zM827.733 250.027l-88.747 133.12v167.253c0 112.64-78.507 206.507-182.613 226.987v51.2c0 25.6-20.48 46.080-44.373 46.080s-44.373-20.48-44.373-46.080v-51.2c-104.107-20.48-182.613-114.347-182.613-226.987v-167.253l-88.747-133.12c-8.533-13.653-10.24-32.427-3.413-47.787 8.533-15.36 23.893-23.893 39.253-23.893h556.373c17.067 0 32.427 10.24 39.253 23.893 10.24 15.36 8.533 34.133 0 47.787v0z" />
<glyph unicode="&#xe913;" glyph-name="cancel" d="M254.149 448c0 49.349 14.805 94.998 40.713 134.477l355.316-346.68c-39.48-24.675-87.595-39.48-138.178-39.48-141.88 0-257.851 113.504-257.851 251.682zM769.851 448c0-49.349-14.805-96.231-40.713-134.477l-355.316 346.68c39.48 24.675 87.595 39.48 138.178 39.48 141.88 0 257.851-113.504 257.851-251.682zM512 809.484c-204.8 0-370.12-161.619-370.12-361.484s165.32-361.484 370.12-361.484 370.12 161.619 370.12 361.484-165.32 361.484-370.12 361.484z" />
<glyph unicode="&#xe914;" glyph-name="pay-telcel" d="M730.432 241.912c-3.971 1.61-12.129 4.938-12.129 6.548 0 2.039 3.435 3.649 6.44 3.649 9.982 0 18.891-7.836 18.999-7.836l4.401-3.864 14.383 28.015-2.254 2.361c-0.322 0.322-8.265 8.48-24.258 11.7v13.417h-24.044v-14.276c-16.315-4.294-27.049-17.281-27.049-33.382 0-21.79 20.287-30.377 33.704-36.065 4.508-1.932 11.163-4.723 11.914-6.333 0-3.542-5.474-3.542-6.118-3.542-10.734 0-20.716 9.338-20.823 9.446l-3.864 3.542-18.033-25.761 2.361-2.683c0.429-0.429 9.982-10.948 27.8-14.705v-13.525h24.044v13.632c16.959 4.079 28.015 17.389 28.015 34.133 0 22.004-20.179 30.055-33.489 35.529zM711.54 436.3h121.506v-74.385h53.132v122.365l-136.319 150.917h-111.953v-53.132h73.741v-145.764zM764.351 539.559l45.511-49.912h-45.511v49.912zM553.647 340.662v21.145h47.336v271.886l-136.641 150.595h-353.57v-241.939h-42.291v-228.951h42.291v-200.292h335v53.132h-281.976v147.052h306.663v-201.687h485.166v229.058h-401.979zM479.047 688.758l45.189-50.019h-45.189v50.019zM163.797 731.371h262.118v-145.764h121.184v-43.257h-383.302v189.021zM321.583 352.148c-41.754 0-75.78 34.026-75.78 75.888s34.026 75.888 75.78 75.888c41.862 0 75.888-34.026 75.888-75.888s-34.026-75.888-75.888-75.888zM723.455 150.46c-41.754 0-75.78 34.026-75.78 75.888s34.026 75.888 75.78 75.888c41.862 0 75.888-34.026 75.888-75.888 0.107-41.754-34.026-75.888-75.888-75.888zM328.56 443.492c-3.971 1.61-12.129 4.938-12.129 6.548 0 2.039 3.435 3.649 6.44 3.649 9.982 0 18.891-7.836 18.999-7.836l4.401-3.864 14.383 28.015-2.254 2.361c-0.322 0.322-8.265 8.48-24.258 11.7v13.417h-24.044v-14.276c-16.315-4.294-27.049-17.281-27.049-33.382 0-21.79 20.287-30.377 33.704-36.065 4.508-1.932 11.163-4.723 11.914-6.333 0-3.542-5.474-3.649-6.118-3.649-10.734 0-20.716 9.338-20.823 9.446l-3.864 3.542-18.033-25.761 2.361-2.683c0.429-0.429 9.982-10.948 27.8-14.705v-13.525h24.044v13.632c16.959 4.079 28.015 17.389 28.015 34.133-0.107 22.112-20.179 30.269-33.489 35.636z" />
<glyph unicode="&#xe915;" glyph-name="telefono" d="M657.92 291.84c-15.36-15.36-43.52-33.28-66.56-33.28-33.28 0-71.68 28.16-130.56 84.48-7.68 7.68-17.92 15.36-25.6 25.6-10.24 10.24-17.92 17.92-25.6 25.6-51.2 53.76-81.92 92.16-84.48 125.44-2.56 25.6 2.56 43.52 25.6 69.12l-240.64 263.68c-53.76-35.84-81.92-112.64-69.12-217.6 17.92-130.56 107.52-286.72 243.2-414.72 128-133.12 284.16-225.28 414.72-243.2 10.24-2.56 20.48-2.56 33.28-2.56 74.24 0 122.88 25.6 168.96 64l-243.2 253.44zM412.16 652.8c25.6 28.16 23.040 56.32 5.12 102.4-28.16 69.12-112.64 166.4-179.2 166.4-5.12 0-12.8-2.56-17.92-2.56-25.6-10.24-48.64-17.92-69.12-33.28l245.76-253.44c0 0 10.24 12.8 15.36 20.48zM954.88 248.32c-43.52 56.32-130.56 117.76-194.56 117.76-23.040 0-38.4-10.24-46.080-17.92s-10.24-12.8-17.92-17.92l240.64-258.56c20.48 23.040 35.84 53.76 46.080 79.36 7.68 28.16-2.56 61.44-28.16 97.28z" />
<glyph unicode="&#xe916;" glyph-name="ingresa-admin" d="M858.387 220.574c-11.663 33.822-50.15 38.487-81.64 52.483-34.989 15.162-74.642 32.656-109.631 46.651-10.497 2.333-19.827 5.831-30.323 8.164-11.663 8.164-23.326 36.155-30.323 48.984-5.831 1.166-12.829 2.333-18.661 2.333 1.166 20.993 13.995 22.159 18.661 38.487 4.665 13.995 0 32.656 6.998 45.485 4.665 9.33 16.328 9.33 22.159 17.494 4.665 6.998 8.164 19.827 10.497 27.991 2.333 16.328 5.831 37.321-2.333 53.649-4.665 9.33-6.998 9.33-8.164 20.993-1.166 12.829 3.499 57.148 4.665 66.478 0 24.492 0 46.651-5.831 69.977 0 0-6.998 20.993-18.661 27.991l-22.159 3.499-13.995 12.829c-55.982 33.822-115.462 10.497-148.118-2.333-46.651-15.162-75.809-80.474-54.815-177.276 3.499-16.328-9.33-23.326-8.164-32.656 1.166-19.827 2.333-66.478 20.993-78.141 1.166-1.166 15.162-4.665 15.162-3.499 2.333-18.661 3.499-38.487 5.831-57.148 4.665-12.829 16.328-13.995 18.661-32.656l-13.995-3.499c-6.998-13.995-18.661-40.82-30.323-48.984-10.497-2.333-19.827-5.831-30.323-8.164-34.989-13.995-74.642-31.49-109.631-46.651-32.656-13.995-69.977-18.661-81.64-52.483 0-23.326-2.333-76.975-1.166-107.298h699.772c-2.333 30.323-3.499 85.139-3.499 107.298zM440.856 663.763h101.467l-32.656 32.656c-5.831 5.831-5.831 15.162 0 20.993s15.162 5.831 20.993 0l58.314-58.314c2.333-2.333 3.499-4.665 3.499-6.998v0c0-1.166 0-2.333 0-3.499v0 0c0-1.166 0-2.333 0-3.499v0c-1.166-2.333-2.333-4.665-3.499-6.998v0l-58.314-58.314c-5.831-5.831-15.162-5.831-20.993 0s-5.831 15.162 0 20.993l32.656 32.656h-101.467c-8.164 0-15.162 6.998-15.162 15.162 0 9.33 6.998 15.162 15.162 15.162zM509.667 437.503c5.831-5.831 5.831-15.162 0-20.993s-15.162-5.831-20.993 0l-58.314 58.314c-2.333 2.333-3.499 4.665-3.499 6.998v0c0 1.166 0 2.333 0 3.499v0 0c0 1.166 0 2.333 0 3.499v0c1.166 2.333 2.333 4.665 3.499 6.998v0l58.314 58.314c5.831 5.831 15.162 5.831 20.993 0s5.831-15.162 0-20.993l-32.656-32.656h101.467c8.164 0 15.162-6.998 15.162-15.162s-6.998-15.162-15.162-15.162h-101.467l32.656-32.656z" />
<glyph unicode="&#xe917;" glyph-name="listado" horiz-adv-x="937" d="M602.66 806.074v-134.359h133.055zM557.004 626.059v180.015h-401.773v-714.843h626.14v534.828h-224.367zM306.548 671.715h204.8v-45.656h-204.8v45.656zM224.367 224.285l-18.262 22.176 5.218 5.218 14.349-15.654 24.785 33.916 6.522-3.913-32.611-41.743zM224.367 357.34l-18.262 22.176 5.218 5.218 14.349-15.654 24.785 33.916 6.522-3.913-32.611-41.743zM224.367 493.004l-18.262 22.176 5.218 5.218 14.349-15.654 24.785 33.916 6.522-3.913-32.611-41.743zM224.367 626.059l-18.262 22.176 5.218 5.218 14.349-15.654 24.785 33.916 6.522-3.913-32.611-41.743zM691.363 224.285h-384.815v45.656h384.815v-45.656zM691.363 358.645h-384.815v45.656h384.815v-45.656zM691.363 493.004h-384.815v45.656h384.815v-45.656z" />
<glyph unicode="&#xe918;" glyph-name="bitacora" horiz-adv-x="831" d="M610.536 832.483v-88.875h87.909zM598.943 732.015v107.23h-473.358v-781.525h579.623v675.26h-106.264zM542.913 268.317h-188.377l59.894-59.894c10.626-10.626 10.626-28.015 0-38.642s-28.015-10.626-38.642 0l-107.23 107.23c0 0 0 0 0 0-3.864 3.864-5.796 8.694-7.728 13.525 0 0 0 0 0 0.966 0 1.932-0.966 3.864-0.966 5.796v0c0 1.932 0 3.864 0.966 5.796 0 0 0 0 0 0.966 0.966 4.83 3.864 9.66 7.728 13.525 0 0 0 0 0 0l107.23 107.23c10.626 10.626 28.015 10.626 38.642 0s10.626-28.015 0-38.642l-59.894-59.894h188.377c15.457 0 28.015-12.558 28.015-28.015-0.966-17.389-12.558-29.947-28.015-29.947zM569.962 599.668c0-1.932 0-3.864-0.966-5.796 0 0 0 0 0-0.966-0.966-4.83-3.864-9.66-7.728-13.525 0 0 0 0 0 0l-107.23-106.264c-10.626-10.626-28.015-10.626-38.642 0s-10.626 28.015 0 38.642l59.894 59.894h-188.377c-15.457 0-28.015 12.558-28.015 28.015s12.558 28.015 28.015 28.015h188.377l-59.894 59.894c-10.626 10.626-10.626 28.015 0 38.642s28.015 10.626 38.642 0l107.23-107.23c0 0 0 0 0 0 3.864-3.864 5.796-8.694 7.728-13.525 0 0 0 0 0-0.966 0.966-0.966 0.966-2.898 0.966-4.83v0z" />
<glyph unicode="&#xe919;" glyph-name="eliminar-admin" horiz-adv-x="1050" d="M419.84 487.68c1.28-19.2 3.84-37.12 5.12-56.32 1.28-1.28 1.28-3.84 2.56-5.12l33.28 30.72-71.68 66.56c2.56-14.080 7.68-26.88 15.36-32 2.56-2.56 15.36-5.12 15.36-3.84zM413.44 618.24l111.36-102.4 104.96 97.28 19.2 17.92c1.28 14.080 2.56 28.16 2.56 33.28 0 24.32 0 46.080-6.4 69.12 0 0-7.68 21.76-17.92 28.16l-21.76 3.84-14.080 12.8c-55.040 33.28-113.92 10.24-145.92-2.56-38.4-12.8-65.28-60.16-60.16-131.84l28.16-25.6zM747.52 309.76l120.32-111.36c0 17.92-1.28 33.28-1.28 43.52-11.52 33.28-49.92 38.4-80.64 51.2-11.52 5.12-24.32 10.24-38.4 16.64zM619.52 436.48c3.84 14.080 0 32 7.68 44.8 5.12 8.96 16.64 8.96 21.76 16.64 3.84 5.12 7.68 15.36 8.96 23.040l-69.12-64 29.44-26.88c0 1.28 1.28 3.84 1.28 6.4zM262.4 293.12c-32-12.8-69.12-17.92-80.64-51.2 0-10.24 0-25.6-1.28-43.52l120.32 111.36c-12.8-6.4-25.6-11.52-38.4-16.64zM241.92 136.96h565.76l-282.88 261.12zM904.96 124.16l-35.84 33.28-200.96 185.6-42.24 38.4-17.92 16.64-7.68 6.4-57.6 52.48 116.48 107.52 172.8 160c5.12 5.12 5.12 12.8 1.28 17.92-2.56 2.56-6.4 3.84-8.96 3.84s-6.4-1.28-8.96-3.84l-165.12-152.32-125.44-115.2-131.84 121.6-158.72 145.92c-2.56 2.56-5.12 3.84-8.96 3.84s-6.4-1.28-8.96-3.84c-5.12-5.12-5.12-12.8 1.28-17.92l289.28-267.52-61.44-57.6-1.28-1.28-19.2-17.92-42.24-38.4-236.8-218.88c-5.12-5.12-5.12-12.8-1.28-17.92 2.56-2.56 6.4-3.84 8.96-3.84s6.4 1.28 8.96 3.84l34.56 32 327.68 302.080 362.24-334.080c2.56-2.56 5.12-3.84 8.96-3.84s6.4 1.28 8.96 3.84c5.12 6.4 5.12 14.080 0 19.2z" />
<glyph unicode="&#xe91a;" glyph-name="citas" horiz-adv-x="1052" d="M769.542 687.036c21.59 0 40.096 18.506 40.096 40.096v143.422c0 21.59-18.506 40.096-40.096 40.096s-40.096-18.506-40.096-40.096v-143.422c0-21.59 18.506-40.096 40.096-40.096zM821.976 836.627v-41.639c16.964-13.88 27.759-35.47 27.759-60.145 0-44.723-35.47-80.193-80.193-80.193s-80.193 35.47-80.193 80.193c0 23.133 10.795 44.723 27.759 60.145v41.639h-373.205v-41.639c16.964-13.88 27.759-35.47 27.759-60.145 0-44.723-35.47-80.193-80.193-80.193s-80.193 35.47-80.193 80.193c0 23.133 10.795 44.723 27.759 60.145v41.639h-178.892v-851.277h934.554v851.277h-172.723zM908.337 70.169h-763.373v532.048h763.373v-532.048zM289.928 687.036c21.59 0 40.096 18.506 40.096 40.096v143.422c0 21.59-18.506 40.096-40.096 40.096s-40.096-18.506-40.096-40.096v-143.422c0-21.59 18.506-40.096 40.096-40.096zM427.181 151.904l337.735 308.434c10.795 9.253 10.795 26.217 1.542 37.012s-26.217 10.795-37.012 1.542l-303.807-276.048-104.867 92.53c-10.795 9.253-27.759 7.711-37.012-3.084s-7.711-27.759 3.084-37.012l140.337-123.373z" />
<glyph unicode="&#xe91b;" glyph-name="loader" horiz-adv-x="936" d="M474.074 844.958c-51.832 0-93.551-41.719-93.551-93.551s41.719-93.551 93.551-93.551c51.832 0 93.551 41.719 93.551 93.551s-41.719 93.551-93.551 93.551zM474.074 166.084c-34.133 0-60.681-27.812-60.681-60.681 0-34.133 27.812-60.681 60.681-60.681 34.133 0 60.681 26.548 60.681 60.681s-26.548 60.681-60.681 60.681zM245.254 741.294c-45.511 0-83.437-37.926-83.437-83.437 0-46.775 37.926-83.437 83.437-83.437 46.775 0 83.437 37.926 83.437 83.437s-36.662 83.437-83.437 83.437zM702.894 257.106c-31.605 0-56.889-25.284-56.889-56.889s25.284-56.889 56.889-56.889c31.605 0 56.889 25.284 56.889 56.889 1.264 31.605-25.284 56.889-56.889 56.889zM225.027 429.037c0 41.719-32.869 74.588-74.588 74.588-40.454 0-74.588-34.133-74.588-74.588s32.869-74.588 74.588-74.588c41.719 0 74.588 32.869 74.588 74.588zM797.709 469.491c-22.756 0-40.454-17.699-40.454-40.454s17.699-40.454 40.454-40.454c22.756 0 40.454 17.699 40.454 40.454s-17.699 40.454-40.454 40.454zM199.743 245.728c-25.284-25.284-25.284-67.002 0-92.286s67.002-25.284 92.286 0c25.284 25.284 25.284 67.002 0 92.286-25.284 26.548-67.002 26.548-92.286 0zM702.894 626.252c17.699 0 31.605 13.906 31.605 31.605s-13.906 31.605-31.605 31.605c-17.699 0-31.605-13.906-31.605-31.605 1.264-17.699 13.906-31.605 31.605-31.605z" />
<glyph unicode="&#xe91c;" glyph-name="buzon-inteligente" d="M650.209 840.638h-276.417c-34.552 0-61.252-28.27-61.252-61.252v-662.773c0-34.552 28.27-61.252 61.252-61.252h276.417c34.552 0 61.252 28.27 61.252 61.252v662.773c1.571 32.982-26.699 61.252-61.252 61.252zM482.16 774.675h61.252c4.712 0 7.853-3.141 7.853-7.853s-3.141-7.853-7.853-7.853h-61.252c-4.712 0-7.853 3.141-7.853 7.853s3.141 7.853 7.853 7.853zM446.037 777.816c4.712 0 9.423-4.712 9.423-9.423s-4.712-9.423-9.423-9.423-9.423 4.712-9.423 9.423c0 4.712 4.712 9.423 9.423 9.423zM512 88.344c-21.988 0-37.693 17.276-37.693 37.693 0 21.988 17.276 37.693 37.693 37.693s37.693-17.276 37.693-37.693c1.571-20.417-15.706-37.693-37.693-37.693zM681.62 192h-339.239v510.429h339.239v-510.429zM512 297.227c73.816 0 133.497 59.681 133.497 133.497 0 29.84-9.423 58.11-26.699 80.098 7.853 9.423 12.564 20.417 12.564 32.982 0 28.27-21.988 50.258-50.258 50.258-20.417 0-39.264-12.564-47.117-31.411-7.853 1.571-14.135 1.571-21.988 1.571-73.816 0-133.497-59.681-133.497-133.497s59.681-133.497 133.497-133.497zM565.399 524.957h12.564v34.552h-9.423v6.282c3.141 0 4.712 1.571 6.282 1.571s3.141 1.571 4.712 3.141h7.853v-45.546h10.994v-7.853h-31.411l-1.571 7.853zM512 556.368c6.282 0 12.564 0 18.847-1.571-1.571-3.141-1.571-7.853-1.571-10.994 0-28.27 21.988-50.258 50.258-50.258 12.564 0 23.558 4.712 32.982 12.564 15.706-20.417 23.558-45.546 23.558-73.816 0-69.104-56.54-125.644-125.644-125.644s-125.644 56.54-125.644 125.644 58.11 124.074 127.215 124.074zM474.307 393.031c21.988-23.558 48.687-39.264 70.675-42.405 1.571 0 3.141 0 4.712 0 18.847 0 36.123 10.994 39.264 28.27 1.571 4.712 0 10.994-4.712 15.706-7.853 9.423-21.988 20.417-32.982 20.417-4.712 0-6.282-1.571-7.853-3.141-7.853-9.423-14.135-12.564-18.847-12.564-6.282 0-12.564 4.712-21.988 14.135-1.571 1.571-3.141 3.141-4.712 4.712s-3.141 3.141-4.712 4.712c-9.423 9.423-14.135 15.706-14.135 21.988 0 4.712 3.141 10.994 12.564 18.847 3.141 3.141 3.141 9.423 0 17.276-4.712 12.564-18.847 28.27-31.411 28.27-1.571 0-1.571 0-3.141 0-20.417-6.282-29.84-21.988-26.699-45.546 6.282-21.988 21.988-48.687 43.975-70.675z" />
<glyph unicode="&#xe91d;" glyph-name="identificador" d="M650.209 840.638h-276.417c-34.552 0-61.252-28.27-61.252-61.252v-662.773c0-34.552 28.27-61.252 61.252-61.252h276.417c34.552 0 61.252 28.27 61.252 61.252v662.773c0 32.982-26.699 61.252-61.252 61.252zM482.16 774.675h61.252c4.712 0 7.853-3.141 7.853-7.853s-3.141-7.853-7.853-7.853h-61.252c-4.712 0-7.853 3.141-7.853 7.853s3.141 7.853 7.853 7.853zM446.037 777.816c4.712 0 9.423-4.712 9.423-9.423s-4.712-9.423-9.423-9.423-9.423 4.712-9.423 9.423c0 6.282 4.712 9.423 9.423 9.423zM512 88.344c-21.988 0-37.693 17.276-37.693 37.693 0 21.988 17.276 37.693 37.693 37.693 21.988 0 37.693-17.276 37.693-37.693s-15.706-37.693-37.693-37.693zM681.62 193.571h-339.239v510.429h339.239v-510.429zM512 342.773c-32.982 0-59.681-26.699-59.681-59.681s26.699-59.681 59.681-59.681 59.681 26.699 59.681 59.681-26.699 59.681-59.681 59.681zM543.411 261.104c-1.571-6.282-7.853-10.994-15.706-10.994h-1.571c-9.423 1.571-20.417 7.853-28.27 17.276-9.423 9.423-15.706 18.847-17.276 28.27s3.141 15.706 10.994 18.847h1.571c4.712 0 10.994-6.282 12.564-10.994 1.571-3.141 1.571-6.282 0-6.282-3.141-3.141-4.712-6.282-4.712-7.853s1.571-4.712 6.282-7.853l3.141-3.141c4.712-3.141 6.282-6.282 9.423-6.282 1.571 0 4.712 1.571 7.853 4.712 0 0 1.571 1.571 3.141 1.571 4.712 0 10.994-4.712 12.564-7.853 0-4.712 1.571-7.853 0-9.423zM266.994 452.712h-100.515c-10.994 0-18.847-7.853-18.847-18.847s7.853-18.847 18.847-18.847h102.086c10.994 0 18.847 7.853 18.847 18.847-1.571 9.423-9.423 18.847-20.417 18.847zM249.718 364.761l-72.245-72.245c-7.853-7.853-7.853-18.847 0-26.699s18.847-7.853 26.699 0l72.245 72.245c7.853 7.853 7.853 18.847 0 26.699-6.282 7.853-18.847 7.853-26.699 0zM249.718 501.399c7.853-7.853 18.847-7.853 26.699 0s7.853 18.847 0 26.699l-72.245 72.245c-7.853 7.853-18.847 7.853-26.699 0s-7.853-18.847 0-26.699l72.245-72.245zM857.521 452.712h-102.086c-10.994 0-18.847-7.853-18.847-18.847s7.853-18.847 18.847-18.847h102.086c10.994 0 18.847 7.853 18.847 18.847s-7.853 18.847-18.847 18.847zM774.282 364.761c-7.853 7.853-18.847 7.853-26.699 0s-7.853-18.847 0-26.699l72.245-72.245c7.853-7.853 18.847-7.853 26.699 0s7.853 18.847 0 26.699l-72.245 72.245zM774.282 501.399l72.245 72.245c7.853 7.853 7.853 18.847 0 26.699s-18.847 7.853-26.699 0l-72.245-72.245c-7.853-7.853-7.853-18.847 0-26.699 6.282-6.282 18.847-6.282 26.699 0zM629.791 407.166c0 9.423 0 28.27 0 36.123-3.141 10.994-17.276 12.564-28.27 17.276-12.564 4.712-25.129 10.994-36.123 15.706-3.141 1.571-6.282 1.571-9.423 3.141-4.712 3.141-7.853 12.564-9.423 17.276-1.571 0-4.712 0-6.282 1.571 0 6.282 4.712 7.853 6.282 12.564s0 10.994 3.141 15.706c1.571 3.141 4.712 3.141 7.853 6.282 1.571 3.141 3.141 6.282 3.141 9.423 1.571 4.712 1.571 12.564 0 17.276-1.571 3.141-3.141 3.141-3.141 6.282 0 4.712 1.571 18.847 1.571 21.988 0 7.853 0 15.706-1.571 23.558 0 0-3.141 7.853-6.282 9.423l-7.853 1.571-4.712 4.712c-18.847 10.994-39.264 3.141-50.258-1.571-15.706-4.712-25.129-26.699-18.847-59.681 1.571-6.282-3.141-7.853-3.141-10.994 0-6.282 0-21.988 6.282-26.699l4.712-1.571c0-6.282 1.571-12.564 1.571-18.847 1.571-4.712 4.712-4.712 6.282-10.994l-4.712-1.571c-1.571-4.712-6.282-14.135-9.423-17.276-3.141-1.571-6.282-1.571-9.423-3.141-12.564-4.712-25.129-10.994-36.123-15.706s-23.558-6.282-28.27-17.276c0-7.853 0-25.129 0-36.123l232.442 1.571z" />
<glyph unicode="&#xe91e;" glyph-name="broken-chain-2" horiz-adv-x="921" d="M203.426 800.558l-94.84-94.84c-67.35-67.35-67.35-177.31 0-246.035l126.454-126.454 56.354 56.354-126.454 126.454c-35.737 35.737-35.737 96.215 0 131.952l94.84 94.84c35.737 35.737 94.84 35.737 131.952 0l126.454-126.454 56.354 56.354-126.454 126.454c-67.35 70.099-177.31 70.099-244.66 1.374zM758.722 377.213c35.737-35.737 35.737-94.84 0-131.952l-94.84-94.84c-35.737-35.737-94.84-37.111-131.952 0l-126.454 126.454-56.354-56.354 126.454-126.454c67.35-67.35 177.31-67.35 244.66 0l94.84 94.84c67.35 67.35 67.35 177.31 0 244.66l-126.454 126.454-56.354-56.354 126.454-126.454zM225.417 253.509l-94.84-94.84c-12.37-12.37-12.37-30.239 0-42.609s30.239-12.37 42.609 0l94.84 94.84c12.37 12.37 12.37 30.239 0 42.609s-31.613 12.37-42.609 0zM171.812 261.756c16.494 0 30.239 13.745 30.239 30.239s-13.745 30.239-30.239 30.239h-93.466c-16.494 0-30.239-13.745-30.239-30.239s13.745-30.239 30.239-30.239h93.466zM274.899 160.043v-93.466c0-16.494 13.745-30.239 30.239-30.239s30.239 13.745 30.239 30.239v93.466c0 16.494-13.745 30.239-30.239 30.239-16.494-1.374-30.239-13.745-30.239-30.239zM749.101 778.566l-94.84-94.84c-12.37-12.37-12.37-30.239 0-42.609s30.239-12.37 42.609 0l94.84 94.84c12.37 12.37 12.37 30.239 0 42.609-10.996 10.996-30.239 10.996-42.609 0zM646.013 735.957v93.466c0 16.494-13.745 30.239-30.239 30.239s-30.239-13.745-30.239-30.239v-93.466c0-16.494 13.745-30.239 30.239-30.239 17.868 1.374 30.239 13.745 30.239 30.239zM749.101 634.244c-16.494 0-30.239-13.745-30.239-30.239s13.745-30.239 30.239-30.239h93.466c16.494 0 30.239 13.745 30.239 30.239s-13.745 30.239-30.239 30.239h-93.466z" />
<glyph unicode="&#xe91f;" glyph-name="marker" d="M512.001 548.447c-44.73 0-81.021 36.278-81.021 81.007 0 44.714 36.291 80.991 81.021 80.991s80.994-36.277 80.994-80.991c0-44.729-36.265-81.007-80.994-81.007zM512.001 896.006c-147.242 0-266.577-119.339-266.577-266.552 0-147.276 266.577-629.46 266.577-629.46s266.574 482.184 266.574 629.46c0.001 147.213-119.333 266.552-266.574 266.552z" />
<glyph unicode="&#xe920;" glyph-name="reloj" d="M543.587 469.965v125.1h-66.862v-191.984h225.658v66.884h-158.796zM680.592 267.932c-43.235-43.216-102.637-69.839-168.582-69.92-65.986 0.082-125.366 26.705-168.582 69.92-43.257 43.255-69.838 102.596-69.838 168.582 0 65.943 26.582 125.283 69.838 168.622 43.216 43.093 102.596 69.716 168.582 69.796 65.945-0.080 125.346-26.703 168.582-69.796 43.216-43.339 69.838-102.679 69.838-168.622 0.001-65.987-26.621-125.327-69.838-168.582zM705.095 672.954v223.337h-386.17v-223.337c-68.491-55.996-112.197-141.164-112.238-236.44 0.041-95.361 43.747-180.528 112.238-236.503v-200.3h386.17v200.3c68.493 55.975 112.217 141.143 112.217 236.503 0.001 95.276-43.724 180.444-112.217 236.44z" />
<glyph unicode="&#xe921;" glyph-name="ubicacion" horiz-adv-x="1464" d="M780.263 493.988c0-10.159-8.236-18.395-18.395-18.395s-18.395 8.236-18.395 18.395c0 10.159 8.236 18.395 18.395 18.395s18.395-8.236 18.395-18.395zM55.186 907.88v-919.76h1353.581v919.76h-1353.581zM1352.048 44.838h-1241.677v807.856h1241.677v-807.856zM254.467 658.012l156.359-156.359v-52.12h52.12l52.12-52.12v52.12l-156.359 156.359v52.12l-52.12 52.12v52.12l208.479-208.479v-52.12l104.24-104.24v-105.772l104.24-104.24h105.772l52.12-52.12h105.772l52.12 52.12 104.24-104.24v52.12l52.12 52.12v52.12h52.12v52.12l52.12 52.12v52.12h-105.772l-52.12-52.12v-52.12l-52.12-52.12h-52.12l-104.24 104.24v262.132l52.12 52.12h-105.772l-52.12 52.12h-105.772v-52.12l-52.12 52.12v52.12l-52.12 52.12h-105.772v-52.12h-105.772l-52.12 52.12h-157.892l52.12-52.12v-104.24zM761.868 555.305c33.725 0 61.317-27.593 61.317-61.317s-61.317-145.629-61.317-145.629-61.317 111.904-61.317 145.629c0 33.725 27.593 61.317 61.317 61.317z" />
<glyph unicode="&#xe922;" glyph-name="slider-left" horiz-adv-x="593" d="M408.569 815.712h-11.042l-212.751-368.081 212.751-368.081h11.042l-212.751 368.081z" />
<glyph unicode="&#xe923;" glyph-name="slider-right" horiz-adv-x="512" d="M146.389 87.437h10.817l208.406 360.563-208.406 360.563h-10.817l208.406-360.563z" />
<glyph unicode="&#xe924;" glyph-name="ticket" horiz-adv-x="1063" d="M973.985 609.892l-71.075 71.075c-27.64-27.64-81.604-19.743-121.090 19.743-38.17 38.17-47.383 92.134-19.743 121.090l-71.075 71.075c-23.692 23.692-63.177 23.692-86.869 0l-515.949-519.897c-23.692-23.692-23.692-63.177 0-86.869l71.075-71.075c27.64 27.64 81.604 19.743 121.090-19.743 38.17-38.17 47.383-92.134 19.743-121.090l71.075-71.075c23.692-23.692 63.177-23.692 86.869 0l515.949 519.897c23.692 23.692 23.692 63.177 0 86.869zM425.131 68.936c-6.581-6.581-15.794-6.581-22.375 0l-10.53 10.53c-6.581 6.581-10.53 15.794-9.213 25.008 5.265 47.383-13.162 98.715-55.28 140.833-40.802 40.802-93.45 59.229-140.833 55.28-9.213-1.316-18.427 2.632-25.008 9.213l-10.53 10.53c-6.581 6.581-6.581 15.794 0 22.375l486.992 486.992c6.581 6.581 15.794 6.581 22.375 0l10.53-10.53c6.581-6.581 10.53-15.794 9.213-25.008-5.265-47.383 13.162-98.715 55.28-140.833 40.802-40.802 93.45-59.229 140.833-55.28 9.213 1.316 18.427-2.632 25.008-9.213l10.53-10.53c6.581-6.581 6.581-15.794 0-22.375l-486.992-486.992zM712.062 628.319c-44.751 44.751-68.442 103.979-64.494 160.576l-456.72-455.404c56.596 3.949 115.825-21.059 160.576-64.494s68.442-103.979 64.494-160.576l455.404 455.404c-55.28-3.949-114.509 19.743-159.26 64.494z" />
<glyph unicode="&#xe925;" glyph-name="celular" horiz-adv-x="564" d="M443.179 902.523h-320.662c-39.326 0-71.090-31.764-71.090-71.090v-765.353c0-39.326 31.764-71.090 71.090-71.090h320.662c39.326 0 71.090 31.764 71.090 71.090v765.353c0 39.326-31.764 71.090-71.090 71.090zM248.059 826.895h69.578c4.538 0 9.075-4.538 9.075-9.075s-4.538-9.075-9.075-9.075h-69.578c-4.538 0-9.075 4.538-9.075 9.075s4.538 9.075 9.075 9.075zM220.833 826.895c4.538 0 9.075-4.538 9.075-9.075s-4.538-9.075-9.075-9.075c-4.538 0-9.075 4.538-9.075 9.075s4.538 9.075 9.075 9.075zM317.637 44.904c-7.563-9.075-19.663-13.613-31.764-13.613h-3.025c-25.713 0-45.377 21.176-45.377 45.377 0 12.1 4.538 24.201 13.613 31.764 7.563 9.075 19.663 13.613 31.764 13.613h1.513c25.713 0 45.377-21.176 45.377-45.377 1.513-12.1-3.025-24.201-12.1-31.764zM477.968 153.808h-391.752v589.897h391.752v-589.897z" />
<glyph unicode="&#xe926;" glyph-name="notes" d="M512.681 739.269c18.042 0 32.719 14.638 32.719 32.702v91.334c0 18.053-14.677 32.691-32.719 32.691-18.025 0-32.702-14.639-32.702-32.691v-91.334c0-18.065 14.677-32.702 32.702-32.702zM312.396 739.269c18.008 0 32.607 14.638 32.607 32.702v91.334c0 18.053-14.6 32.691-32.607 32.691-18.143 0-32.742-14.639-32.742-32.691v-91.334c0-18.065 14.599-32.702 32.742-32.702zM713.001 739.269c18.063 0 32.724 14.638 32.724 32.702v91.334c0 18.053-14.661 32.691-32.724 32.691-18.025 0-32.681-14.639-32.681-32.691v-91.334c0-18.065 14.655-32.702 32.681-32.702zM728.985 384.592h-421.784v-65.327h421.784v65.327zM728.985 604.454h-421.784v-65.349h421.784v65.349zM728.985 494.512h-421.784v-65.35h421.784v65.35zM775.274 53.185h-300.668c-78.975 0-40.995 187.216-40.995 187.216s-182.533-44.382-184.847 39.343v382.073h526.509v-608.632zM768.85 859.511v-47.596c6.19-10 9.85-21.724 9.85-34.349 0-36.285-29.415-65.717-65.699-65.717s-65.694 29.432-65.694 65.717c0 12.625 3.659 24.349 9.85 34.349v47.596h-88.63v-47.596c6.212-10 9.85-21.724 9.85-34.349 0-36.285-29.471-65.717-65.694-65.717-36.284 0-65.661 29.432-65.661 65.717 0 12.625 3.621 24.349 9.755 34.349v47.596h-88.53v-47.596c6.168-10 9.771-21.724 9.771-34.349 0-36.285-29.432-65.717-65.716-65.717-36.229 0-65.623 29.432-65.623 65.717 0 12.625 3.604 24.349 9.772 34.349v47.596h-60.867v-650l15.589-15.628 193.901-193.879h423.341v859.507h-59.565z" />
<glyph unicode="&#xe927;" glyph-name="paginacion-fin" horiz-adv-x="857" d="M204.074 800.227c-15.977 15.251-42.122 14.525-57.373-2.179-15.251-15.977-14.525-42.122 2.179-57.373l293.401-274.519-294.854-313.736c-15.251-15.977-14.525-42.122 1.452-57.373 7.989-7.262 17.43-10.894 27.597-10.894 10.894 0 21.787 4.357 29.050 12.346l322.451 342.786c7.262 7.989 11.62 18.156 10.894 29.050 0 10.894-5.084 21.061-13.072 28.323l-321.725 303.569zM680.488 811.121c-22.513 0-40.67-18.156-40.67-40.67v-645.628c0-22.513 18.156-40.67 40.67-40.67s40.67 18.156 40.67 40.67v645.628c0 22.513-18.156 40.67-40.67 40.67z" />
<glyph unicode="&#xe928;" glyph-name="paginacion-init" horiz-adv-x="857" d="M331.166 496.658c-7.989-7.262-13.072-17.43-13.072-28.323-0.726-10.894 3.631-21.061 10.894-29.050l322.451-342.786c7.262-7.989 18.156-12.346 29.050-12.346 10.167 0 19.609 3.631 27.597 10.894 15.977 15.251 16.704 41.396 1.452 57.373l-294.854 313.736 293.401 274.519c16.704 15.251 17.43 41.396 2.179 57.373-15.251 16.704-41.396 17.43-57.373 2.179l-321.725-303.569zM135.807 770.451v-645.628c0-22.513 18.156-40.67 40.67-40.67s40.67 18.156 40.67 40.67v645.628c0 22.513-18.156 40.67-40.67 40.67s-40.67-18.156-40.67-40.67z" />
<glyph unicode="&#xe929;" glyph-name="add-folder" d="M558.080 251.733h-423.253c-13.653 0-25.6 11.947-25.6 25.6v479.573c0 13.653 11.947 25.6 25.6 25.6h165.547c6.827 0 13.653-3.413 18.773-8.533l88.747-93.867c17.067-18.773 40.96-29.013 66.56-29.013h288.427c13.653 0 25.6-11.947 25.6-25.6v-146.773c0-18.773 15.36-32.427 32.427-32.427 18.773 0 32.427 15.36 32.427 32.427v146.773c0 51.2-40.96 92.16-92.16 92.16h-288.427c-6.827 0-13.653 3.413-18.773 8.533l-88.747 93.867c-17.067 18.773-40.96 29.013-66.56 29.013h-163.84c-51.2 0-92.16-40.96-92.16-92.16v-479.573c0-51.2 40.96-92.16 92.16-92.16h423.253c18.773 0 32.427 15.36 32.427 32.427 0 18.773-15.36 34.133-32.427 34.133zM948.907 244.907h-97.28v97.28c0 18.773-15.36 32.427-32.427 32.427-18.773 0-32.427-15.36-32.427-32.427v-97.28h-97.28c-18.773 0-32.427-15.36-32.427-32.427s15.36-32.427 32.427-32.427h95.573v-97.28c0-18.773 15.36-32.427 32.427-32.427 18.773 0 32.427 15.36 32.427 32.427v97.28h97.28c18.773 0 32.427 15.36 32.427 32.427s-13.653 32.427-30.72 32.427z" />
<glyph unicode="&#xe92a;" glyph-name="move-folder" d="M834.56 224.427c-17.067 0-32.427-15.36-32.427-32.427 0-13.653-11.947-25.6-25.6-25.6h-626.347c-13.653 0-25.6 11.947-25.6 25.6v512c0 13.653 11.947 25.6 25.6 25.6h165.547c6.827 0 13.653-3.413 18.773-8.533l88.747-93.867c17.067-18.773 40.96-29.013 66.56-29.013h288.427c13.653 0 25.6-11.947 25.6-25.6 0-18.773 15.36-32.427 32.427-32.427s32.427 15.36 32.427 32.427c0 51.2-40.96 92.16-92.16 92.16h-288.427c-6.827 0-13.653 3.413-18.773 8.533l-88.747 93.867c-17.067 18.773-40.96 29.013-66.56 29.013h-163.84c-51.2 0-92.16-40.96-92.16-92.16v-512c0-51.2 40.96-92.16 92.16-92.16h626.347c51.2 0 92.16 40.96 92.16 92.16 0 17.067-15.36 32.427-34.133 32.427zM947.2 413.867l-114.347 83.627c-10.24 8.533-27.307 5.12-34.133-5.12-8.533-10.24-5.12-27.307 5.12-34.133l73.387-52.907h-232.107c-13.653 0-25.6-11.947-25.6-25.6s11.947-25.6 25.6-25.6h233.813l-75.093-59.733c-10.24-8.533-11.947-23.893-3.413-34.133 5.12-6.827 11.947-8.533 18.773-8.533 5.12 0 10.24 1.707 15.36 5.12l114.347 90.453c10.24 8.533 17.067 20.48 15.36 34.133 0 11.947-5.12 23.893-17.067 32.427z" />
<glyph unicode="&#xe92b;" glyph-name="broken-chain" d="M766.293 721.067l18.773-18.773c18.773-18.773 30.72-44.373 30.72-71.68s-10.24-52.907-29.013-71.68l-129.707-129.707 52.907-52.907 129.707 129.707c34.133 34.133 51.2 78.507 51.2 126.293s-18.773 92.16-51.2 126.293l-18.773 17.067c-34.133 34.133-78.507 49.493-126.293 49.493 0 0 0 0 0 0-47.787 0-92.16-17.067-126.293-49.493l-129.707-129.707 52.907-52.907 129.707 129.707c40.96 39.253 105.813 39.253 145.067-1.707zM256 173.227l-18.773 18.773c-39.253 39.253-39.253 104.107 0 145.067l129.707 129.707-52.907 52.907-129.707-129.707c-34.133-34.133-51.2-78.507-51.2-126.293s18.773-92.16 51.2-126.293l18.773-18.773c69.973-69.973 182.613-69.973 250.88 0l129.707 129.707-52.907 52.907-129.707-129.707c-40.96-37.547-105.813-37.547-145.067 1.707zM716.8 282.453c-5.12 5.12-11.947 8.533-18.773 8.533s-13.653-3.413-18.773-8.533-8.533-11.947-8.533-18.773 3.413-13.653 8.533-18.773l98.987-98.987c10.24-10.24 27.307-10.24 39.253 0 10.24 10.24 10.24 27.307 0 39.253l-100.693 97.28zM873.813 345.6h-98.987c-15.36 0-27.307-10.24-27.307-25.6s11.947-25.6 27.307-25.6h98.987c15.36 0 27.307 10.24 27.307 25.6s-13.653 25.6-27.307 25.6zM640 212.48c-15.36 0-25.6-11.947-25.6-27.307v-98.987c0-15.36 10.24-27.307 25.6-27.307s25.6 13.653 25.6 29.013v98.987c0 13.653-10.24 25.6-25.6 25.6zM307.2 613.547c10.24-10.24 29.013-10.24 39.253 0 5.12 5.12 8.533 11.947 8.533 18.773s-3.413 13.653-8.533 18.773l-98.987 98.987c-5.12 5.12-11.947 8.533-18.773 8.533s-13.653-3.413-18.773-8.533c-5.12-5.12-8.533-11.947-8.533-18.773s3.413-13.653 8.533-18.773l97.28-98.987zM384 683.52c15.36 0 25.6 11.947 25.6 27.307v97.28c0 15.36-10.24 27.307-25.6 27.307s-25.6-11.947-25.6-27.307v-98.987c0-13.653 10.24-25.6 25.6-25.6zM150.187 550.4h98.987c15.36 0 27.307 10.24 27.307 25.6s-11.947 25.6-27.307 25.6h-98.987c-15.36 0-27.307-10.24-27.307-25.6s13.653-25.6 27.307-25.6z" />
<glyph unicode="&#xe92c;" glyph-name="ingresar2" d="M443.733 338.773c-13.653-13.653-13.653-34.133 0-47.787s34.133-13.653 47.787 0l131.413 131.413c0 0 0 0 0 0 5.12 5.12 8.533 10.24 8.533 17.067 0 0 0 0 0 0 0 1.707 0 5.12 0 6.827 0 0 0 0 0 0v0c0 1.707 0 5.12 0 6.827 0 0 0 0 0 0-1.707 6.827-5.12 11.947-8.533 17.067 0 0 0 0 0 0l-131.413 131.413c-13.653 13.653-34.133 13.653-47.787 0s-13.653-34.133 0-47.787l75.093-75.093h-290.133c-18.773 0-34.133-15.36-34.133-34.133s15.36-34.133 34.133-34.133h288.427l-73.387-71.68zM728.747 866.133h-302.080c-56.32 0-100.693-44.373-100.693-100.693v-122.88c0-20.48 17.067-37.547 37.547-37.547s37.547 17.067 37.547 37.547v122.88c0 13.653 10.24 23.893 23.893 23.893h302.080c13.653 0 23.893-10.24 23.893-23.893v-634.88c0-13.653-10.24-23.893-23.893-23.893h-300.373c-13.653 0-23.893 10.24-23.893 23.893v126.293c0 20.48-17.067 37.547-37.547 37.547s-37.547-17.067-37.547-37.547v-126.293c0-56.32 44.373-100.693 100.693-100.693h302.080c56.32 0 100.693 44.373 100.693 100.693v634.88c-1.707 56.32-47.787 100.693-102.4 100.693z" />
<glyph unicode="&#xe92d;" glyph-name="gestionar" d="M776.533 273.92c0 13.653-1.707 27.307-5.12 40.96l47.787 40.96-39.253 69.973-59.733-20.48c-10.24 8.533-20.48 18.773-32.427 25.6l3.413 63.147-73.387 22.187-29.013-56.32c-13.653 0-27.307 0-40.96-3.413l-40.96 47.787-68.267-39.253 20.48-59.733c-10.24-8.533-18.773-20.48-25.6-32.427l-63.147 5.12-20.48-76.8 56.32-27.307c0-15.36 1.707-29.013 5.12-42.667l-47.787-40.96 39.253-68.267 59.733 18.773c10.24-10.24 20.48-18.773 32.427-25.6l-5.12-63.147 76.8-20.48 27.307 56.32c13.653 0 29.013 1.707 42.667 3.413l40.96-47.787 68.267 39.253-22.187 58.027c8.533 10.24 17.067 20.48 25.6 34.133l63.147-5.12 20.48 75.093-56.32 29.013zM590.507 214.187c-34.133 0-59.733 25.6-59.733 59.733 0 32.427 25.6 59.733 59.733 59.733 32.427 0 61.44-27.307 61.44-59.733-1.707-34.133-29.013-59.733-61.44-59.733zM314.027 176.64h-95.573v542.72h361.813v-177.493c11.947 11.947 32.427 6.827 32.427 6.827v252.587c0 35.84-29.013 64.853-64.853 64.853h-295.253c-35.84 0-64.853-29.013-64.853-64.853v-704.853c0-35.84 29.013-64.853 64.853-64.853h197.973c-88.747 40.96-136.533 145.067-136.533 145.067zM366.933 796.16h64.853c5.12 0 8.533-3.413 8.533-8.533s-3.413-8.533-8.533-8.533h-64.853c-5.12 0-8.533 3.413-8.533 8.533s5.12 8.533 8.533 8.533z" />
<glyph unicode="&#xe92e;" glyph-name="chain" d="M902.827 743.253l-95.573 95.573c-35.84 35.84-92.16 35.84-128 0l-197.973-196.267c-35.84-35.84-35.84-92.16 0-128v0l47.787 47.787c-8.533 8.533-8.533 23.893 0 32.427l197.973 197.973c8.533 8.533 23.893 8.533 32.427 0l95.573-95.573c8.533-8.533 8.533-23.893 0-32.427l-196.267-199.68c-8.533-8.533-23.893-8.533-32.427 0v0l-47.787-47.787c35.84-35.84 92.16-35.84 128 0l197.973 197.973c34.133 35.84 34.133 92.16-1.707 128zM542.72 383.147v0l-47.787-47.787c8.533-8.533 8.533-23.893 0-32.427l-197.973-199.68c-8.533-8.533-23.893-8.533-32.427 0l-95.573 95.573c-8.533 8.533-8.533 23.893 0 32.427l196.267 199.68c8.533 8.533 23.893 8.533 32.427 0v0l47.787 47.787c-35.84 35.84-92.16 35.84-128 0l-196.267-197.973c-35.84-35.84-35.84-92.16 0-128l95.573-95.573c35.84-35.84 92.16-35.84 128 0l197.973 197.973c35.84 34.133 35.84 92.16 0 128zM423.253 337.067c8.533-8.533 23.893-6.827 34.133 3.413l162.133 162.133c10.24 10.24 11.947 25.6 3.413 34.133l-22.187 22.187c-8.533 8.533-23.893 6.827-34.133-3.413l-162.133-162.133c-10.24-10.24-11.947-25.6-3.413-34.133l22.187-22.187z" />
<glyph unicode="&#xe92f;" glyph-name="chip-imei" d="M698.027 516.267h-196.267v-486.4h327.68v348.16l-131.413 138.24zM616.107 72.533h-29.013c-18.773 0-32.427 15.36-32.427 32.427v32.427h61.44v-64.853zM616.107 159.573h-61.44v51.2h61.44v-51.2zM616.107 232.96h-61.44v32.427c0 18.773 15.36 32.427 32.427 32.427h29.013v-64.853zM687.787 75.947h-51.2v61.44h51.2v-61.44zM687.787 159.573h-51.2v51.2h51.2v-51.2zM687.787 232.96h-51.2v64.853h51.2v-64.853zM709.973 210.773h64.853v-51.2h-64.853v51.2zM776.533 104.96c0-17.067-13.653-32.427-32.427-32.427h-34.133v64.853h64.853v-32.427zM776.533 232.96h-64.853v64.853h34.133c17.067 0 32.427-13.653 32.427-32.427v-32.427zM228.693 719.36h360.107v-167.253h32.427v249.173c0 35.84-29.013 64.853-64.853 64.853h-295.253c-35.84 0-64.853-29.013-64.853-64.853v-704.853c0-35.84 29.013-64.853 64.853-64.853h211.627v146.773h-244.053v541.013zM370.347 794.453c1.707 1.707 3.413 3.413 6.827 3.413h63.147c5.12 0 8.533-3.413 8.533-8.533 0-1.707-1.707-5.12-3.413-6.827s-3.413-3.413-6.827-3.413h-63.147c-5.12 0-8.533 3.413-8.533 8.533 0 3.413 1.707 5.12 3.413 6.827zM378.88 135.68c6.827 6.827 17.067 11.947 29.013 11.947v0c22.187 0 40.96-18.773 40.96-40.96 0-11.947-5.12-22.187-11.947-29.013s-17.067-11.947-29.013-11.947v0c-22.187 0-40.96 18.773-40.96 40.96 0 10.24 5.12 20.48 11.947 29.013z" />
<glyph unicode="&#xe930;" glyph-name="mover-lineas" d="M660.48 866.133h-296.96c-35.84 0-64.853-29.013-64.853-64.853v-704.853c0-35.84 29.013-64.853 64.853-64.853h295.253c35.84 0 64.853 29.013 64.853 64.853v704.853c1.707 35.84-27.307 64.853-63.147 64.853zM479.573 796.16h64.853c3.413 0 8.533-3.413 8.533-8.533 0-3.413-3.413-8.533-8.533-8.533h-64.853c-3.413 0-8.533 3.413-8.533 8.533s5.12 8.533 8.533 8.533zM510.293 64c-22.187 0-40.96 18.773-40.96 40.96v3.413c0 22.187 18.773 40.96 40.96 40.96 11.947 0 20.48-3.413 27.307-11.947 6.827-6.827 11.947-17.067 11.947-29.013v-3.413h1.707c0-22.187-18.773-40.96-40.96-40.96zM691.2 176.64h-360.107v542.72h361.813v-542.72zM428.373 519.68h158.72l-52.907-42.667c-6.827-6.827-8.533-17.067-3.413-23.893 3.413-5.12 8.533-6.827 13.653-6.827 3.413 0 8.533 1.707 10.24 3.413l80.213 64.853c6.827 5.12 11.947 15.36 11.947 23.893 0 10.24-5.12 18.773-11.947 23.893l-80.213 59.733c-8.533 5.12-18.773 3.413-23.893-3.413-5.12-8.533-3.413-18.773 3.413-23.893l51.2-37.547h-157.013c-10.24 0-17.067-8.533-17.067-17.067s6.827-20.48 17.067-20.48zM595.627 381.44h-157.013l51.2 37.547c8.533 5.12 10.24 17.067 3.413 23.893-5.12 8.533-17.067 10.24-23.893 3.413l-80.213-59.733c-6.827-5.12-11.947-13.653-11.947-23.893s3.413-18.773 11.947-23.893l80.213-64.853c3.413-3.413 6.827-3.413 10.24-3.413 5.12 0 10.24 1.707 13.653 6.827 6.827 6.827 5.12 18.773-3.413 23.893l-52.907 44.373h158.72c10.24 0 17.067 8.533 17.067 17.067 0 10.24-6.827 18.773-17.067 18.773z" />
<glyph unicode="&#xe931;" glyph-name="agregar-servicios" d="M614.4 550.4c-25.6 25.6-63.147 42.667-102.4 42.667s-76.8-17.067-102.4-42.667c-25.6-25.6-42.667-63.147-42.667-102.4 0-80.213 64.853-145.067 145.067-145.067 39.253 0 76.8 17.067 102.4 42.667s42.667 63.147 42.667 102.4-17.067 76.8-42.667 102.4zM588.8 434.347h-61.44v-61.44c0-6.827-6.827-13.653-13.653-13.653s-13.653 6.827-13.653 13.653v61.44h-61.44c-6.827 0-13.653 6.827-13.653 13.653s6.827 13.653 13.653 13.653h61.44v61.44c0 6.827 6.827 13.653 13.653 13.653s13.653-6.827 13.653-13.653v-61.44h61.44c6.827 0 13.653-6.827 13.653-13.653s-6.827-13.653-13.653-13.653zM660.48 866.133h-296.96c-35.84 0-64.853-29.013-64.853-64.853v-704.853c0-35.84 29.013-64.853 64.853-64.853h295.253c35.84 0 64.853 29.013 64.853 64.853v704.853c1.707 35.84-27.307 64.853-63.147 64.853zM479.573 796.16h64.853c3.413 0 8.533-3.413 8.533-8.533s-3.413-8.533-8.533-8.533h-64.853c-3.413 0-8.533 3.413-8.533 8.533s5.12 8.533 8.533 8.533zM551.253 104.96c0-22.187-18.773-40.96-40.96-40.96s-40.96 18.773-40.96 40.96v3.413c0 22.187 18.773 40.96 40.96 40.96 11.947 0 20.48-3.413 27.307-11.947 6.827-6.827 11.947-17.067 11.947-29.013l1.707-3.413zM691.2 176.64h-360.107v542.72h361.813v-542.72z" />
<glyph unicode="&#xe932;" glyph-name="quitar-servicios" d="M512 302.933c39.253 0 76.8 17.067 102.4 42.667s42.667 63.147 42.667 102.4c0 39.253-17.067 76.8-42.667 102.4s-63.147 42.667-102.4 42.667c-39.253 0-76.8-17.067-102.4-42.667s-42.667-63.147-42.667-102.4c0-80.213 64.853-145.067 145.067-145.067zM438.613 461.653h148.48c6.827 0 13.653-6.827 13.653-13.653s-6.827-13.653-13.653-13.653h-150.187c-6.827 0-13.653 6.827-13.653 13.653s8.533 13.653 15.36 13.653zM660.48 866.133h-296.96c-35.84 0-64.853-29.013-64.853-64.853v-704.853c0-35.84 29.013-64.853 64.853-64.853h295.253c35.84 0 64.853 29.013 64.853 64.853v704.853c1.707 35.84-27.307 64.853-63.147 64.853zM479.573 796.16h64.853c3.413 0 8.533-3.413 8.533-8.533 0-3.413-3.413-8.533-8.533-8.533h-64.853c-3.413 0-8.533 3.413-8.533 8.533s5.12 8.533 8.533 8.533zM510.293 64c-22.187 0-40.96 18.773-40.96 40.96v3.413c0 22.187 18.773 40.96 40.96 40.96 11.947 0 20.48-3.413 27.307-11.947 6.827-6.827 11.947-17.067 11.947-29.013v-3.413h1.707c0-22.187-18.773-40.96-40.96-40.96zM691.2 176.64h-360.107v542.72h361.813v-542.72z" />
<glyph unicode="&#xe933;" glyph-name="reactivacion" d="M660.48 866.133h-296.96c-35.84 0-64.853-29.013-64.853-64.853v-704.853c0-35.84 29.013-64.853 64.853-64.853h295.253c35.84 0 64.853 29.013 64.853 64.853v704.853c1.707 35.84-27.307 64.853-63.147 64.853zM479.573 796.16h64.853c3.413 0 8.533-3.413 8.533-8.533s-3.413-8.533-8.533-8.533h-64.853c-3.413 0-8.533 3.413-8.533 8.533s5.12 8.533 8.533 8.533zM544.427 75.947c-6.827-8.533-18.773-11.947-29.013-11.947h-3.413c-23.893 0-40.96 18.773-40.96 42.667 0 11.947 3.413 22.187 11.947 29.013 6.827 8.533 18.773 11.947 29.013 11.947h1.707c23.893 0 40.96-18.773 40.96-40.96 1.707-11.947-1.707-23.893-10.24-30.72zM691.2 176.64h-360.107v542.72h361.813v-542.72zM484.693 316.587l-102.4 100.693c-5.12 5.12-6.827 15.36 0 22.187 5.12 6.827 15.36 6.827 20.48 0l76.8-76.8 134.827 209.92c5.12 6.827 13.653 8.533 20.48 3.413s8.533-13.653 3.413-20.48l-153.6-238.933z" />
<glyph unicode="&#xe934;" glyph-name="CallTransfer" d="M547.84 630.613h-184.32c-15.36 0-27.307-11.947-27.307-27.307s11.947-27.307 27.307-27.307h184.32l-58.027-58.027c-11.947-11.947-11.947-27.307 0-37.547 11.947-11.947 27.307-11.947 37.547 0l104.107 104.107c3.413 3.413 5.12 8.533 6.827 13.653 0 1.707 0 3.413 0 5.12s0 3.413 0 5.12c-1.707 3.413-3.413 10.24-6.827 13.653l-104.107 104.107c-11.947 11.947-27.307 11.947-37.547 0-11.947-11.947-11.947-27.307 0-37.547l58.027-58.027zM442.027 459.947v92.16h-32.427v-126.293zM409.6 176.64h-360.107v542.72h361.813v-66.56h34.133v148.48c0 35.84-29.013 64.853-64.853 64.853h-296.96c-35.84 0-64.853-29.013-64.853-64.853v-703.147c0-35.84 29.013-64.853 64.853-64.853h295.253c35.84 0 64.853 29.013 64.853 64.853v54.613l-34.133 34.133v-10.24zM197.973 796.16h64.853c3.413 0 8.533-3.413 8.533-8.533 0-3.413-3.413-8.533-8.533-8.533h-64.853c-3.413 0-8.533 3.413-8.533 8.533s5.12 8.533 8.533 8.533zM259.413 77.653c-6.827-6.827-17.067-11.947-27.307-11.947-22.187 0-40.96 18.773-40.96 40.96 0 11.947 3.413 20.48 11.947 27.307 6.827 6.827 17.067 11.947 27.307 11.947s20.48-3.413 27.307-11.947c6.827-6.827 11.947-17.067 11.947-27.307 0-11.947-3.413-20.48-10.24-29.013zM599.040 357.547c0 0 23.893 1.707 32.427-5.12v199.68l-32.427-32.427v-162.133zM955.733 866.133h-293.547c-35.84 0-64.853-29.013-64.853-64.853v-110.933l34.133-34.133v61.44h358.4v-542.72h-360.107v88.747c-8.533-8.533-34.133-10.24-34.133-10.24v-160.427c0-35.84 29.013-64.853 64.853-64.853h295.253c35.84 0 64.853 29.013 64.853 64.853v706.56c1.707 37.547-29.013 66.56-64.853 66.56zM841.387 779.093h-64.853c-3.413 0-8.533 3.413-8.533 8.533 0 3.413 3.413 8.533 8.533 8.533h64.853c3.413 0 8.533-3.413 8.533-8.533 0-3.413-3.413-8.533-8.533-8.533zM837.973 77.653c-6.827-6.827-17.067-11.947-27.307-11.947-22.187 0-40.96 18.773-40.96 40.96 0 11.947 3.413 20.48 11.947 27.307 6.827 6.827 17.067 11.947 27.307 11.947s20.48-3.413 27.307-11.947c6.827-6.827 11.947-17.067 11.947-27.307 1.707-11.947-1.707-20.48-10.24-29.013zM640 306.347c0 15.36-11.947 27.307-27.307 27.307h-184.32l58.027 58.027c11.947 11.947 11.947 27.307 0 37.547-11.947 11.947-27.307 11.947-37.547 0l-104.107-104.107c-3.413-3.413-5.12-8.533-6.827-13.653 0-1.707 0-3.413 0-5.12s0-3.413 0-5.12c1.707-3.413 3.413-10.24 6.827-13.653l104.107-104.107c11.947-11.947 27.307-11.947 37.547 0 11.947 11.947 11.947 27.307 0 37.547l-58.027 56.32h184.32c13.653 3.413 27.307 15.36 27.307 29.013z" />
<glyph unicode="&#xe935;" glyph-name="SuspendLine2" d="M660.48 866.133h-296.96c-35.84 0-64.853-29.013-64.853-64.853v-704.853c0-35.84 29.013-64.853 64.853-64.853h295.253c35.84 0 64.853 29.013 64.853 64.853v703.147c1.707 35.84-27.307 66.56-63.147 66.56zM479.573 796.16h64.853c3.413 0 8.533-3.413 8.533-8.533 0-3.413-3.413-8.533-8.533-8.533h-64.853c-3.413 0-8.533 3.413-8.533 8.533s5.12 8.533 8.533 8.533zM513.707 65.707c-22.187 0-40.96 18.773-40.96 40.96s18.773 40.96 40.96 40.96c22.187 0 40.96-18.773 40.96-40.96 0-23.893-18.773-40.96-40.96-40.96zM692.907 174.933h-360.107v544.427h361.813v-544.427zM382.293 314.88c3.413-3.413 5.12-3.413 8.533-3.413s6.827 1.707 8.533 3.413l114.347 114.347 114.347-114.347c3.413-3.413 5.12-3.413 8.533-3.413s6.827 1.707 8.533 3.413c5.12 5.12 5.12 11.947 0 18.773l-114.347 114.347 114.347 114.347c5.12 5.12 5.12 11.947 0 18.773-5.12 5.12-11.947 5.12-18.773 0l-114.347-114.347-114.347 114.347c-5.12 5.12-11.947 5.12-18.773 0-5.12-5.12-5.12-11.947 0-18.773l114.347-114.347-114.347-114.347c-1.707-5.12-1.707-11.947 3.413-18.773z" />
<glyph unicode="&#xe936;" glyph-name="avatar" horiz-adv-x="1200" d="M600.245 896.392c-247.265 0-447.944-200.679-447.944-447.944s200.679-447.944 447.944-447.944 447.944 200.679 447.944 447.944c0 247.265-200.679 447.944-447.944 447.944zM600.245 51.57c-137.967 0-259.808 70.775-331.479 178.282 0 0.896 0 1.792 0 1.792 10.751 32.252 47.482 36.731 77.942 49.274 33.148 14.334 70.775 30.46 103.923 43.899 9.855 2.688 18.814 5.375 28.668 8.063 11.647 8.063 22.397 34.044 28.668 46.586l13.438 3.584c-2.688 17.022-13.438 18.814-17.918 30.46-1.792 17.918-3.584 36.731-5.375 54.649 0-0.896-12.542 2.688-14.334 3.584-17.918 10.751-17.918 56.441-19.71 74.359-0.896 8.959 10.751 15.23 8.063 31.356-19.71 92.276 8.063 154.093 51.962 168.427 30.46 12.542 86.901 34.94 140.654 2.688l13.438-12.542 21.501-3.584c10.751-6.271 17.918-26.877 17.918-26.877 5.375-22.397 6.271-43.899 5.375-67.192 0-8.959-5.375-50.17-3.584-62.712 0.896-10.751 3.584-11.647 8.063-19.71 7.167-15.23 4.479-35.836 1.792-51.066-1.792-8.063-4.479-19.71-9.855-26.877s-16.126-7.167-20.605-16.126c-7.167-12.542-2.688-30.46-7.167-43.899-4.479-15.23-17.022-16.126-17.918-36.731 6.271-0.896 12.542-1.792 17.918-2.688 6.271-12.542 17.022-39.419 28.668-46.586 9.855-2.688 18.814-5.375 28.668-8.063 33.148-13.438 70.775-30.46 103.923-43.899 30.46-12.542 67.192-17.022 77.942-49.274v-1.792c-70.775-105.715-192.616-177.386-330.583-177.386z" />
<glyph unicode="&#xe937;" glyph-name="lock-closed" horiz-adv-x="959" d="M735.632 627.494v86.805c0 97.103-79.448 176.552-176.552 176.552h-158.897c-97.103 0-176.552-79.448-176.552-176.552v-86.805c-51.494-7.356-91.218-51.494-91.218-105.931v-407.54c0-58.851 48.552-107.402 107.402-107.402h479.632c58.851 0 107.402 48.552 107.402 107.402v407.54c0 52.966-39.724 98.575-91.218 105.931zM400.184 805.517h158.897c50.023 0 91.218-41.195 91.218-91.218v-85.333h-341.333v85.333c0 50.023 41.195 91.218 91.218 91.218zM513.471 147.862c0-19.126-14.713-33.839-33.839-33.839s-33.839 14.713-33.839 33.839v79.448c0 19.126 14.713 33.839 33.839 33.839 8.828 0 17.655-4.414 23.54-10.299s10.299-14.713 10.299-23.54v-79.448z" />
<glyph unicode="&#xe938;" glyph-name="arrow-down" horiz-adv-x="1016" d="M527.706 228.751c-15.077 0-28.898 6.282-38.95 16.334l-326.675 326.675c-21.36 21.36-21.36 57.796 0 79.156s57.796 21.36 79.156 0l283.956-283.956 250.032 281.443c20.103 22.616 55.283 25.129 79.156 5.026 22.616-20.103 25.129-55.283 5.026-79.156l-288.982-326.675c-10.052-11.308-25.129-18.847-40.206-18.847-2.513 0-2.513 0-2.513 0z" />
<glyph unicode="&#xe939;" glyph-name="arrow-up" horiz-adv-x="1016" d="M490.012 667.249c15.077 0 28.898-6.282 38.95-16.334l326.675-326.675c21.36-21.36 21.36-57.796 0-79.156s-57.796-21.36-79.156 0l-283.956 283.956-250.032-281.443c-20.103-22.616-55.283-25.129-79.156-5.026-22.616 20.103-25.129 55.283-5.026 79.156l288.982 326.675c10.052 11.308 25.129 18.847 40.206 18.847 1.256 0 1.256 0 2.513 0z" />
<glyph unicode="&#xe93a;" glyph-name="lock-open" horiz-adv-x="1074" d="M835.678 889.379h-158.897c-97.103 0-176.552-79.448-176.552-176.552v-85.333c0 0 0 0 0 0h-331.034c-58.851 0-107.402-47.080-107.402-107.402v-407.54c0-58.851 48.552-107.402 107.402-107.402h479.632c58.851 0 107.402 48.552 107.402 107.402v409.011c0 58.851-47.080 107.402-107.402 107.402h-64.736c0 0 0 0 0 0v85.333c0 50.023 41.195 91.218 91.218 91.218h158.897c50.023 0 91.218-41.195 91.218-91.218v-85.333c0-23.54 19.126-42.667 42.667-42.667s42.667 19.126 42.667 42.667v85.333c1.471 95.632-77.977 175.080-175.080 175.080zM442.851 147.862c0-19.126-14.713-33.839-33.839-33.839s-33.839 14.713-33.839 33.839v79.448c0 19.126 14.713 33.839 33.839 33.839 8.828 0 17.655-4.414 23.54-10.299s10.299-14.713 10.299-23.54v-79.448z" />
<glyph unicode="&#xe93b;" glyph-name="multiple-user" d="M172.373 103.253c0 32.427 0 63.147 0 95.573 0 25.6 13.653 40.96 34.133 49.493 47.787 20.48 95.573 40.96 145.067 63.147 8.533 3.413 18.773 6.827 29.013 10.24 8.533 1.707 15.36 6.827 18.773 15.36 3.413 6.827 6.827 11.947 10.24 18.773 5.12 10.24 6.827 22.187 23.893 22.187-5.12 8.533-6.827 13.653-11.947 18.773-5.12 6.827-8.533 13.653-10.24 22.187-1.707 17.067-3.413 34.133-5.12 51.2-20.48 1.707-25.6 15.36-29.013 32.427-1.707 17.067-5.12 34.133-5.12 49.493 0 3.413 1.707 8.533 3.413 11.947 6.827 10.24 6.827 20.48 3.413 30.72-6.827 34.133-8.533 66.56 0 100.693 6.827 29.013 18.773 56.32 44.373 69.973 27.307 15.36 58.027 23.893 88.747 27.307 27.307 3.413 51.2-6.827 71.68-25.6 6.827-5.12 13.653-8.533 22.187-10.24 10.24-1.707 15.36-8.533 20.48-17.067 8.533-20.48 11.947-40.96 11.947-63.147 0-27.307-3.413-52.907-3.413-80.213 0-10.24 1.707-20.48 5.12-29.013 8.533-22.187 6.827-42.667 1.707-64.853-1.707-15.36-8.533-27.307-22.187-32.427-10.24-3.413-10.24-15.36-11.947-25.6-1.707-8.533 0-18.773-3.413-27.307-1.707-6.827-6.827-15.36-11.947-20.48-5.12-6.827-6.827-13.653-6.827-23.893 17.067 5.12 20.48-6.827 25.6-18.773 1.707-3.413 3.413-6.827 5.12-10.24 6.827-13.653 15.36-22.187 30.72-27.307 35.84-13.653 69.973-29.013 105.813-44.373 20.48-8.533 40.96-17.067 63.147-25.6 15.36-6.827 27.307-15.36 32.427-32.427 1.707-8.533 1.707-18.773 1.707-27.307 0-25.6 1.707-52.907 1.707-78.507 0-1.707 0-3.413 0-5.12-225.28 0-452.267 0-679.253 0zM25.6 152.747c0 15.36 0 30.72 0 46.080 0 6.827 0 13.653 0 20.48 0 15.36 6.827 27.307 18.773 32.427 42.667 18.773 87.040 35.84 131.413 54.613 3.413 1.707 8.533 5.12 10.24 8.533 3.413 5.12 6.827 13.653 10.24 18.773s6.827 8.533 10.24 13.653c1.707 0 1.707 0 3.413 0-1.707 5.12-5.12 8.533-6.827 13.653s-5.12 10.24-6.827 15.36c-1.707 10.24-1.707 20.48-3.413 30.72 0 1.707-3.413 6.827-5.12 6.827-8.533 1.707-13.653 8.533-15.36 17.067-3.413 13.653-3.413 29.013-5.12 42.667 0 1.707 0 3.413 0 3.413 10.24 15.36 3.413 30.72 1.707 46.080 0 27.307 1.707 54.613 15.36 78.507 6.827 13.653 17.067 23.893 32.427 29.013 13.653 3.413 25.6 8.533 39.253 11.947 25.6 5.12 47.787 1.707 68.267-17.067 3.413-3.413 10.24-3.413 15.36-6.827 1.707-10.24 5.12-29.013 3.413-35.84-3.413-10.24-8.533-32.427-5.12-49.493 3.413-18.773 1.707-39.253 8.533-58.027 5.12-17.067 11.947-22.187 8.533-35.84s-5.12-22.187-11.947-27.307c-3.413-1.707-3.413-10.24-5.12-15.36-11.947-30.72-10.24-42.667-20.48-47.787-39.253-25.6-75.093-42.667-117.76-66.56-13.653-6.827-39.253-20.48-51.2-30.72-17.067-13.653-20.48-35.84-20.48-58.027 0-13.653 0-27.307 0-42.667-37.547 1.707-66.56 1.707-102.4 1.707zM998.4 152.747c0 15.36 0 30.72 0 46.080 0 6.827 0 13.653 0 20.48 0 15.36-6.827 27.307-18.773 32.427-42.667 18.773-87.040 35.84-131.413 54.613-3.413 1.707-8.533 5.12-10.24 8.533-3.413 5.12-6.827 13.653-10.24 18.773s-6.827 8.533-10.24 13.653c-1.707 0-1.707 0-3.413 0 1.707 5.12 5.12 8.533 6.827 13.653s5.12 10.24 6.827 15.36c1.707 10.24 1.707 20.48 3.413 30.72 0 1.707 3.413 6.827 5.12 6.827 8.533 1.707 13.653 8.533 15.36 17.067 3.413 13.653 3.413 29.013 5.12 42.667 0 1.707 0 3.413 0 3.413-10.24 15.36-3.413 30.72-1.707 46.080 1.707 27.307 1.707 52.907-11.947 76.8-6.827 13.653-17.067 23.893-32.427 29.013-13.653 3.413-25.6 8.533-39.253 11.947-25.6 5.12-47.787 1.707-68.267-17.067-3.413-3.413-10.24-3.413-15.36-6.827-1.707-10.24-5.12-29.013-3.413-35.84 3.413-10.24 8.533-32.427 5.12-49.493-3.413-18.773-1.707-39.253-8.533-58.027-5.12-17.067-11.947-22.187-8.533-35.84s5.12-22.187 11.947-27.307c3.413-1.707 3.413-10.24 5.12-15.36 11.947-30.72 10.24-42.667 20.48-47.787 39.253-25.6 75.093-42.667 117.76-66.56 13.653-6.827 39.253-20.48 51.2-30.72 17.067-13.653 20.48-35.84 20.48-58.027 0-13.653 0-27.307 0-42.667 34.133 3.413 63.147 3.413 98.987 3.413z" />
<glyph unicode="&#xe93c;" glyph-name="upload" horiz-adv-x="1004" d="M501.861 929.331c-266.646 0-481.331-214.685-481.331-481.331s214.685-481.331 481.331-481.331 481.331 214.685 481.331 481.331-215.699 481.331-481.331 481.331zM623.271 378.55h-74.265v-185.79c0-26.107-21.291-46.131-46.131-46.131-26.107 0-46.131 21.291-46.131 46.131v185.79h-74.265c-12.42 0-21.291 16.475-11.659 26.107l120.396 126.986c6.844 6.844 16.475 6.844 22.051 0l122.17-126.986c7.097-9.632 1.267-26.107-12.166-26.107zM757.861 592.475h-513.014c-12.42 0-22.051 9.632-22.051 22.051s9.632 22.051 22.051 22.051h515.042c12.42 0 22.051-9.632 22.051-22.051-0.76-12.42-10.392-22.051-24.079-22.051z" />
<glyph unicode="&#xe93d;" glyph-name="barco" d="M443.733 552.107v117.76h-51.2v87.040c0 18.773-5.12 49.493-23.893 49.493h-35.84c-20.48 0-25.6-30.72-25.6-49.493v-87.040h-51.2v87.040c0 20.48-6.827 49.493-27.307 49.493h-35.84c-20.48 0-23.893-30.72-23.893-49.493v-87.040h-49.493v-102.4h-88.747c0 0 37.547-249.173 162.133-327.68s228.693-17.067 305.493 30.72c93.867 58.027 237.227 11.947 320.853-34.133 0 0 117.76 78.507 172.373 319.147l-547.84-3.413zM324.267 396.8h-119.467v85.333h119.467v-85.333zM494.933 396.8h-102.4v85.333h102.4v-85.333zM665.6 396.8h-102.4v85.333h102.4v-85.333zM899.413 128.853c0 0-13.653 5.12-35.84 13.653-22.187 6.827-54.613 18.773-93.867 27.307s-85.333 15.36-133.12 13.653c-23.893-1.707-47.787-5.12-69.973-11.947-11.947-3.413-22.187-6.827-34.133-11.947s-20.48-10.24-32.427-17.067c-25.6-15.36-51.2-27.307-80.213-37.547-27.307-10.24-56.32-15.36-85.333-18.773-29.013-1.707-56.32 0-83.627 6.827-25.6 6.827-49.493 17.067-68.267 30.72-8.533 6.827-18.773 13.653-25.6 20.48-8.533 6.827-13.653 13.653-20.48 20.48-10.24 13.653-18.773 25.6-25.6 37.547-3.413 8.533-8.533 17.067-11.947 23.893s-3.413 10.24-3.413 10.24 10.24-8.533 30.72-23.893c10.24-6.827 20.48-15.36 34.133-23.893 6.827-5.12 13.653-8.533 20.48-11.947 8.533-5.12 15.36-8.533 23.893-11.947 17.067-6.827 35.84-13.653 56.32-15.36 20.48-3.413 42.667-1.707 64.853 1.707 44.373 6.827 92.16 25.6 138.24 49.493 11.947 5.12 25.6 13.653 39.253 18.773s29.013 10.24 44.373 13.653c29.013 6.827 59.733 8.533 87.040 6.827 56.32-3.413 104.107-18.773 143.36-35.84s68.267-35.84 88.747-49.493c22.187-17.067 32.427-25.6 32.427-25.6z" />
<glyph unicode="&#xe93e;" glyph-name="carta" d="M42.667 758.613v-622.933h938.667v622.933h-938.667zM897.707 712.533l-385.707-337.92-385.707 337.92h771.413zM88.747 685.227l269.653-237.227-269.653-237.227v474.453zM126.293 183.467l266.24 233.813 117.76-104.107 117.76 104.107 266.24-233.813h-768zM935.253 210.773l-269.653 237.227 269.653 237.227v-474.453z" />
<glyph unicode="&#xe93f;" glyph-name="mapa" d="M576.853 506.027h-8.533l-10.24-6.827-1.707 8.533 11.947 13.653 6.827-8.533 8.533 1.707-3.413 6.827 8.533-1.707 10.24-15.36-22.187 1.707zM629.76 483.84l-1.707 29.013 8.533 5.12 3.413-5.12-8.533-10.24 8.533-17.067-10.24-1.707zM658.773 502.613l-1.707 10.24 6.827 1.707 1.707-10.24-6.827-1.707zM385.707 367.787h-13.653l-1.707 18.773h-20.48l-1.707 17.067-25.6 1.707-13.653 5.12-18.773-8.533h-18.773l-1.707 17.067-10.24 1.707 1.707 13.653-6.827 3.413-11.947-6.827h-5.12l-10.24 10.24 10.24 20.48h29.013l8.533-11.947h8.533l-5.12 17.067 18.773 17.067-1.707 10.24 8.533 8.533 8.533-1.707v13.653l47.787 27.307-32.427 39.253-42.667 6.827v-20.48l3.413-5.12-6.827-20.48-17.067 20.48-18.773 5.12-10.24 8.533 13.653 18.773 27.307-1.707-3.413 13.653 5.12 13.653h11.947l-5.12-22.187 34.133-6.827 18.773 20.48-58.027 47.787 44.373 49.493-49.493 1.707-128-49.493-10.24-22.187 29.013-15.36-128 13.653-27.307-13.653 6.827-46.080 17.067-11.947 5.12-8.533 35.84 17.067 27.307-5.12 18.773-18.773-8.533 1.707 6.827-13.653 8.533 1.707 13.653-20.48-1.707-27.307 39.253-52.907h13.653l11.947-13.653 37.547-20.48 10.24 1.707 8.533-17.067h18.773v-13.653l-6.827-11.947 18.773-46.080 17.067-8.533-13.653-76.8v-39.253l20.48-23.893 8.533 8.533-8.533 11.947 10.24 10.24c1.707 6.827 0 11.947-1.707 17.067l81.92 87.040 3.413 23.893 10.24 11.947-34.133 27.307zM273.067 442.88l-1.707-10.24 20.48-5.12 1.707 8.533-20.48 6.827zM303.787 432.64l-1.707-6.827 32.427-11.947 6.827 1.707-37.547 17.067zM291.84 456.533v-8.533l10.24-5.12-10.24 13.653zM622.933 328.533l-17.067-13.653-5.12-17.067 17.067-11.947 11.947 39.253-6.827 3.413zM442.027 558.933l-8.533-13.653 8.533-8.533 8.533 8.533-8.533 13.653zM457.387 722.773l-121.173-13.653-29.013-37.547 8.533-11.947 17.067 5.12 17.067-11.947 8.533-40.96 20.48-30.72 17.067-1.707 8.533 23.893 39.253 11.947 23.893 37.547 3.413 32.427 15.36 13.653-29.013 23.893zM510.293 495.787l-5.12-8.533 8.533-3.413-3.413 11.947zM479.573 611.84l-27.307-6.827 13.653-22.187 23.893 17.067-10.24 11.947zM464.213 558.933l-5.12 13.653-8.533-8.533 10.24-13.653-5.12-10.24h18.773l1.707 10.24-11.947 8.533zM913.067 330.24h-8.533v-15.36l-27.307 17.067-58.027-37.547v-23.893l8.533-3.413-5.12-18.773 44.373 8.533 1.707 6.827 35.84-27.307 18.773-1.707 23.893 42.667-34.133 52.907zM1013.76 630.613l-37.547-5.12-13.653 6.827-46.080 5.12-8.533 13.653-17.067-17.067-95.573 10.24 30.72 17.067-42.667 8.533-59.733-23.893-5.12-10.24-32.427 8.533-18.773-17.067 5.12-8.533-30.72 18.773 13.653 17.067 27.307 8.533-5.12 8.533-27.307-11.947-20.48-20.48 17.067-20.48h-25.6l-39.253-25.6-13.653 13.653 20.48-1.707 8.533 13.653-51.2 11.947-32.427-8.533-30.72-40.96-1.707-17.067 18.773 1.707 3.413-10.24 17.067 5.12 1.707 13.653-6.827 5.12 17.067 22.187 8.533-8.533-8.533-8.533 5.12-11.947 18.773 6.827 5.12-6.827-29.013-10.24-1.707-8.533-27.307-1.707-5.12 8.533-8.533-3.413 5.12-10.24-13.653-13.653-8.533-1.707-13.653-10.24 8.533-8.533-3.413-8.533-22.187 1.707 10.24-29.013 30.72 29.013 5.12-3.413 6.827 13.653 17.067-11.947 3.413-17.067 8.533 13.653-13.653 20.48 3.413 3.413 17.067-20.48 1.707-17.067 13.653-10.24-1.707 20.48 17.067-20.48 11.947 17.067v-17.067l-5.12-5.12-29.013 1.707-8.533 6.827-6.827-15.36-22.187 6.827 1.707 6.827-6.827 8.533-27.307-1.707-47.787-42.667 1.707-40.96 22.187-18.773 37.547-1.707 18.773-11.947-6.827-5.12 18.773-22.187v-17.067l-6.827-8.533 22.187-61.44 25.6-1.707 32.427 39.253 1.707 13.653 11.947 8.533-3.413 18.773-5.12 5.12 42.667 59.733-23.893-1.707-13.653 10.24-20.48 40.96 1.707 10.24h8.533l29.013-56.32 29.013 10.24 11.947 13.653-11.947 11.947h-13.653l-10.24 17.067 64.853-11.947-1.707-17.067 8.533-1.707 10.24-30.72 17.067 5.12v17.067l22.187 17.067 3.413 11.947h5.12v-13.653l23.893-49.493-17.067 1.707 39.253-42.667 27.307-5.12-1.707 8.533-23.893 8.533-5.12 17.067-8.533-1.707-1.707 8.533 10.24-3.413 5.12 5.12-17.067 10.24-5.12 17.067 5.12 1.707 8.533-15.36 20.48 11.947-11.947 17.067 46.080 27.307-1.707 37.547 10.24 5.12 5.12-18.773 15.36 10.24-3.413 11.947 23.893 17.067 3.413 11.947 11.947 1.707-1.707 25.6-17.067-5.12 3.413 10.24 25.6 13.653 42.667 5.12-11.947-17.067 5.12-27.307 22.187 29.013-1.707 13.653 37.547 3.413v54.613zM829.44 391.68l-17.067-17.067-1.707-17.067 20.48-5.12 10.24 20.48-11.947 18.773zM849.92 374.613l-8.533-20.48 8.533-1.707 10.24 18.773-10.24 3.413zM926.72 354.133l-52.907 13.653 1.707-20.48 56.32-11.947-5.12 18.773zM904.533 463.36l-5.12 1.707 8.533-25.6 8.533 6.827-11.947 17.067zM904.533 514.56l-8.533-27.307-27.307-15.36 8.533-8.533 27.307 13.653 17.067 27.307-17.067 10.24zM943.787 529.92l-20.48-8.533 5.12-6.827 22.187 8.533-6.827 6.827z" />
<glyph unicode="&#xe940;" glyph-name="like-big" horiz-adv-x="1120" d="M1047.893 475.307c0 22.187-8.533 42.667-23.893 56.32-10.24 10.24-30.72 22.187-63.147 22.187h-232.107c10.24 52.907 18.773 122.88 20.48 126.293 0 3.413 0 5.12 0 8.533-5.12 69.973-47.787 153.6-49.493 157.013-3.413 8.533-10.24 13.653-18.773 17.067-17.067 6.827-32.427 10.24-47.787 10.24-32.427 0-56.32-17.067-66.56-30.72-5.12-6.827-8.533-15.36-8.533-23.893 0-1.707 1.707-90.453 1.707-117.76-11.947-34.133-105.813-187.733-126.293-206.507-3.413-3.413-8.533-6.827-13.653-10.24-6.827 3.413-13.653 6.827-20.48 6.827h-291.84c-10.24 0-20.48-5.12-27.307-11.947-6.827-8.533-10.24-18.773-10.24-29.013l30.72-392.533c1.707-20.48 17.067-35.84 37.547-35.84h261.12c20.48 0 37.547 17.067 37.547 37.547v17.067c1.707-1.707 3.413-3.413 6.827-3.413 15.36-10.24 35.84-23.893 61.44-23.893h344.747c68.267 0 116.053 54.613 116.053 105.813 0 11.947-1.707 22.187-6.827 32.427 22.187 20.48 34.133 47.787 34.133 75.093 0 11.947-1.707 22.187-6.827 32.427 22.187 20.48 34.133 47.787 34.133 75.093 0 11.947-1.707 22.187-6.827 32.427 22.187 18.773 34.133 46.080 34.133 73.387zM965.973 415.573l-3.413-13.653c35.84-18.773 20.48-75.093-25.6-93.867l-3.413-11.947c35.84-18.773 20.48-75.093-25.6-93.867l-3.413-11.947c42.667-22.187 11.947-100.693-58.027-100.693-42.667 0-220.16 0-344.747 0-25.6 0-47.787 27.307-66.56 30.72v329.387c8.533 5.12 15.36 11.947 20.48 15.36 27.307 23.893 139.947 209.92 139.947 232.107 0 23.893-3.413 122.88-3.413 122.88s11.947 15.36 37.547 15.36c10.24 0 20.48-1.707 34.133-8.533 0 0 40.96-78.507 46.080-141.653 0 0-18.773-129.707-29.013-170.667 0 0 221.867 0 278.187 0 71.68 1.707 61.44-76.8 6.827-98.987z" />
<glyph unicode="&#xe941;" glyph-name="cambiar" d="M322.56 632.32h279.893l-88.747-88.747c-15.36-15.36-15.36-42.667 0-58.027s42.667-15.36 58.027 0l158.72 158.72c0 0 0 0 0 0 5.12 5.12 8.533 11.947 10.24 20.48 0 0 0 0 0 0 0 3.413 0 5.12 0 8.533 0 0 0 0 0 0v0c0 3.413 0 5.12 0 8.533 0 0 0 0 0 0-1.707 6.827-5.12 13.653-10.24 20.48 0 0 0 0 0 0l-158.72 158.72c-15.36 15.36-42.667 15.36-58.027 0s-15.36-42.667 0-58.027l88.747-88.747h-279.893c-22.187 0-40.96-18.773-40.96-40.96s18.773-40.96 40.96-40.96zM701.44 263.68h-279.893l88.747 88.747c15.36 15.36 15.36 42.667 0 58.027s-42.667 15.36-58.027 0l-158.72-158.72c0 0 0 0 0 0-5.12-5.12-8.533-11.947-10.24-20.48 0 0 0 0 0 0 0-3.413 0-5.12 0-8.533 0 0 0 0 0 0v0c0-3.413 0-5.12 0-8.533 0 0 0 0 0 0 1.707-6.827 5.12-13.653 10.24-20.48 0 0 0 0 0 0l158.72-158.72c15.36-15.36 42.667-15.36 58.027 0s15.36 42.667 0 58.027l-88.747 88.747h279.893c22.187 0 40.96 18.773 40.96 40.96s-18.773 40.96-40.96 40.96z" />
<glyph unicode="&#xe942;" glyph-name="old-phone" d="M674.133 495.787c-17.067 27.307-18.773 59.733-5.12 87.040 0 1.707 1.707 3.413 3.413 5.12 0 5.12 0 13.653 5.12 23.893 0 0 0 0 0 1.707h-341.333c0 0 0 0 0-1.707 8.533-11.947 13.653-22.187 18.773-29.013 13.653-27.307 11.947-58.027-5.12-87.040-30.72-49.493-116.053-90.453-180.907-105.813l-18.773-307.2c-1.707-34.133 20.48-61.44 49.493-61.44h624.64c29.013 0 51.2 27.307 49.493 61.44l-18.773 307.2c-66.56 15.36-150.187 54.613-180.907 105.813zM648.533 183.467l-40.96 40.96c25.6 42.667 20.48 98.987-15.36 136.533-42.667 42.667-114.347 42.667-157.013 0s-42.667-114.347 0-157.013c37.547-37.547 93.867-42.667 136.533-15.36l40.96-40.96c-64.853-47.787-158.72-42.667-218.453 17.067-64.853 64.853-64.853 172.373 0 237.227s172.373 64.853 237.227 0c59.733-59.733 64.853-151.893 17.067-218.453zM727.040 864.427c-69.973 5.12-139.947 8.533-209.92 10.24v0c-1.707 0-3.413 0-5.12 0s-3.413 0-5.12 0v0c-69.973-1.707-139.947-5.12-208.213-10.24-182.613-15.36-303.787-158.72-273.067-298.667 1.707-6.827 1.707-11.947 3.413-18.773 13.653-34.133 40.96-63.147 59.733-93.867 25.6-40.96 238.933 46.080 211.627 100.693-10.24 20.48-51.2 75.093-54.613 97.28-3.413 20.48 23.893 35.84 47.787 37.547 63.147 5.12 145.067 0 211.627 0 1.707 0 3.413 0 5.12 0s3.413 0 5.12 0c66.56 0 148.48 5.12 211.627 0 23.893-1.707 49.493-17.067 47.787-37.547-3.413-22.187-44.373-76.8-54.613-97.28-27.307-52.907 186.027-139.947 211.627-100.693 18.773 30.72 46.080 59.733 59.733 93.867 1.707 5.12 1.707 11.947 3.413 18.773 34.133 139.947-87.040 283.307-267.947 298.667z" />
<glyph unicode="&#xe943;" glyph-name="404" d="M723.627 874.667h-423.253c-22.187 0-40.96-18.773-40.96-40.96v-771.413c0-22.187 18.773-40.96 40.96-40.96h423.253c22.187 0 40.96 18.773 40.96 40.96v771.413c0 22.187-18.773 40.96-40.96 40.96zM457.387 830.293c1.707 1.707 3.413 1.707 5.12 1.707h100.693c3.413 0 6.827-3.413 6.827-6.827s-3.413-6.827-6.827-6.827h-102.4c-3.413 0-6.827 3.413-6.827 6.827 1.707 1.707 1.707 3.413 3.413 5.12zM438.613 833.707c5.12 0 8.533-3.413 8.533-8.533s-3.413-8.533-8.533-8.533c-5.12 0-8.533 3.413-8.533 8.533s3.413 8.533 8.533 8.533zM512 48.64c-18.773 0-35.84 15.36-35.84 35.84 0 18.773 15.36 35.84 35.84 35.84 18.773 0 35.84-15.36 35.84-35.84s-17.067-35.84-35.84-35.84zM725.333 142.507h-426.667v638.293h426.667v-638.293zM576.853 570.88l29.013 27.307 29.013-27.307 10.24 10.24-29.013 27.307 29.013 29.013-10.24 10.24-29.013-29.013-29.013 29.013-10.24-10.24 29.013-29.013-29.013-27.307zM389.12 570.88l29.013 27.307 29.013-27.307 10.24 10.24-29.013 27.307 29.013 29.013-10.24 10.24-29.013-29.013-29.013 29.013-10.24-10.24 29.013-29.013-29.013-27.307zM370.347 284.16c3.413 3.413 8.533 5.12 13.653 8.533s11.947 6.827 18.773 10.24c6.827 3.413 15.36 6.827 22.187 11.947 8.533 3.413 17.067 6.827 25.6 10.24s18.773 5.12 29.013 6.827c5.12 1.707 10.24 1.707 15.36 1.707 1.707 0 5.12 0 6.827 0s5.12 0 6.827 0 10.24 0 15.36 0c1.707 0 5.12 0 6.827 0s5.12 0 6.827-1.707c5.12 0 10.24-1.707 15.36-3.413 1.707 0 1.707 0 3.413 0l3.413-1.707c1.707 0 5.12-1.707 6.827-1.707 8.533-3.413 18.773-6.827 25.6-10.24 3.413-1.707 8.533-3.413 11.947-5.12s6.827-3.413 10.24-5.12 13.653-6.827 18.773-11.947c5.12-3.413 10.24-6.827 13.653-8.533 3.413-3.413 6.827-5.12 8.533-6.827s3.413-1.707 3.413-1.707-1.707 1.707-1.707 3.413c-1.707 1.707-3.413 5.12-6.827 8.533s-6.827 8.533-11.947 11.947c-1.707 1.707-1.707 1.707-3.413 3.413s-3.413 1.707-3.413 3.413c-3.413 1.707-6.827 5.12-8.533 6.827-3.413 3.413-6.827 5.12-10.24 6.827s-6.827 5.12-11.947 6.827-17.067 10.24-27.307 13.653c-10.24 3.413-20.48 6.827-30.72 8.533-3.413 0-5.12 1.707-8.533 1.707s-5.12 0-8.533 1.707c-5.12 0-11.947 0-17.067 0-3.413 0-5.12 0-8.533 0s-5.12 0-8.533 0-11.947-1.707-17.067-3.413c-3.413 0-5.12-1.707-8.533-1.707s-5.12-1.707-8.533-1.707c-3.413 0-5.12-1.707-8.533-1.707-1.707-1.707-5.12-1.707-6.827-3.413-10.24-3.413-18.773-8.533-27.307-13.653s-15.36-10.24-22.187-15.36c-6.827-5.12-11.947-10.24-17.067-13.653-5.12-5.12-8.533-8.533-11.947-11.947-6.827-6.827-10.24-11.947-10.24-11.947s1.707 0 3.413 1.707c6.827 3.413 10.24 5.12 13.653 8.533z" />
<glyph unicode="&#xe944;" glyph-name="star" d="M512 874.667c-235.52 0-426.667-191.147-426.667-426.667s191.147-426.667 426.667-426.667c235.52 0 426.667 191.147 426.667 426.667s-191.147 426.667-426.667 426.667zM655.36 234.667l-143.36 73.387-143.36-73.387 27.307 153.6-116.053 109.227 160.427 22.187 71.68 139.947 71.68-139.947 160.427-22.187-116.053-109.227 27.307-153.6z" />
<glyph unicode="&#xf000;" glyph-name="Mobli" d="M670.632 651.865c29.251 0 52.962 23.871 52.962 53.256s-23.711 53.192-52.962 53.192c-29.257 0-52.965-23.807-52.965-53.192s23.708-53.256 52.965-53.256zM641.344 604.088c-83.75 26.678-174.219 26.937-259.439-0.261-44.873-15.492-81.434-66.138-81.498-112.842v-220.072c0.064-46.801 36.658-97.448 82.25-113.137 41.875-13.338 85.381-20.089 129.344-20.089s87.469 6.751 130.092 20.354c44.976 15.521 81.536 66.203 81.502 112.873v220.103c-0.034 46.768-36.591 97.382-82.251 113.071zM659.899 270.913c0-17.611-17.774-45.203-37.8-52.149-71.258-22.665-149.628-22.47-219.516-0.196-20.68 7.108-38.449 34.766-38.484 52.345v220.040c0.035 17.611 17.805 45.267 37.801 52.147 35.644 11.318 72.693 17.090 110.1 17.090 37.439 0 74.487-5.772 109.416-16.893 20.709-7.078 38.451-34.701 38.483-52.313v-220.071z" />
<glyph unicode="&#xf001;" glyph-name="Facebook" d="M632.442 448.012h-77.331v-280.124h-115.89v280.124h-57.923v96.562h57.923v57.943c0 78.752 32.703 125.594 125.584 125.594h77.331v-96.542h-48.313c-36.17 0-38.577-13.512-38.577-38.691l-0.134-48.303h87.591l-10.261-96.563z" />
<glyph unicode="&#xf002;" glyph-name="Twitter" d="M739.351 437.029c-48.692-197.563-375.597-281.389-525.964-76.272 57.599-54.986 157.909-59.866 221.512 5.932-37.307-5.47-64.457 31.158-18.61 50.944-41.192-4.505-64.132 17.414-73.521 36.058 9.649 10.099 20.32 14.82 40.935 16.176-45.12 10.66-61.773 32.732-66.863 59.549 12.498 2.972 28.149 5.564 36.701 4.409-39.506 20.659-53.224 51.778-51.053 75.157 70.603-26.246 115.603-47.325 153.219-67.491 13.396-7.172 28.384-20.065 45.241-36.437 21.472 56.848 48.022 115.407 93.471 144.479-0.746-6.597-4.279-12.72-8.955-17.737 12.916 11.72 29.642 19.786 46.672 22.121-1.957-12.802-20.354-19.994-31.476-24.162 8.419 2.621 53.164 22.578 58.043 11.187 5.76-12.915-30.871-18.888-37.076-21.122-4.685-1.573-9.318-3.296-13.889-5.149 56.674 5.659 110.8-41.145 126.579-99.221 1.143-4.2 2.266-8.837 3.296-13.712 20.723-7.729 58.297 0.384 70.391 7.829-8.756-20.705-31.478-35.961-65.040-38.741 16.149-6.719 46.632-10.45 67.648-6.861-13.301-14.292-34.728-27.231-71.261-26.936z" />
<glyph unicode="&#xf003;" glyph-name="YouTube" d="M588.424 526.398c5.844 0 11.863 1.803 18.096 5.33 6.193 3.557 12.18 8.771 17.912 15.593v-18.499h31.152v167.579h-31.152v-127.21c-2.924-3.644-6.135-6.656-9.637-9.016-3.502-2.373-6.375-3.501-8.652-3.501-2.963 0-5.064 0.855-6.35 2.634-1.303 1.762-1.971 4.628-1.971 8.613v128.48h-31.145v-140.079c0-9.988 1.797-17.445 5.48-22.453 3.619-4.954 9.060-7.471 16.267-7.471zM375.428 528.822h35.094v94.251l40.834 132.88h-35.625l-21.684-90.774h-2.269l-22.745 90.774h-35.322l41.717-137.082zM449.772 571.214c0-14.23 4.113-25.579 12.26-33.984 8.17-8.432 19.094-12.648 32.727-12.648 14.152 0 25.262 4.111 33.336 12.257 8.088 8.133 12.135 19.393 12.135 33.779v86.521c0 12.775-4.105 23.23-12.342 31.337-8.256 8.068-18.789 12.154-31.709 12.154-14.172 0-25.449-3.853-33.803-11.532-8.398-7.719-12.615-18.057-12.615-31.016l0.011-86.868zM481.826 659.354c0 3.646 1.211 6.602 3.574 8.886 2.385 2.23 5.465 3.335 9.254 3.335 4.111 0 7.477-1.104 10-3.335 2.529-2.284 3.801-5.24 3.801-8.886v-91.278c0-4.514-1.238-8.018-3.703-10.598-2.49-2.568-5.855-3.852-10.098-3.852-4.092 0-7.258 1.245-9.49 3.761-2.229 2.516-3.338 6.060-3.338 10.689v91.278zM680.612 345.058c-4.936 0-8.521-1.505-10.674-4.541-2.16-3.061-3.244-8.065-3.244-15.109v-16.955h27.518v16.955c0 7.044-1.080 12.048-3.24 15.109-2.157 3.035-5.587 4.541-10.36 4.541zM566.055 345.668c-2.23 0-4.396-0.545-6.551-1.647-2.191-1.128-4.346-2.776-6.453-5.097v-104.422c2.518-2.748 4.988-4.668 7.375-5.9 2.373-1.218 4.863-1.804 7.535-1.804 3.809 0 6.629 1.18 8.381 3.527 1.822 2.376 2.717 6.176 2.717 11.571v86.468c0 5.694-1.115 9.961-3.326 12.906-2.227 2.945-5.469 4.398-9.678 4.398zM765.309 409.098c0 40.47-33.219 73.288-74.164 73.288-55.531 2.282-112.287 3.412-170.127 3.412h-18.113c-57.814 0-114.57-1.13-170.127-3.412-40.892 0-74.117-32.817-74.117-73.288-2.465-32.091-3.55-64.132-3.418-96.185-0.132-32.039 0.953-64.091 3.418-96.182 0-40.432 33.226-73.288 74.117-73.288 58.43-2.464 118.229-3.516 179.193-3.386 60.953-0.13 120.713 0.921 179.174 3.386 40.945 0 74.164 32.856 74.164 73.288 2.439 32.091 3.514 64.144 3.457 96.182 0.057 32.053-1.018 64.094-3.457 96.185zM366.401 202.579h-35.102v194.196h-36.301v32.986h107.682v-32.986h-36.279v-194.196zM491.211 202.579h-31.152v18.498c-5.771-6.808-11.727-12.013-17.934-15.553-6.238-3.555-12.27-5.343-18.113-5.343-7.166 0-12.602 2.49-16.266 7.458-3.645 5.006-5.48 12.505-5.48 22.453v140.077h31.15v-128.442c0-3.968 0.674-6.849 1.99-8.626 1.305-1.765 3.393-2.658 6.326-2.658 2.273 0 5.18 1.167 8.695 3.5 3.49 2.349 6.699 5.333 9.631 9.030v127.196h31.152v-167.59zM611.137 237.306c0-11.895-2.432-21.016-7.336-27.345-4.889-6.317-11.938-9.494-21.156-9.494-6.115 0-11.512 1.219-16.297 3.683-4.762 2.477-9.191 6.213-13.297 11.339v-12.91h-31.457v227.182h31.457v-73.132c4.195 5.123 8.68 9 13.355 11.66 4.74 2.646 9.514 4.021 14.357 4.021 9.814 0 17.369-3.631 22.57-10.751 5.215-7.188 7.803-17.591 7.803-31.263v-92.99zM726.297 282.471h-59.604v-31.65c0-8.795 0.998-14.93 3.094-18.315 2.057-3.423 5.545-5.098 10.508-5.098 5.135 0 8.793 1.453 10.83 4.333 2.068 2.878 3.086 9.207 3.086 19.080v11.662h32.086v-12.569c0-17.187-3.932-30.121-11.727-38.823-7.801-8.704-19.463-12.997-34.988-12.997-13.932 0-24.914 4.579-32.93 13.773-8.029 9.211-12.006 21.909-12.006 38.047v75.234c0 14.526 4.367 26.358 13.152 35.513 8.842 9.172 20.211 13.739 34.168 13.739 14.242 0 25.164-4.23 32.857-12.724 7.627-8.458 11.473-20.665 11.473-36.528v-42.677z" />
<glyph unicode="&#xf004;" glyph-name="HolaTelcel" d="M127.663 486.198c-16.111 0-28.058-7.862-32.461-18.159h-0.627v38.199c0 12.812-6.916 17.763-16.817 17.763-8.175 0-13.755-4.006-13.755-4.006v-111.844c0-12.259 6.677-17.058 16.583-17.058 8.25 0 13.989 3.853 13.989 3.853v46.61c0 12.494 7.31 20.042 18.313 20.042 9.905 0 14.775-3.852 14.775-14.934v-38.513c0-12.259 6.681-17.058 16.585-17.058 8.252 0 13.989 3.853 13.989 3.853v55.962c0 25.545-10.138 35.29-30.574 35.29zM219.149 485.804c-28.452 0-47.157-14.619-47.157-44.487 0-27.898 15.171-50.614 47.313-50.614 29.946 0 47.393 22.716 47.393 50.614 0 29.868-16.503 44.487-47.549 44.487zM219.306 415.145c-9.824 0-16.268 6.68-16.268 26.016 0 14.62 6.21 19.962 16.111 19.962 10.454 0 16.507-5.342 16.507-19.962 0-19.337-6.445-26.016-16.35-26.016zM312.759 413.575c-6.209 0-8.098 2.829-8.098 8.564v84.574c0 12.417-6.916 17.288-16.817 17.288-8.175 0-13.755-3.931-13.755-3.931v-103.666c0-17.213 6.916-26.251 21.93-26.251 14.222 0 20.985 8.175 20.985 17.449 0 4.010-1.183 6.206-1.183 6.206s-1.336-0.233-3.062-0.233zM404.951 517.634c-43.385 0-54.31-6.681-54.31-16.738 0-4.562 1.335-7.783 1.335-7.783s19.177 6.207 51.086 6.207c44.721 0 62.405-12.255 62.405-41.495 0-26.647-8.956-35.685-15.324-35.685-4.951 0-5.188 4.637-5.188 12.419v26.251c0 17.292-9.981 24.995-46.214 24.995-38.119 0-60.596-15.172-60.596-52.579 0-39.224 20.354-61.226 78.753-61.226 42.832 0 56.352 6.68 56.352 16.737 0 4.48-1.333 7.229-1.333 7.229s-18.863-5.656-54.155-5.656c-44.249 0-56.195 14.852-56.195 41.421 0 25.463 11.394 35.76 39.847 35.76 15.877 0 18.862-2.75 18.862-9.667v-4.951c-2.748 0.392-6.992 1.099-13.988 1.099-17.054 0-30.103-6.523-30.103-28.452 0-15.169 10.138-21.692 20.828-21.692 12.027 0 20.043 6.366 22.871 13.361h0.55c0.943-6.995 6.683-13.361 23.188-13.361 25.309 0 45.27 12.341 45.27 54.624-0.002 41.498-21.693 59.182-83.941 59.182zM420.275 436.052c0-8.724-4.637-14.462-12.104-14.462-5.343 0-8.251 3.377-8.251 9.826 0 7.229 3.615 10.611 11.003 10.611 4.715 0 7.229-0.553 9.352-1.023v-4.952zM540.215 485.408v8.332c0 12.576-6.915 17.526-16.82 17.526-8.175 0-13.755-4.004-13.755-4.004v-84.575c0-20.512 9.748-31.985 32.302-31.985 18.709 0 27.51 6.285 27.51 16.978 0 4.95-1.179 7.308-1.179 7.308s-5.5-0.393-16.034-0.393c-9.587 0-12.023 3.456-12.023 11.557v35.367h17.211c11.241 0 16.193 6.127 16.193 14.695 0 5.974-2.122 9.194-2.122 9.194h-31.283zM629.266 486.198c-25.702 0-43.467-15.248-43.467-45.037 0-28.295 15.878-50.458 46.138-50.458 17.917 0 25.386 5.895 25.386 18.315 0 4.951-1.179 7.308-1.179 7.308s-5.66-1.181-17.37-1.181c-13.753 0-20.985 5.578-21.928 20.515h40.634c10.141 0 12.104 2.358 12.104 12.337-0.001 24.286-14.541 38.201-40.318 38.201zM642.467 447.609h-25.622c0.549 9.741 5.19 15.087 14.146 15.087 9.118 0 12.576-6.915 11.476-15.087zM720.2 413.575c-6.21 0-8.095 2.829-8.095 8.564v84.574c0 12.417-6.92 17.288-16.82 17.288-8.175 0-13.755-3.931-13.755-3.931v-103.666c0-17.213 6.916-26.251 21.93-26.251 14.226 0 20.984 8.175 20.984 17.449 0 4.010-1.179 6.206-1.179 6.206s-1.335-0.233-3.065-0.233zM783.156 485.408c-25.858 0-44.566-14.146-44.566-43.934 0-28.609 16.115-50.772 46.532-50.772 17.919 0 25.386 5.895 25.386 18.315 0 4.951-1.181 7.229-1.181 7.229s-4.951-1.102-17.37-1.102c-15.481 0-22.32 6.209-22.32 26.172 0 13.993 6.129 19.493 20.198 19.493 11.474 0 22.008-1.652 22.008-1.652s1.728 3.226 1.728 8.257c0 13.358-6.679 17.994-30.415 17.994zM864.815 486.198c-25.701 0-43.462-15.248-43.462-45.037 0-28.295 15.876-50.458 46.138-50.458 17.917 0 25.386 5.895 25.386 18.315 0 4.951-1.183 7.308-1.183 7.308s-5.656-1.181-17.37-1.181c-13.753 0-20.984 5.578-21.928 20.515h40.638c10.138 0 12.104 2.358 12.104 12.337 0 24.286-14.542 38.201-40.323 38.201zM878.021 447.609h-25.625c0.553 9.741 5.188 15.087 14.149 15.087 9.119 0 12.577-6.915 11.476-15.087zM958.816 413.807c0 0-1.336-0.232-3.063-0.232-6.208 0-8.097 2.829-8.097 8.564v84.574c0 12.417-6.916 17.288-16.821 17.288-8.171 0-13.755-3.931-13.755-3.931v-103.666c0-17.213 6.92-26.251 22.011-26.251 14.146 0 20.906 8.175 20.906 17.449 0 4.009-1.181 6.205-1.181 6.205z" />
<glyph unicode="&#xf005;" glyph-name="Pinterest" d="M555.989 321.011c-35.365 0-68.621 19.118-80.003 40.823 0 0-19.025-75.454-23.036-90.026-14.183-51.458-55.9-102.958-59.13-107.173-2.261-2.939-7.256-2.016-7.783 1.87-0.898 6.559-11.531 71.494 0.982 124.46 6.284 26.596 42.126 178.468 42.126 178.468s-10.445 20.909-10.445 51.823c0 48.539 28.136 84.773 63.16 84.773 29.783 0 44.172-22.362 44.172-49.169 0-29.949-19.066-74.725-28.91-116.215-8.224-34.754 17.425-63.089 51.688-63.089 62.040 0 103.834 79.701 103.834 174.133 0 71.776-48.322 125.514-136.274 125.514-99.323 0-161.25-74.094-161.25-156.863 0-28.525 8.429-48.668 21.62-64.226 6.050-7.161 6.902-10.042 4.709-18.254-1.6-6.036-5.177-20.535-6.69-26.284-2.176-8.305-8.896-11.262-16.396-8.199-45.743 18.679-67.067 68.792-67.067 125.12 0 93.034 78.457 204.599 234.062 204.599 125.060 0 207.347-90.475 207.347-187.626-0.001-128.478-71.43-224.459-176.716-224.459z" />
<glyph unicode="&#xf006;" glyph-name="GooglePlus" d="M510.988 408.083c-19.173 14.349-52.346 34.087-50.216 61.237 0.727 9.312 7.325 19.001 20.388 26.657 22.984 13.459 38.626 31.172 46.346 51.734 8.169 21.812 7.046 45.494-1.002 66.866-7.555 20.060-21.27 38.070-39.162 50.575h42.367l37.225 24.093c-53.087 0.422-103.222 0.444-157.369 0.444-52.053 0-98.962-25.173-120.056-70.477-9.717-20.876-13.59-47.522-7.358-73.030 12.278-50.26 64.755-83.517 115.708-75.817 5.55 0.842 7.411 2.614 4.482-2.539-11.246-19.746-3.018-49.323 19.037-63.834-14.661 1.042-30.241 1.372-47.686-0.674-62.286-7.287-131.229-39.271-127.648-106.452 2.777-51.998 55.354-90.184 138.703-90.554 67.115 0.232 130.302 21.45 156.83 69.004 27.781 49.793 11.387 101.348-30.589 132.767zM341.634 560.822c-14.511 56.87 0.505 92.976 35.58 103.873 41.523 12.924 85.904-24.54 96.027-85.948 6.631-40.233-3.589-78.381-39.96-88.435-37.226-10.301-78.4 18.661-91.647 70.51zM506.734 295.789c-3.592-31.509-33.813-56.341-85.572-59.482-55.274-3.359-129.672 18.525-115.891 91.217 7.333 38.724 58.722 58.723 101.213 60.134 11.762 0.389 23.732-0.59 35.495-0.977 6.267-4.583 12.785-9.046 19.505-13.294 36.564-23.158 48.222-51.47 45.25-77.598zM685.541 592.896v92.544h-26.069v-92.544h-92.539v-26.073h92.539v-92.546h26.069v92.546h92.549v26.073z" />
<glyph unicode="&#xf007;" glyph-name="Email" d="M245.487 489.28v-303.37h533.026v303.37l-266.513-222.77zM512 710.090l-266.513-220.758h533.026z" />
<glyph unicode="&#xf008;" glyph-name="MobliNeg" d="M621.416 565.686c-34.929 11.12-71.977 16.893-109.416 16.893-37.406 0-74.456-5.772-110.1-17.090-19.996-6.88-37.766-34.536-37.801-52.147v-220.040c0.035-17.58 17.805-45.237 38.484-52.345 69.888-22.274 148.258-22.468 219.516 0.196 20.025 6.946 37.8 34.538 37.8 52.149v220.071c-0.032 17.612-17.774 45.235-38.483 52.313zM512 895.783c-247.316 0-447.783-200.467-447.783-447.784 0-247.314 200.467-447.782 447.783-447.782 247.314 0 447.783 200.467 447.783 447.782 0 247.317-200.469 447.784-447.783 447.784zM723.594 293.301c0.034-46.67-36.526-97.353-81.502-112.873-42.623-13.603-86.129-20.354-130.092-20.354s-87.469 6.751-129.344 20.089c-45.592 15.689-82.186 66.336-82.25 113.137v220.073c0.064 46.704 36.625 97.351 81.498 112.842 85.221 27.198 175.689 26.939 259.439 0.261 45.66-15.688 82.218-66.303 82.25-113.071v-220.104zM670.632 674.254c-29.257 0-52.965 23.871-52.965 53.256s23.708 53.192 52.965 53.192c29.251 0 52.962-23.807 52.962-53.192s-23.711-53.256-52.962-53.256z" />
<glyph unicode="&#xf009;" glyph-name="FacebookNeg" d="M512 895.782c-247.305 0-447.784-200.48-447.784-447.783s200.479-447.782 447.784-447.782 447.783 200.478 447.783 447.782c0.001 247.303-200.478 447.783-447.783 447.783zM632.444 448.014h-77.331v-280.124h-115.891v280.124h-57.923v96.562h57.923v57.944c0 78.752 32.703 125.594 125.584 125.594h77.331v-96.542h-48.313c-36.17 0-38.577-13.512-38.577-38.691l-0.134-48.303h87.591l-10.26-96.564z" />
<glyph unicode="&#xf00a;" glyph-name="TwitterNeg" d="M512 895.782c-247.304 0-447.784-200.48-447.784-447.783s200.48-447.782 447.784-447.782c247.305 0 447.784 200.478 447.784 447.782s-200.479 447.783-447.784 447.783zM739.351 437.029c-48.692-197.563-375.597-281.389-525.964-76.272 57.599-54.986 157.909-59.866 221.512 5.932-37.307-5.47-64.457 31.158-18.61 50.944-41.192-4.505-64.132 17.414-73.521 36.058 9.649 10.099 20.32 14.82 40.935 16.176-45.12 10.66-61.773 32.732-66.863 59.549 12.498 2.972 28.149 5.564 36.701 4.409-39.506 20.659-53.224 51.778-51.053 75.157 70.603-26.246 115.603-47.325 153.219-67.491 13.396-7.172 28.384-20.065 45.241-36.437 21.472 56.848 48.022 115.407 93.471 144.479-0.746-6.597-4.279-12.72-8.955-17.737 12.916 11.72 29.642 19.786 46.672 22.121-1.957-12.802-20.354-19.994-31.476-24.162 8.419 2.621 53.164 22.578 58.043 11.187 5.76-12.915-30.871-18.888-37.076-21.122-4.685-1.573-9.318-3.296-13.889-5.149 56.674 5.659 110.8-41.145 126.579-99.221 1.143-4.2 2.266-8.837 3.296-13.712 20.723-7.729 58.297 0.384 70.391 7.829-8.756-20.705-31.478-35.961-65.040-38.741 16.149-6.719 46.632-10.45 67.648-6.861-13.301-14.292-34.728-27.231-71.261-26.936z" />
</font>
</defs>
</svg>
